<svg xmlns="http://www.w3.org/2000/svg" viewBox="0 0 67 69" width="67" height="69">
	<defs>
		<linearGradient id="grd1" gradientUnits="userSpaceOnUse"  x1="34.133" y1="63.784" x2="34.133" y2="5.162">
			<stop offset="0" stop-color="#fda315"  />
			<stop offset="1" stop-color="#fecb43"  />
		</linearGradient>
	</defs>
	<style>
		tspan { white-space:pre }
		.shp0 { fill: #ffffff } 
		.shp1 { fill: url(#grd1) } 
		.shp2 { opacity: 0.251;mix-blend-mode: multiply;fill: #c28017 } 
		.shp3 { opacity: 0.502;mix-blend-mode: overlay;fill: #ffffff } 
		.shp4 { mix-blend-mode: overlay;fill: #ffffff } 
	</style>
	<g id="Buttons">
		<g id="Achievements btn">
			<path id="Base 1" class="shp0" d="M35.1 0.35C43.95 0.35 49.79 4.57 55.79 10.15C62.41 16.3 66.81 24.89 66.81 34.63C66.81 44.51 64.49 52.77 57.71 58.93C51.73 64.35 42.7 68.02 34 68.02C23.64 68.02 14.91 64.42 8.74 57.05C3.84 51.21 0.51 42.22 0.51 34C0.51 22.61 7.12 12.54 15.78 6.45C21.25 2.61 27.91 0.35 35.1 0.35Z" />
			<path id="Base 2" class="shp1" d="M34.19 5.16C42.07 5.16 48.09 7.76 53.45 12.74C59.34 18.21 63.27 25.88 63.27 34.56C63.27 43.37 59.5 51.1 53.45 56.59C48.13 61.42 41.77 63.78 34.02 63.78C24.78 63.78 17.7 59.51 12.19 52.94C7.83 47.73 5 41.33 5 34C5 23.84 10.05 14.86 17.77 9.44C22.65 6.01 27.78 5.16 34.19 5.16Z" />
			<path id="Shadow" class="shp2" d="M5.69 38.79C6.59 44.66 16.65 61.1 36.79 55.93C68.65 47.76 60.21 20.96 60.21 20.96L64.95 29.14C64.95 29.14 65.74 44.23 60.68 52.49C58.72 55.68 46.69 66.6 33.34 65.67C26.51 65.2 14.33 60.02 10.33 55.62C6.33 51.22 3.05 40.79 3.05 40.79" />
			<path id="Light" class="shp3" d="M10.05 51.85C10.26 52.06 3.8 31.11 15.5 21.02C25.3 12.58 36.2 7.08 47.57 11.7C61.69 17.44 63.32 27.64 63.32 27.64C63.32 27.64 62.94 19.23 53.92 10.52C41.5 -1.49 25.17 0.21 14.01 9.19C-1.9 21.99 2.71 44.54 10.05 51.85Z" />
			<path id="Highlight" class="shp4" d="M14.78 17.06C12.41 19.05 11.03 26.34 15.72 20.57C18.14 17.6 22.86 14.99 22.76 14.38C22.67 13.8 18.88 13.6 14.78 17.06Z" />
			<path id="Cup icon" fill-rule="evenodd" class="shp0" d="M40.97 19.19C43.9 19.42 45.91 19.68 45.93 20.88C45.94 21.32 46.03 22.24 46.05 23.56C45.75 23.72 45.47 23.91 45.25 24.1C44.08 25.1 45.25 26.12 45.25 26.12C45.25 26.12 45.55 26.02 45.99 25.93C45.91 27.24 45.73 28.74 45.39 30.41C45.37 30.51 45.35 30.6 45.33 30.7C44.88 30.55 44.57 30.4 44.57 30.4L44.41 31.87C44.41 31.87 44.53 32.2 44.79 32.6C43.67 35.66 41.86 36.43 39.43 37.73C36.5 39.31 36.9 42.32 37.01 44.13C37.12 45.93 39.47 46.38 41.83 47.28C44.2 48.18 43.97 50.69 41.49 50.92C39.02 51.14 31.25 51.01 26.85 50.89C22.65 50.78 27.18 47.06 29.44 46.38C31.69 45.71 32.02 44.92 32.02 42.21C32.02 39.51 31.56 38.7 27.05 36.56C25.36 35.75 24.26 33.9 23.65 31.72C23.12 33.1 21.92 35.07 19.62 33.37C17.75 31.99 17.22 26.1 18.32 24.11C19.27 22.39 21.66 22.96 22.95 23.83C22.96 22.44 23.03 21.29 23.23 20.79C24.07 18.7 38.04 18.96 40.97 19.19ZM23.03 27.56C23.01 27.05 22.99 26.52 22.98 26C22.23 25.76 20.43 25.3 20.12 26.38C19.88 27.2 19.54 30.97 21.39 31.02C22.06 31.04 22.74 30.37 23.22 29.74C23.12 29.02 23.05 28.28 23.03 27.56ZM45.99 25.93C46.04 25.04 46.06 24.25 46.05 23.56C47.32 22.87 49.12 22.59 50.1 24.04C51.72 26.43 51.01 31.83 49.13 33.22C46.79 34.95 45.4 33.57 44.79 32.6C44.99 32.05 45.17 31.42 45.33 30.7C45.85 30.88 46.58 31.07 47.26 31.05C49.11 30.99 49.15 27.28 48.91 26.46C48.63 25.51 46.98 25.71 45.99 25.93Z" />
		</g>
	</g>
</svg>