<svg xmlns="http://www.w3.org/2000/svg" viewBox="0 0 67 69" width="67" height="69">
	<defs>
		<linearGradient id="grd1" gradientUnits="userSpaceOnUse"  x1="34.133" y1="63.784" x2="34.133" y2="5.162">
			<stop offset="0" stop-color="#fda315"  />
			<stop offset="1" stop-color="#fecb43"  />
		</linearGradient>
	</defs>
	<style>
		tspan { white-space:pre }
		.shp0 { fill: #ffffff } 
		.shp1 { fill: url(#grd1) } 
		.shp2 { opacity: 0.251;mix-blend-mode: multiply;fill: #c28017 } 
		.shp3 { opacity: 0.502;mix-blend-mode: overlay;fill: #ffffff } 
		.shp4 { mix-blend-mode: overlay;fill: #ffffff } 
	</style>
	<g id="Buttons">
		<g id="More games btn">
			<path id="Base 1" class="shp0" d="M35.1 0.35C43.95 0.35 49.79 4.57 55.79 10.15C62.41 16.29 66.81 24.89 66.81 34.63C66.81 44.51 64.49 52.77 57.71 58.93C51.73 64.35 42.7 68.02 34 68.02C23.64 68.02 14.91 64.42 8.74 57.05C3.84 51.21 0.51 42.22 0.51 34C0.51 22.61 7.12 12.54 15.78 6.45C21.25 2.61 27.91 0.35 35.1 0.35Z" />
			<path id="Base 2" class="shp1" d="M34.19 5.16C42.07 5.16 48.09 7.76 53.45 12.74C59.34 18.21 63.27 25.88 63.27 34.56C63.27 43.37 59.5 51.1 53.45 56.59C48.13 61.42 41.77 63.78 34.02 63.78C24.78 63.78 17.7 59.51 12.19 52.94C7.83 47.73 5 41.33 5 34C5 23.84 10.05 14.86 17.77 9.44C22.65 6.01 27.78 5.16 34.19 5.16Z" />
			<path id="Shadow" class="shp2" d="M5.69 38.79C6.59 44.66 16.65 61.1 36.79 55.93C68.65 47.76 60.21 20.96 60.21 20.96L64.95 29.14C64.95 29.14 65.74 44.23 60.68 52.49C58.72 55.68 46.69 66.6 33.34 65.67C26.51 65.2 14.33 60.02 10.33 55.62C6.33 51.22 3.05 40.79 3.05 40.79" />
			<path id="Light" class="shp3" d="M10.05 51.85C10.26 52.06 3.8 31.11 15.5 21.02C25.3 12.58 36.2 7.08 47.57 11.7C61.69 17.44 63.32 27.64 63.32 27.64C63.32 27.64 62.94 19.23 53.92 10.52C41.5 -1.49 25.17 0.21 14.01 9.19C-1.9 21.99 2.71 44.54 10.05 51.85Z" />
			<path id="Highlight" class="shp4" d="M14.78 17.06C12.41 19.05 11.03 26.34 15.72 20.57C18.14 17.6 22.86 14.99 22.76 14.38C22.67 13.8 18.88 13.6 14.78 17.06Z" />
			<path id="Controller icon" fill-rule="evenodd" class="shp0" d="M31.43 20.43C33.52 17.89 35.82 16.28 40.57 17.71C45.09 19.08 50.43 25.29 52.43 29.14C54.43 33 54.29 36.43 51.43 36C48.57 35.57 45.48 33.57 42.02 33.41C40.14 33.32 31.55 37.51 28.86 40.29C27 42.19 28.82 43.54 26.68 47.96C24.53 52.39 19.58 49.52 17.15 39.37C14.72 29.23 18.33 25.6 21.57 25C24.12 24.53 28.77 23.66 31.43 20.43ZM22.28 33.66C22.03 33.84 20.04 35.19 20.09 35.55C20.16 36.06 21.27 37.6 21.74 37.48C22.21 37.35 23.59 35.72 23.59 35.72C24.22 36.31 24.74 38.26 25.62 37.69C25.62 37.69 27.6 36.49 27.34 35.93C27.22 35.65 25.77 34.23 25.77 34.23C25.77 34.23 26.06 34.09 26.41 33.84C26.75 33.59 27.92 32.8 27.51 32.12C27.11 31.43 26.44 30.47 26.04 30.65C25.53 30.88 24.25 32.17 24.25 32.17C24.25 32.17 23.39 30.21 22.8 30.21C22.22 30.21 21.58 30.92 20.94 31.37C19.96 32.07 22.28 33.66 22.28 33.66ZM25.62 37.69C25.62 37.69 25.62 37.69 25.62 37.69C25.62 37.69 25.62 37.69 25.62 37.69ZM34 23L34 24C34 24.55 34.45 25 35 25L36 25C36.55 25 37 24.55 37 24L37 23C37 22.45 36.55 22 36 22L35 22C34.45 22 34 22.45 34 23ZM39 23L39 24C39 24.55 39.45 25 40 25L41 25C41.55 25 42 24.55 42 24L42 23C42 22.45 41.55 22 41 22L40 22C39.45 22 39 22.45 39 23ZM39 28L39 29C39 29.55 39.45 30 40 30L41 30C41.55 30 42 29.55 42 29L42 28C42 27.45 41.55 27 41 27L40 27C39.45 27 39 27.45 39 28ZM34 28L34 29C34 29.55 34.45 30 35 30L36 30C36.55 30 37 29.55 37 29L37 28C37 27.45 36.55 27 36 27L35 27C34.45 27 34 27.45 34 28Z" />
		</g>
	</g>
</svg>