<svg xmlns="http://www.w3.org/2000/svg" viewBox="0 0 479 546" width="479" height="546">
	<defs>
		<linearGradient id="grd1" gradientUnits="userSpaceOnUse"  x1="141.133" y1="539.784" x2="141.133" y2="481.162">
			<stop offset="0" stop-color="#fda315"  />
			<stop offset="1" stop-color="#fecb43"  />
		</linearGradient>
		<linearGradient id="grd2" gradientUnits="userSpaceOnUse"  x1="243.133" y1="540.784" x2="243.133" y2="482.162">
			<stop offset="0" stop-color="#fda315"  />
			<stop offset="1" stop-color="#fecb43"  />
		</linearGradient>
		<linearGradient id="grd3" gradientUnits="userSpaceOnUse"  x1="344.133" y1="538.784" x2="344.133" y2="480.162">
			<stop offset="0" stop-color="#fda315"  />
			<stop offset="1" stop-color="#fecb43"  />
		</linearGradient>
		<linearGradient id="grd4" gradientUnits="userSpaceOnUse"  x1="238.989" y1="434.109" x2="238.989" y2="377.16">
			<stop offset="0" stop-color="#4063c2"  />
			<stop offset="1" stop-color="#7c9cde"  />
		</linearGradient>
		<linearGradient id="grd5" gradientUnits="userSpaceOnUse"  x1="335.533" y1="208.832" x2="335.533" y2="145.268">
			<stop offset="0" stop-color="#a57434"  />
			<stop offset="1" stop-color="#8b561d"  />
		</linearGradient>
		<linearGradient id="grd6" gradientUnits="userSpaceOnUse"  x1="235.16" y1="197.228" x2="235.16" y2="120.018">
			<stop offset="0" stop-color="#ffd409"  />
			<stop offset="1" stop-color="#fff36e"  />
		</linearGradient>
		<linearGradient id="grd7" gradientUnits="userSpaceOnUse"  x1="135.498" y1="209.832" x2="135.498" y2="146.268">
			<stop offset="0" stop-color="#ffd409"  />
			<stop offset="1" stop-color="#fff36e"  />
		</linearGradient>
	</defs>
	<style>
		tspan { white-space:pre }
		.shp0 { fill: #d6a770 } 
		.shp1 { fill: #f8e8b0 } 
		.shp2 { fill: #ffffff } 
		.shp3 { fill: url(#grd1) } 
		.shp4 { opacity: 0.251;mix-blend-mode: multiply;fill: #c28017 } 
		.shp5 { opacity: 0.502;mix-blend-mode: overlay;fill: #ffffff } 
		.shp6 { mix-blend-mode: overlay;fill: #ffffff } 
		.shp7 { fill: url(#grd2) } 
		.shp8 { fill: url(#grd3) } 
		.shp9 { fill: url(#grd4) } 
		.shp10 { opacity: 0.251;mix-blend-mode: multiply;fill: #2b50a7 } 
		.shp11 { opacity: 0.251;mix-blend-mode: overlay;fill: #ffffff } 
		.shp12 { opacity: 0.4;mix-blend-mode: overlay;fill: #ffffff } 
		.txt13 { font-size: 26px;fill: #ffffff;font-family: "" Carter  One"" } 
		.txt14 { font-size: 30px;fill: #ffffff;font-family: "" Carter  One"";text-anchor: end } 
		.shp15 { fill: url(#grd5) } 
		.shp16 { fill: url(#grd6) } 
		.shp17 { fill: url(#grd7) } 
		.shp18 { opacity: 0.102;fill: #000000 } 
		.shp19 { fill: #a5e24d } 
		.shp20 { fill: #439043 } 
		.shp21 { opacity: 0.6;fill: #439043 } 
		.txt22 { font-size: 20px;fill: #ffffff;font-family: "" Carter  One"" } 
	</style>
	<g id="Level Cleared">
		<g id="Panel">
			<path id="Base" class="shp0" d="M47.72 48.13C79.81 41.72 117.21 52.17 247.3 51.52C365.2 50.94 422.66 52.92 432.77 53.67C461.71 55.85 477.68 66.07 478.48 97.27C479.1 121.62 478.33 145.94 477.39 200.24C477.07 218.78 476.51 240.57 476.2 261.7C474.89 349.84 471.01 464.91 469.63 478.05C466.96 503.41 454.25 517.95 421.84 520.19C389.42 522.43 375.05 516.62 254.73 516.62C122.42 516.62 86.66 524.33 59.92 521.96C33.18 519.59 13.61 508.96 10.87 479.31C8.13 449.66 -2.35 126.8 0.82 99.38C3.99 71.96 23.85 52.91 47.72 48.13Z" />
			<path id="Base" class="shp1" d="M65.73 54.67C96.99 48.58 119.47 58.07 246.2 57.46C361.06 56.91 413.83 60.29 423.69 61.01C451.88 63.08 469.11 73.7 469.87 104.14C470.52 130.25 466.78 146.39 465.89 201.14C465.52 224.18 463.9 230.14 465.48 259.52C470.18 347.31 460.35 459.39 459 471.88C456.4 495.96 444.02 509.78 412.44 511.9C380.87 514.03 370.55 509.11 253.32 509.11C124.42 509.11 91.32 513.43 65.27 511.17C39.22 508.92 20.16 498.83 17.49 470.66C14.82 442.49 10.99 142.56 11.48 101.85C11.88 69.38 42.47 59.21 65.73 54.67Z" />
		</g>
		<g id="Menu btn">
			<path id="Base 1" class="shp2" d="M142.1 476.35C150.95 476.35 156.79 480.57 162.79 486.15C169.41 492.3 173.81 500.89 173.81 510.63C173.81 520.51 171.49 528.77 164.71 534.93C158.73 540.35 149.7 544.02 141 544.02C130.64 544.02 121.91 540.42 115.74 533.05C110.84 527.21 107.51 518.22 107.51 510C107.51 498.61 114.12 488.54 122.78 482.45C128.25 478.61 134.91 476.35 142.1 476.35Z" />
			<path id="Base 2" class="shp3" d="M141.19 481.16C149.07 481.16 155.09 483.76 160.45 488.74C166.34 494.21 170.27 501.88 170.27 510.56C170.27 519.37 166.5 527.1 160.45 532.59C155.13 537.42 148.77 539.78 141.02 539.78C131.78 539.78 124.7 535.51 119.19 528.94C114.83 523.73 112 517.33 112 510C112 499.84 117.05 490.86 124.77 485.44C129.65 482.01 134.78 481.16 141.19 481.16Z" />
			<path id="Shadow" class="shp4" d="M112.69 514.79C113.59 520.66 123.65 537.1 143.79 531.93C175.65 523.76 167.21 496.96 167.21 496.96L171.95 505.14C171.95 505.14 172.74 520.23 167.68 528.49C165.72 531.68 153.69 542.6 140.34 541.67C133.51 541.2 121.33 536.02 117.33 531.62C113.33 527.22 110.05 516.79 110.05 516.79" />
			<path id="Light" class="shp5" d="M117.05 527.85C117.26 528.06 110.8 507.11 122.5 497.02C132.3 488.58 143.2 483.08 154.57 487.7C168.69 493.44 170.32 503.64 170.32 503.64C170.32 503.64 169.94 495.23 160.92 486.52C148.5 474.51 132.17 476.21 121.01 485.19C105.1 497.99 109.71 520.54 117.05 527.85Z" />
			<path id="Highlight" class="shp6" d="M121.78 493.06C119.41 495.05 118.03 502.34 122.72 496.57C125.14 493.6 129.86 490.99 129.76 490.38C129.67 489.8 125.88 489.6 121.78 493.06Z" />
			<path id="Menu icon" class="shp2" d="M137.78 498.83C137.72 500.55 137.14 502.38 138.42 502.7C139.71 503.02 150.24 502.96 153.56 502.96C156.89 502.96 157.11 502.81 157 500.44C156.89 498.08 157.43 495.72 155.93 495.83C154.42 495.94 137.85 496.76 137.78 498.83ZM127.91 496.09C126.25 496.87 125.11 499.6 126.94 501.81C128.76 504.03 131.1 502.72 132.32 501.91C133.53 501.11 133.82 498.36 132.81 497.15C131.79 495.95 130.16 495.04 127.91 496.09ZM137.78 519.17C137.82 520.88 137.14 522.71 138.42 523.03C139.71 523.35 150.24 524 153.56 524C156.89 524 157.11 523.81 157 521.44C156.89 519.08 157.43 517.84 155.93 517.91C150.01 518.19 137.74 517.67 137.78 519.17ZM132.68 518.6C131.33 517.41 127.83 517.19 126.44 519.67C125.06 522.15 127.12 523.81 128.3 524.63C129.48 525.45 132.71 524.93 133.46 523.56C134.21 522.19 134.88 520.53 132.68 518.6ZM136.87 509.47C136.78 511.18 136.27 512.69 137.56 513.02C138.85 513.34 151.38 513.13 154.71 513.13C158.03 513.13 158.25 512.93 158.14 510.57C158.03 508.21 158.51 507.01 157.01 507.12C155.5 507.23 136.93 508.17 136.87 509.47ZM130.17 507.31C128.45 506.93 125.35 508.4 125.34 511.18C125.33 513.95 127.87 514.4 129.27 514.54C130.68 514.68 133.19 512.71 133.18 511.18C133.17 509.65 132.96 507.92 130.17 507.31Z" />
		</g>
		<g id="Reload btn">
			<path id="Base 1" class="shp2" d="M244.1 477.35C252.95 477.35 258.79 481.57 264.79 487.15C271.41 493.29 275.81 501.89 275.81 511.63C275.81 521.51 273.49 529.77 266.71 535.93C260.73 541.35 251.7 545.02 243 545.02C232.64 545.02 223.91 541.42 217.74 534.05C212.84 528.21 209.51 519.22 209.51 511C209.51 499.61 216.12 489.54 224.78 483.45C230.25 479.61 236.91 477.35 244.1 477.35Z" />
			<path id="Base 2" class="shp7" d="M243.19 482.16C251.07 482.16 257.09 484.76 262.45 489.74C268.34 495.21 272.27 502.88 272.27 511.56C272.27 520.37 268.5 528.1 262.45 533.59C257.13 538.42 250.77 540.78 243.02 540.78C233.78 540.78 226.7 536.51 221.19 529.94C216.83 524.73 214 518.33 214 511C214 500.84 219.05 491.86 226.77 486.44C231.65 483.01 236.78 482.16 243.19 482.16Z" />
			<path id="Shadow" class="shp4" d="M214.69 515.79C215.59 521.66 225.65 538.1 245.79 532.93C277.65 524.76 269.21 497.96 269.21 497.96L273.95 506.14C273.95 506.14 274.74 521.23 269.68 529.49C267.72 532.68 255.69 543.6 242.34 542.67C235.51 542.2 223.33 537.02 219.33 532.62C215.33 528.22 212.05 517.79 212.05 517.79" />
			<path id="Light" class="shp5" d="M219.05 528.85C219.26 529.06 212.8 508.11 224.5 498.02C234.3 489.58 245.2 484.08 256.57 488.7C270.69 494.44 272.32 504.64 272.32 504.64C272.32 504.64 271.94 496.23 262.92 487.52C250.5 475.51 234.17 477.21 223.01 486.19C207.1 498.99 211.71 521.54 219.05 528.85Z" />
			<path id="Highlight" class="shp6" d="M223.78 494.06C221.41 496.05 220.03 503.33 224.72 497.57C227.14 494.6 231.86 491.99 231.76 491.38C231.67 490.8 227.88 490.6 223.78 494.06Z" />
			<path id="Reload icon" class="shp2" d="M242.06 518.63C242.06 518.63 241.87 524.66 241.72 525.37C241.58 526.09 241.76 526.39 238.62 526.08C233.74 525.61 224.19 520.43 227.05 506.29C229.9 492.14 248.81 491.35 254.67 498.21C260.52 505.06 258.05 514.27 258.05 514.27C258.05 514.27 260.4 515.76 261.9 517.03C262.83 517.81 260.37 520.24 257.37 521.38C254.37 522.53 248.3 524.31 247.59 523.59C246.87 522.88 244.28 514.12 244.85 511.26C245.42 508.4 250.67 511.04 250.67 511.04C250.67 511.04 252.45 503.52 247.73 500.95C243.02 498.37 233.16 499.42 233.59 509.12C233.96 517.55 238.24 517.4 239.38 517.4C240.52 517.4 241.63 517.56 242.06 518.63Z" />
		</g>
		<g id="Forward btn">
			<path id="Base 1" class="shp2" d="M345.1 475.35C353.95 475.35 359.79 479.57 365.79 485.15C372.41 491.29 376.81 499.89 376.81 509.63C376.81 519.51 374.49 527.77 367.71 533.93C361.73 539.35 352.7 543.02 344 543.02C333.64 543.02 324.91 539.42 318.74 532.05C313.84 526.21 310.51 517.22 310.51 509C310.51 497.61 317.12 487.54 325.78 481.45C331.25 477.61 337.91 475.35 345.1 475.35Z" />
			<path id="Base 2" class="shp8" d="M344.19 480.16C352.07 480.16 358.09 482.76 363.45 487.74C369.34 493.21 373.27 500.88 373.27 509.56C373.27 518.37 369.5 526.1 363.45 531.59C358.13 536.42 351.77 538.78 344.02 538.78C334.78 538.78 327.7 534.51 322.19 527.94C317.83 522.73 315 516.33 315 509C315 498.84 320.05 489.86 327.77 484.44C332.65 481.01 337.78 480.16 344.19 480.16Z" />
			<path id="Shadow" class="shp4" d="M315.69 513.79C316.59 519.66 326.65 536.1 346.79 530.93C378.65 522.76 370.21 495.96 370.21 495.96L374.95 504.14C374.95 504.14 375.74 519.23 370.68 527.49C368.72 530.68 356.69 541.6 343.34 540.67C336.51 540.2 324.33 535.02 320.33 530.62C316.33 526.22 313.05 515.79 313.05 515.79" />
			<path id="Light" class="shp5" d="M320.05 526.85C320.26 527.06 313.8 506.11 325.5 496.02C335.3 487.58 346.19 482.08 357.57 486.7C371.69 492.44 373.32 502.64 373.32 502.64C373.32 502.64 372.94 494.23 363.92 485.52C351.5 473.51 335.17 475.21 324.01 484.19C308.1 496.99 312.71 519.54 320.05 526.85Z" />
			<path id="Highlight" class="shp6" d="M324.78 492.06C322.41 494.05 321.03 501.34 325.72 495.57C328.14 492.6 332.86 489.99 332.76 489.38C332.67 488.8 328.88 488.6 324.78 492.06Z" />
			<path id="Forward btn" class="shp2" d="M343.79 499.65C343.92 502.08 345 510.16 345 513.2C345 516.24 343.48 522.7 346.52 521.94C349.56 521.18 357.61 513.01 359.89 510.92C362.17 508.83 361.76 507.75 358.46 505.01C354.04 501.34 347.91 497.57 346.77 497C345.63 496.43 343.66 497.21 343.79 499.65ZM331.55 500.58C331.69 503.05 332.23 510.63 332.23 513.72C332.23 516.81 331.29 523.18 333.78 522.6C336.88 521.88 345.84 512.93 348.16 510.81C350.47 508.69 350.03 508.47 346.37 506.1C342.45 503.56 335.19 497.84 334.03 497.26C332.88 496.69 331.42 498.1 331.55 500.58Z" />
		</g>
		<g id="Share to Facebook">
			<path id="Color Fill 35 copy" class="shp2" d="M91.09 373.96C91.09 373.96 113.48 371.99 149.92 373.11C199.52 374.62 390.32 373.05 383.84 373.33C395.75 372.82 404.05 377.75 405.51 385.53C406.97 393.31 409.17 413.6 405.96 424.79C402.59 436.56 391.85 437.61 377.94 437.61C377.94 437.61 344.88 437.28 302.5 437.28C259.52 437.28 93.32 437.87 89.06 437.87C76.58 437.87 73.84 430.47 72.95 426.77C72.07 423.08 69.08 400.51 72.08 387.61C74.51 377.19 81.58 373.96 91.09 373.96Z" />
			<path id="Color Fill 35" class="shp9" d="M94.72 377.98C103.7 377.36 117.8 376.61 151.39 377.75C203.83 379.52 388.92 376.98 382.71 377.24C394.1 376.76 399.37 382.25 400.76 389.7C402.15 397.15 403.71 414.7 401.82 421.59C398.73 432.89 387.05 433.86 373.75 433.86C373.75 433.86 341.73 432.6 301.17 432.6C260.05 432.6 96.85 434.11 92.78 434.11C80.83 434.11 78.21 427.03 77.36 423.49C76.52 419.95 73.66 404.04 76.53 391.69C78.85 381.73 85.73 378.61 94.72 377.98Z" />
			<path id="Color Fill 36" class="shp10" d="M76 417.33C80.33 425.33 82.81 432.04 127.48 427.37C172.15 422.71 333.61 425.55 345.25 426.47C372.63 428.65 401.5 429.67 401.17 395.33C401.17 395.33 403.83 409.33 403.5 416.33C403.17 423.33 398.5 433.33 392.5 434.33C386.5 435.33 339.33 435.67 331.33 435.33C323.33 435 153.37 434.33 145.35 435.33C137.33 436.33 97.67 436.33 94 436.33C90.33 436.33 80.67 434.33 78 425.33" />
			<path id="Color Fill 37" class="shp11" d="M77.15 420.9C77.15 409.9 81.19 385.61 108.52 386.69C147.62 388.23 286.67 383.76 315.73 383.06C366.83 381.83 397.87 377.52 400.31 401.46C400.31 401.46 403.42 406.67 402.75 402.67C402.08 398.67 402.42 380.67 393.75 377.67C385.08 374.67 351.33 373.33 332.67 375.33C314 377.33 118.67 373.67 111.33 374C104 374.33 80 372 76.33 387C72.67 402 74.67 409.67 74.67 409.67" />
			<path id="Color Fill 38" fill-rule="evenodd" class="shp12" d="M96.15 382.8C93.1 383.91 92.91 385.99 93.09 386.73C93.28 387.48 94.86 387.53 97.28 387.16C99.69 386.79 101.28 385.85 100.82 384.36C100.12 382.12 97.95 382.16 96.15 382.8ZM128.09 385.62C134.66 385.62 140.14 385.54 139.91 384.36C139.78 383.68 129.49 383.79 119.71 382.5C111.2 381.38 105.07 381.63 104.57 385.21C104.38 386.57 121.52 385.62 128.09 385.62Z" />
			<text id="Share to Facebook" style="transform: matrix(1,0,0,1,140.688,414.094)" >
				<tspan x="0" y="0" class="txt13">Share to Facebook</tspan>
			</text>
			<path id="Facebook icon" class="shp2" d="M127.03 390.95C127.03 390.95 122.51 388.73 119.8 388.69C117.09 388.65 112.1 389.73 112.1 396.46C112.1 397.9 112.37 399.87 112.37 399.87L109.84 400.41L110.81 404L112.82 404.06L114.41 419.07L119.02 417.92L118.99 404L124.09 404L125.21 400.6L119.01 400.04L119.01 397.27C119.01 397.27 119.48 394.94 121.55 394.94L125.41 395.5L127.03 390.95Z" />
		</g>
		<g id=" Score:      1325 Best Score:      2678">
			<text id=" Score:      1325" style="transform: matrix(1,0,0,1,356.688,274.094)" >
				<tspan x="0" y="0" class="txt14"> Score:      1325</tspan>
			</text>
			<text id="Best Score:      2678" style="transform: matrix(1,0,0,1,356.688,307.694)" >
				<tspan x="0" y="0" class="txt14">Best Score:      2678</tspan>
			</text>
		</g>
		<g id="Stars">
			<g id="Star_base">
				<path id="Base" class="shp15" d="M341.05 145.32C335.23 144.16 325.28 159.73 325.28 159.73C325.28 159.73 306.53 156.44 304.28 161.78C302.59 165.8 315.42 178.97 315.42 178.97C315.42 178.97 305.28 196.39 307.71 199.32C311.04 203.34 330.27 196.72 330.27 196.72C330.27 196.72 344.36 210.48 349.58 208.67C353.76 207.23 351.15 186.85 351.15 186.85C351.15 186.85 367.3 177.59 366.93 173.99C366.56 170.39 347.9 163.18 347.9 163.18C347.9 163.18 345.68 146.51 341.24 145.36" />
			</g>
			<g id="Star 2">
				<path id="Base" class="shp16" d="M234.14 120.02C241.67 120.05 250.09 141.95 250.09 141.95C250.09 141.95 274.24 142.62 275.68 149.83C276.76 155.26 257.46 168.38 257.46 168.38C257.46 168.38 265.64 192.62 261.87 195.65C256.71 199.79 234.48 186.67 234.48 186.67C234.48 186.67 213.45 200.21 207.42 196.63C202.6 193.77 211.03 169.1 211.03 169.1C211.03 169.1 193.3 153.46 194.67 149.09C196.04 144.71 221.09 140.48 221.09 140.48C221.09 140.48 228.08 120.31 233.9 120.02" />
				<path id="Color Fill 48" class="shp6" d="M276.73 148.35C266.69 146.49 248.22 148.63 231.99 157.67C213.78 167.8 204.7 163.1 195.42 153.01C186.13 142.91 198.49 142.6 202.61 142.5C206.73 142.39 216.93 138.8 218.81 137.3C220.69 135.79 228.77 116.32 233.68 117C238.58 117.69 251.7 138.35 251.7 138.35C251.7 138.35 274.1 142.92 277.23 146.09" />
				<path id="Shape 12" class="shp6" d="M238.81 128.58C237.78 129.2 237.32 133.54 238.4 136.46C239.47 139.38 243.59 138.66 243.74 136.51C243.9 134.36 240.84 127.35 238.81 128.58Z" />
			</g>
			<g id="Star 1">
				<path id="Base" class="shp17" d="M129.98 146.33C135.8 145.16 145.75 160.73 145.75 160.73C145.75 160.73 164.5 157.44 166.75 162.78C168.44 166.8 155.62 179.97 155.62 179.97C155.62 179.97 165.75 197.39 163.32 200.32C159.99 204.34 140.77 197.72 140.77 197.72C140.77 197.72 126.67 211.48 121.45 209.67C117.27 208.23 119.89 187.85 119.89 187.85C119.89 187.85 103.73 178.59 104.1 174.99C104.47 171.39 123.14 164.18 123.14 164.18C123.14 164.18 125.35 147.51 129.8 146.36" />
				<path id="Color Fill 48" class="shp6" d="M167.33 161.47C159.28 161.62 145.37 166.19 134.26 175.72C121.8 186.42 114.06 184.23 105.3 177.9C96.54 171.57 106.03 169.38 109.19 168.65C112.36 167.92 119.66 163.54 120.87 162.08C122.09 160.62 125.26 144.31 129.15 144.07C133.04 143.83 146.43 157.7 146.43 157.7C146.43 157.7 164.44 157.7 167.36 159.65" />
				<path id="Shape 12 copy" class="shp6" d="M135.74 153.75C135 154.41 135.29 157.99 136.6 160.19C137.91 162.38 141.13 161.17 140.93 159.41C140.72 157.65 137.19 152.45 135.74 153.75Z" />
			</g>
		</g>
		<g id="Ribbon">
			<path id="Color Fill 11" class="shp18" d="M39.73 104.85C50.23 105.35 50 103.5 62.5 100.5C75 97.5 79.5 94.5 110.5 101.5C141.5 108.5 143.31 103.67 151.81 95.17C160.31 86.67 162.02 82.1 162.02 82.1C162.02 82.1 236.71 70.44 307.02 81.31C307.02 81.31 306.23 86.65 319.73 94.58C331.12 101.28 344.54 107.6 357.04 105.6C369.54 103.6 389.47 92.62 410.31 95.37C445.92 100.08 447 99.75 443.31 95.35C439.04 90.25 421.56 70.19 421.56 70.19C421.56 70.19 402.01 49.76 376 49C359 48.5 216 37 189.5 38.5C61.29 45.76 86.58 53.33 66.33 75.11C46.08 96.9 29.23 104.35 39.73 104.85Z" />
			<path id="base copy" fill-rule="evenodd" class="shp19" d="M391.68 28.23C390.87 31.88 385.31 34.33 381.33 39.99C379.06 40.72 377.6 41.2 377.6 41.2C377.6 41.2 329.2 54.2 325.2 60.6C324.67 61.45 324.09 62.4 323.5 63.42C321.22 63.06 318.82 62.69 316.3 62.32C286.69 57.96 213.19 55.22 165.35 62.17C157.29 63.35 149.51 64.44 142.31 65.52C145.89 67.89 154.82 73.6 155.9 75.84C161.46 81.16 142.36 99.08 137.33 98.8C120.42 97.86 96.11 90.51 84.32 86.78C72.52 83.06 63.58 85.98 49.62 88.15C35.65 90.32 28.72 88.53 30.89 86.36C33.06 84.18 54.73 65.79 54.42 62.37C54.11 58.96 39.69 49.21 36.28 45.49C32.86 41.76 28.83 36.17 34.42 37.73C40 39.28 65.01 39.46 73.7 39.46C78 39.46 84.05 40.94 88.42 42C85.41 34.62 68.07 23.78 95.46 18.07C103.72 16.35 115.1 13.93 128.87 11.44C131.39 10.99 134.31 13.01 136.99 12.55C139.98 12.04 140.44 8.5 145.93 8.54C150.66 8.58 155.48 7.07 160.52 6.38C162.71 6.07 165.16 9.55 167.42 9.26C170.21 8.9 167.07 4.89 169.95 4.55C190.81 2.14 219.72 0.32 243.97 0.32C267.42 0.32 288.91 1.64 307.65 3.6C311.09 3.96 311.24 9.5 314.51 9.6C328.23 10.03 325.1 5.69 328.61 6.2C351.3 9.46 368.12 13.42 376.96 16.27C389.64 20.37 393.49 20.05 391.68 28.23ZM377.23 53.9C377.18 69.46 374.37 75.56 372.86 75.49C366.12 75.17 368.73 70.56 323.5 63.42C319.6 70.03 314.69 79.4 314 82C313.2 85 320.8 90 330 94C339.2 98 350 100.33 354.2 99.13C358.4 97.93 384.6 85.2 391.2 82.8C397.8 80.4 408.2 79.6 426.4 79.4C444.6 79.2 448.4 80.4 449.4 80C450.4 79.6 446.6 75.2 442.6 71.6C438.6 68 426.6 58.9 426.2 56.3C425.8 53.7 434.2 42.2 438.6 40.2C443 38.2 448.2 33.4 448.6 32.4C449 31.4 440 31.4 433 31C426 30.6 410 31.8 407 32.2C404.7 32.51 388.71 37.61 381.33 39.99C379.02 43.27 377.25 47.62 377.23 53.9Z" />
			<path id="Color Fill 8 copy 2" fill-rule="evenodd" class="shp20" d="M114.65 71.47C126.23 67.91 151.41 64.57 151.41 64.57C151.41 64.57 164.42 79.66 150.43 75.89C141.49 73.49 120.58 85.44 112.51 83.57C104.44 81.71 99.65 81.37 96.62 79.28C95.14 78.25 103.58 74.88 114.65 71.47ZM85.17 37.5C88.67 40.83 95 50.83 94.17 61.5C93.33 72.17 91.17 80 95 81.83C98.83 83.67 114.83 86.5 114.83 86.5C114.83 86.5 95.83 85.17 92.33 81.5C88.83 77.83 90.83 71.5 91.33 67.83C91.83 64.17 92.33 52.17 89.5 47C86.67 41.83 82.33 37.67 81.67 34.83M131.11 82.21C131.11 82.21 141.75 78.62 146.25 78.25C150.75 77.87 153.5 78.75 152.87 80.25C152.25 81.75 145.59 89.38 143.47 91.38C141.34 93.39 140.12 95.5 137.37 96C137.37 96 139.32 95.05 143.21 90C145.16 87.47 150.19 81.66 150.19 80.66C150.19 79.66 142.78 79.59 131.11 82.21ZM316.2 62.8C326.2 63.6 342.4 66.4 354.4 69.2C366.4 72 376.8 73.6 379 74.8C381.2 76 375.94 76.93 370 78.8C357.27 82.81 335.29 76.02 327.93 77.9C316.12 80.91 311.28 82.56 314.61 87.06C317.95 91.56 305.5 80.83 307.17 77.17C308.83 73.5 306.2 62 316.2 62.8ZM394.49 29.76C383.33 39.59 382.08 41.83 379.58 46.67C377.08 51.5 380.5 56.33 382 63.17C383.5 70 384.69 72.46 382.36 76.01C378.55 81.81 367.67 82.5 367.67 82.5C373.83 80.67 379.5 78.83 381.5 74.83C383.5 70.83 379.83 66.17 377.5 56.33C375.17 46.5 380.83 39.17 384.5 36.17M324.46 83.32C321.58 84.32 321.75 84.89 334.18 90.53C347.41 96.54 354.12 94.87 354.12 94.87C347.25 97.5 337.69 93.59 328.81 90.22C319.94 86.84 317.5 83.87 320.75 82.87C324 81.87 332.48 81.11 332.48 81.11C332.48 81.11 327.33 82.32 324.46 83.32Z" />
			<path id="Color Fill 10 copy 2" fill-rule="evenodd" class="shp21" d="M88.75 43.78C88.75 43.78 77.32 41.48 66.67 41.9C66.08 41.93 69 45.14 73.35 58.62C79.05 76.24 70.91 82.15 71.21 82.1C81.17 80.45 100.8 89.6 113.2 92.8C125.6 96 135.86 96.75 138.26 95.95C140.66 95.15 149 85.4 151.8 82C154.6 78.6 152 78.8 148.4 78.4C144.8 78 136.6 80.4 130.2 82.6C123.8 84.8 120.2 87.4 114.8 86.6C109.4 85.8 95 83.6 93.4 80.4C91.8 77.2 93.6 69.4 93.8 62C94 54.6 92.54 49.16 89.34 44.76M385.6 36.2C381.6 39 375.8 47.8 376.8 53.8C377.8 59.8 382 68.8 382 72.2C382 75.6 381 78 373.8 80.6C366.6 83.2 358 83.4 353.4 82.8C348.8 82.2 337.2 80.5 333.6 80.9C330 81.3 320.05 82.44 319.46 84.27C318.88 86.1 332.62 92.07 339.42 93.67C346.22 95.27 350.6 97.6 363 91.8C375.4 86 394.27 76.75 404.4 76.65C404.4 76.65 398.2 63.6 401.4 55C404.6 46.4 407.4 34.4 407.4 34.4C407.4 34.4 398.07 36.54 394.5 37.83C390.93 39.12 384.75 41.85 382.04 41.99" />
			<text id="Level Cleared" style="transform: matrix(1.914,-0.003,0.003,1.914,115.712,54.77)" >
				<tspan x="0" y="0" class="txt22">Level Cleared</tspan>
			</text>
		</g>
	</g>
</svg>