<svg xmlns="http://www.w3.org/2000/svg" viewBox="0 0 663 48" width="663" height="48">
	<defs>
		<linearGradient id="grd1" gradientUnits="userSpaceOnUse"  x1="659.562" y1="13.163" x2="639.331" y2="13.163">
			<stop offset="0" stop-color="#e32e24"  />
			<stop offset="1" stop-color="#f0675a"  />
		</linearGradient>
		<linearGradient id="grd2" gradientUnits="userSpaceOnUse"  x1="177.126" y1="47.279" x2="177.126" y2="33.512">
			<stop offset="0" stop-color="#87d332"  />
			<stop offset="1" stop-color="#b9e86c"  />
		</linearGradient>
		<linearGradient id="grd3" gradientUnits="userSpaceOnUse"  x1="329.255" y1="47.915" x2="329.255" y2="1.24">
			<stop offset="0" stop-color="#e7adad"  />
			<stop offset="1" stop-color="#f2d1d1"  />
		</linearGradient>
	</defs>
	<style>
		tspan { white-space:pre }
		.shp0 { fill: #74b7d7 } 
		.shp1 { fill: #ffffff } 
		.shp2 { fill: url(#grd1) } 
		.shp3 { fill: #554636 } 
		.shp4 { fill: url(#grd2) } 
		.shp5 { fill: url(#grd3) } 
		.shp6 { fill: #000000 } 
	</style>
	<g id="Level progress">
		<path id="Base" class="shp0" d="M15.36 34.04C15.36 34.04 132.01 34.24 246.4 34.26C310.82 34.28 550.24 34.21 590.92 33.91C620.11 33.69 637.77 33.95 637.77 33.95C641.59 33.95 643.33 34.52 645.08 36.51C646.53 38.18 646.66 42.37 645.66 44.47C644.69 46.5 641.77 47.44 638.43 47.67C629.88 48.26 598.63 47.29 550 47.29C472.7 47.29 183.47 46.61 104.75 46.54C53.77 46.5 17.68 46.97 16.18 46.97C8.4 46.97 4.8 46.36 3.44 45.49C2.07 44.62 -1.14 38.62 3.8 35.23C6.31 33.51 11.54 34.04 15.36 34.04Z" />
		<g id="Flag">
			<path id="Color Fill 57" class="shp1" d="M642.06 22.37L641.98 34.52C641.98 34.52 645 35.74 645.17 40.16C645.34 44.57 643.02 45.84 640.36 46.59C637.69 47.34 634.67 46.58 632.91 44.43C630.87 41.95 631.36 38.05 632.72 36.64C634.65 34.64 635.08 34.77 635.08 34.77C635.08 34.77 634.98 13.83 634.98 11.42C634.98 9 634.67 4.42 635.67 2.58C636.67 0.75 639.08 0.58 640.42 1.5C641.75 2.42 642.42 5.33 642.42 5.33C642.42 5.33 650 9.37 653.83 9.79C657.67 10.21 661.5 10.5 661.5 10.5C661.5 10.5 663.08 11.17 661.17 14.67C659.25 18.17 656.46 20.92 654.33 21.92C651.36 23.31 642.06 22.37 642.06 22.37Z" />
			<path id="Color Fill 56" class="shp2" d="M639.87 6.13C639.87 6.13 648.84 12.22 659.56 12.49C659.56 12.49 657.39 17.1 654.81 19C652.23 20.91 639.33 19.96 639.33 19.96L639.87 6.13Z" />
			<path id="Color Fill 55" class="shp3" d="M636.83 6.08L637.03 35.94C637.03 35.94 635.55 36.07 634.48 37.86C633.2 40.01 633.97 42.75 636.27 43.68C638.37 44.53 641.3 43.85 642.35 42.02C643.57 39.9 642.57 37 640.01 35.98C640.01 35.98 639.95 6.87 640.04 5.58C640.15 4.13 637.5 1.81 636.83 6.08Z" />
		</g>
		<path id="Progress" class="shp4" d="M17.99 33.54C17.99 33.54 48.06 34.56 102.02 33.82C152.28 33.14 212.8 34.06 262 34.06C308.84 34.06 337.97 33.85 344.51 34.06C351.05 34.28 351.48 34.9 352.65 37.24C353.39 38.73 353.83 43.03 351.92 44.96C349.98 46.92 350.23 47.04 344.06 47.06C338.84 47.09 307.62 47.28 260.21 47.28C215.54 47.28 160.63 47.09 114.1 47C59.91 46.9 17.09 47.25 15.18 47.25C7.4 47.25 4.7 47.11 3.06 45.97C1.2 44.68 -0.92 38.32 4.02 34.94C6.53 33.22 14.17 33.54 17.99 33.54Z" />
		<g id="Worm">
			<path id="Color Fill 58" class="shp5" d="M286.41 40.81C284.58 39.27 283.71 32.92 289.57 34.08C297.08 35.57 297.57 35.95 304.83 27C307.72 23.45 312.91 20.72 318.75 23C325.78 25.74 326.04 25.69 326.71 22.02C327.37 18.36 328.32 7.14 337.33 3C345.6 -0.8 353.17 1.57 360.33 9.9C367.5 18.24 368.17 23 371.5 26.33C374.83 29.67 374 34.5 368.5 36.83C363 39.17 361.33 39.33 361.33 39.33C361.33 39.33 363.36 43.05 355.5 45.83C344.44 49.75 337.67 47.33 330.67 45.17C323.67 43 318.81 38.31 313.01 42.59C302.9 50.05 295.04 48.06 286.41 40.81Z" />
			<path id="Color Fill 60" class="shp1" d="M355.62 15C355.5 13 355.55 9.41 357.67 9.04C359.8 8.66 365.12 11.37 367.25 16.87C369.37 22.37 367.39 25.22 364.62 25.25C359.81 25.3 357.37 19.62 357.37 19.62C357.37 19.62 355.75 17 355.62 15Z" />
			<path id="Color Fill 59" class="shp1" d="M349.06 9.14C346.68 10.16 344.09 15.99 346.42 23.49C348.75 31 356.49 33.49 360.57 29.16C363.82 25.71 362.39 19.56 360.6 16.27C358.82 12.97 353.62 7.17 349.06 9.14Z" />
			<path id="Color Fill 61" class="shp6" d="M355.38 14.26C353.38 14.75 352.27 19.63 354.88 23.69C357.49 27.75 361.2 25.17 360.62 21.17C360.02 17.12 356.97 13.88 355.38 14.26Z" />
			<path id="Color Fill 62" class="shp1" d="M361.54 38.52C357.55 42.4 342.76 48.51 342.19 37.26L343.03 32.49C343.03 32.49 350.31 39.75 363.23 37.62" />
			<path id="Color Fill 61 copy" class="shp6" d="M363.49 13.57C362.01 14.05 361.43 17.77 363.6 20.69C365.76 23.61 368.42 21.47 367.78 18.5C367.12 15.49 364.67 13.2 363.49 13.57Z" />
		</g>
	</g>
</svg>