<svg xmlns="http://www.w3.org/2000/svg" viewBox="0 0 232 55" width="232" height="55">
	<defs>
		<linearGradient id="grd1" gradientUnits="userSpaceOnUse"  x1="126.137" y1="53.593" x2="126.137" y2="7.702">
			<stop offset="0" stop-color="#fca416"  />
			<stop offset="1" stop-color="#fdcc45"  />
		</linearGradient>
		<linearGradient id="grd2" gradientUnits="userSpaceOnUse"  x1="143.873" y1="45.44" x2="143.873" y2="14.61">
			<stop offset="0" stop-color="#ba8f54" stop-opacity="0" />
			<stop offset="1" stop-color="#8a5320"  />
		</linearGradient>
		<linearGradient id="grd3" gradientUnits="userSpaceOnUse"  x1="105.605" y1="46.063" x2="105.605" y2="14.936">
			<stop offset="0" stop-color="#e12121"  />
			<stop offset="1" stop-color="#ef5656"  />
		</linearGradient>
		<linearGradient id="grd4" gradientUnits="userSpaceOnUse"  x1="29.359" y1="50.037" x2="29.359" y2="4.566">
			<stop offset="0" stop-color="#e01b1b"  />
			<stop offset="1" stop-color="#ef4d4d"  />
		</linearGradient>
	</defs>
	<style>
		tspan { white-space:pre }
		.shp0 { fill: url(#grd1) } 
		.shp1 { fill: url(#grd2) } 
		.shp2 { fill: url(#grd3) } 
		.shp3 { fill: #ffffff } 
		.shp4 { fill: url(#grd4) } 
		.shp5 { mix-blend-mode: multiply;fill: #e74e4e } 
		.shp6 { mix-blend-mode: overlay;fill: #ffffff } 
	</style>
	<g id="Life">
		<path id="Base" class="shp0" d="M35.09 8C35.09 8 79.87 7.15 127.58 8.33C172.53 9.45 217 8 217 8C222.52 8 228.17 11.69 229.48 18.71C230.79 25.72 232.55 33.48 230.32 42.08C228.63 48.6 226.1 51.73 218.67 52.67C211.23 53.6 195.54 54.02 158.52 53C107.28 51.59 41.14 52.67 36.52 52.67C25.27 52.67 22.8 46 22 42.67C21.2 39.33 19.97 24.32 22 18C24.03 11.68 29.56 8 35.09 8Z" />
		<path id="Bg" class="shp1" d="M75.83 15.34C75.83 15.34 112.83 16.56 148.62 16.56C181.63 16.56 208.64 13.65 213.66 14.94C218.67 16.22 219.28 17.09 220.58 21.85C222.46 28.79 221.74 33.49 221.22 38.12C220.7 42.74 215.38 45.2 211.56 45.2C211.56 45.2 198.63 45.61 180.94 45.35C166.44 45.14 148.86 44.25 131.62 44.25C103.83 44.25 78.87 44.86 76.65 44.86C68.87 44.86 67.16 40.45 66.61 38.15C66.06 35.84 65.37 26.22 66.78 21.85C68.18 17.48 72.01 15.34 75.83 15.34Z" />
		<path id="Progress" class="shp2" d="M75.08 14.94C75.08 14.94 94.16 16.15 111.5 16.15C125.77 16.15 137.99 15.94 137.99 15.94C141.81 15.94 144.26 17.78 145.41 22.58C146.63 27.68 147.1 31.24 145.22 37.62C143.9 42.08 139.66 45.34 135.84 45.34C135.84 45.34 125.3 45.06 110.97 45.06C95.36 45.06 78.4 46.06 75.65 46.06C67.87 46.06 66.35 41.4 65.61 39.15C64.18 34.82 64.62 26.22 66.03 21.85C67.43 17.48 71.26 14.94 75.08 14.94Z" />
		<g id="Heart icon">
			<path id="Color Fill 30 copy" class="shp3" d="M29.27 9.09C30.83 9.24 31.36 7.04 34.95 4.73C38.54 2.42 49.85 1.9 56.26 12.17C62.67 22.43 52.91 35.72 39.94 46.61C28.76 56.01 29.74 56.11 21.2 50.85C14.65 46.82 5.92 36.59 2.58 29.15C-0.75 21.71 -1.2 11.31 5.21 5.66C11.62 0.02 18.58 -0.31 23.71 3.54C28.84 7.39 28.28 9.01 29.27 9.09Z" />
			<path id="Color Fill 30" class="shp4" d="M29.13 11.77C31.56 11.77 31.62 10.83 34.71 8.85C37.79 6.87 47.53 4.71 53.04 13.51C58.54 22.32 48.36 35.09 38.39 43.29C29.35 50.72 29.63 51.91 22.31 47.4C16.68 43.93 9.21 35.29 6.35 28.9C3.48 22.52 2.71 12.61 8.22 7.76C13.72 2.92 18.94 4.2 23.34 7.5C27.75 10.8 26.71 11.77 29.13 11.77Z" />
			<path id="Color Fill 32" class="shp5" d="M7.4 29.4C9.8 33.8 18.85 43.28 27.84 42.1C36.87 40.93 49.4 26.88 50.8 21.28C52.2 15.68 51.95 10.66 46.55 7.46C41.15 4.26 49 6.8 50.2 7.8C51.4 8.8 59.2 15.8 55.2 25C51.2 34.2 38.8 46.4 34.2 49.2C29.6 52 29.8 53.4 26.6 52C23.4 50.6 10.4 40 10.4 40" />
			<path id="Color Fill 31" class="shp6" d="M15.23 41.95C10.06 36.12 8.38 28.35 8.34 23.14C8.28 14.21 16.8 12.19 20.22 13.48C26.46 15.84 25.98 17.18 29.51 17.29C36.51 17.52 39.42 5.78 46.44 8.72C50.32 10.35 52.57 9.81 50 8C48.25 6.77 44.17 4.17 40 5C35.83 5.83 31.5 9.17 30 10.17C28.5 11.17 26 6.83 23.83 5.33C21.67 3.83 13.67 0.83 8.5 4.67C3.33 8.5 -0.83 20 4.83 30.5" />
			<path id="Color Fill 33" fill-rule="evenodd" class="shp6" d="M11.74 14.61C9.49 15.92 8.95 19.62 8.62 18.58C8.16 17.09 9.06 14.03 10.23 12.6C11.91 10.56 13.26 10.22 13.86 10.69C13.89 10.31 14.12 9.84 14.6 9.24C16.63 6.73 19.16 9.62 19.5 10.66C19.84 11.71 18.3 12.42 16.28 12.16C15.38 12.04 14.61 11.85 14.2 11.5C14.19 12.35 13.47 13.6 11.74 14.61ZM37.45 11.94C37.24 12.51 37.03 13.04 36.31 13.89C34.89 15.56 34.33 14.16 34.86 12.32C35.39 10.47 38.11 10.06 37.45 11.94Z" />
			<path id="Shape 1 copy 3" class="shp3" d="M31.76 21.26C31.85 20.42 32.08 19.78 29.43 19.47C26.79 19.15 26.49 18.72 26.17 19.25C25.86 19.78 26.04 27.71 26.06 33.47C26.07 36.2 24.86 36.38 28.61 36.92C30.79 37.23 30.1 34.87 30.48 33.06C30.86 31.24 31.73 21.59 31.76 21.26ZM22.34 25.02C21.49 24.99 19.89 24.75 20.11 27.04C20.35 29.69 20.61 30.56 21.14 30.88C21.61 31.16 31.8 31.01 33.97 31.13C36.15 31.24 36.15 31.72 36.72 27.78C37.03 25.6 34.99 26.1 31.92 25.89C28.78 25.68 25.66 25.16 22.34 25.02Z" />
		</g>
	</g>
</svg>