<svg xmlns="http://www.w3.org/2000/svg" viewBox="0 0 67 69" width="67" height="69">
	<defs>
		<linearGradient id="grd1" gradientUnits="userSpaceOnUse"  x1="34.133" y1="63.784" x2="34.133" y2="5.162">
			<stop offset="0" stop-color="#fda315"  />
			<stop offset="1" stop-color="#fecb43"  />
		</linearGradient>
	</defs>
	<style>
		tspan { white-space:pre }
		.shp0 { fill: #ffffff } 
		.shp1 { fill: url(#grd1) } 
		.shp2 { opacity: 0.251;mix-blend-mode: multiply;fill: #c28017 } 
		.shp3 { opacity: 0.502;mix-blend-mode: overlay;fill: #ffffff } 
		.shp4 { mix-blend-mode: overlay;fill: #ffffff } 
	</style>
	<g id="Buttons">
		<g id="Menu btn">
			<path id="Base 1" class="shp0" d="M35.1 0.35C43.95 0.35 49.79 4.57 55.79 10.15C62.41 16.3 66.81 24.89 66.81 34.63C66.81 44.51 64.49 52.77 57.71 58.93C51.73 64.35 42.7 68.02 34 68.02C23.64 68.02 14.91 64.42 8.74 57.05C3.84 51.21 0.51 42.22 0.51 34C0.51 22.61 7.12 12.54 15.78 6.45C21.25 2.61 27.91 0.35 35.1 0.35Z" />
			<path id="Base 2" class="shp1" d="M34.19 5.16C42.07 5.16 48.09 7.76 53.45 12.74C59.34 18.21 63.27 25.88 63.27 34.56C63.27 43.37 59.5 51.1 53.45 56.59C48.13 61.42 41.77 63.78 34.02 63.78C24.78 63.78 17.7 59.51 12.19 52.94C7.83 47.73 5 41.33 5 34C5 23.84 10.05 14.86 17.77 9.44C22.65 6.01 27.78 5.16 34.19 5.16Z" />
			<path id="Shadow" class="shp2" d="M5.69 38.79C6.59 44.66 16.65 61.1 36.79 55.93C68.65 47.76 60.21 20.96 60.21 20.96L64.95 29.14C64.95 29.14 65.74 44.23 60.68 52.49C58.72 55.68 46.69 66.6 33.34 65.67C26.51 65.2 14.33 60.02 10.33 55.62C6.33 51.22 3.05 40.79 3.05 40.79" />
			<path id="Light" class="shp3" d="M10.05 51.85C10.26 52.06 3.8 31.11 15.5 21.02C25.3 12.58 36.2 7.08 47.57 11.7C61.69 17.44 63.32 27.64 63.32 27.64C63.32 27.64 62.94 19.23 53.92 10.52C41.5 -1.49 25.17 0.21 14.01 9.19C-1.9 21.99 2.71 44.54 10.05 51.85Z" />
			<path id="Highlight" class="shp4" d="M14.78 17.06C12.41 19.05 11.03 26.34 15.72 20.57C18.14 17.6 22.86 14.99 22.76 14.38C22.67 13.8 18.88 13.6 14.78 17.06Z" />
			<path id="Menu icon" class="shp0" d="M30.78 22.83C30.72 24.55 30.14 26.38 31.42 26.7C32.71 27.02 43.24 26.96 46.56 26.96C49.89 26.96 50.11 26.81 50 24.44C49.89 22.08 50.43 19.72 48.93 19.83C47.42 19.94 30.85 20.76 30.78 22.83ZM20.91 20.09C19.25 20.87 18.11 23.6 19.94 25.81C21.76 28.03 24.1 26.72 25.32 25.91C26.53 25.11 26.82 22.36 25.81 21.15C24.79 19.95 23.16 19.04 20.91 20.09ZM30.78 43.17C30.82 44.88 30.14 46.71 31.42 47.03C32.71 47.35 43.24 48 46.56 48C49.89 48 50.11 47.81 50 45.44C49.89 43.08 50.43 41.84 48.93 41.91C43.01 42.19 30.74 41.67 30.78 43.17ZM25.68 42.6C24.33 41.41 20.83 41.19 19.44 43.67C18.06 46.15 20.12 47.81 21.3 48.63C22.48 49.45 25.71 48.93 26.46 47.56C27.21 46.19 27.88 44.53 25.68 42.6ZM29.87 33.47C29.78 35.19 29.27 36.69 30.56 37.02C31.85 37.34 44.38 37.13 47.71 37.13C51.03 37.13 51.25 36.93 51.14 34.57C51.03 32.21 51.51 31.01 50.01 31.12C48.5 31.23 29.93 32.17 29.87 33.47ZM23.17 31.31C21.45 30.93 18.35 32.4 18.34 35.18C18.33 37.95 20.87 38.4 22.27 38.54C23.68 38.68 26.19 36.71 26.18 35.18C26.17 33.65 25.96 31.92 23.17 31.31Z" />
		</g>
	</g>
</svg>