<svg xmlns="http://www.w3.org/2000/svg" viewBox="0 0 124 126" width="124" height="126">
	<defs>
		<linearGradient id="grd1" gradientUnits="userSpaceOnUse"  x1="63.081" y1="119.024" x2="63.081" y2="6.46">
			<stop offset="0" stop-color="#3bca32"  />
			<stop offset="1" stop-color="#76e26d"  />
		</linearGradient>
		<linearGradient id="grd2" gradientUnits="userSpaceOnUse"  x1="68.954" y1="89.274" x2="68.954" y2="34.902">
			<stop offset="0" stop-color="#d8d8d8"  />
			<stop offset="0.726" stop-color="#ffffff"  />
		</linearGradient>
	</defs>
	<style>
		tspan { white-space:pre }
		.shp0 { fill: #ffffff } 
		.shp1 { fill: url(#grd1) } 
		.shp2 { opacity: 0.251;mix-blend-mode: multiply;fill: #2ab12a } 
		.shp3 { opacity: 0.502;mix-blend-mode: overlay;fill: #ffffff } 
		.shp4 { mix-blend-mode: overlay;fill: #ffffff } 
		.shp5 { fill: url(#grd2) } 
	</style>
	<g id="Play btn">
		<path id="Base 1" class="shp0" d="M64.84 1.78C81.21 1.78 95.99 7.41 107.11 17.74C119.33 29.1 124 45.01 124 63.01C124 81.29 119.2 96.56 106.65 107.95C95.6 117.97 78.9 125.32 62.8 125.32C43.64 125.32 26.91 118.11 15.5 104.48C6.44 93.67 0.3 77.05 0.3 61.84C0.3 40.77 11.42 22.7 27.44 11.44C37.55 4.35 51.55 1.78 64.84 1.78Z" />
		<path id="Base 2" class="shp1" d="M63.18 6.46C78.33 6.46 89.88 11.45 100.16 21C111.49 31.52 119.03 46.24 119.03 62.91C119.03 79.83 111.79 94.66 100.17 105.2C89.95 114.48 77.75 119.03 62.85 119.03C45.12 119.03 31.53 110.81 20.95 98.21C12.57 88.2 7.14 75.9 7.14 61.83C7.14 42.33 16.84 25.09 31.67 14.67C41.03 8.09 50.87 6.46 63.18 6.46Z" />
		<path id="Shadow" class="shp2" d="M8.46 71.02C10.19 82.31 29.51 113.88 68.18 103.95C129.35 88.25 113.15 36.8 113.15 36.8L122.24 52.49C122.24 52.49 123.78 81.48 114.05 97.34C110.3 103.45 87.18 124.43 61.55 122.66C48.45 121.75 25.06 111.8 17.38 103.36C9.7 94.91 3.39 74.87 3.39 74.87" />
		<path id="Light" class="shp3" d="M16.85 96.11C17.24 96.51 4.84 56.29 27.31 36.92C46.11 20.7 67.04 10.13 88.88 19.02C116 30.05 119.13 49.63 119.13 49.63C119.13 49.63 118.39 33.48 101.07 16.74C77.22 -6.31 45.88 -3.06 24.46 14.19C-6.1 38.78 2.75 82.07 16.85 96.11Z" />
		<path id="Highlight" fill-rule="evenodd" class="shp4" d="M30.61 25.42C34.94 21.35 49.13 20.33 37.09 28.01C30.89 31.96 24.88 40.38 23.72 40.07C22.65 39.77 23.1 32.47 30.61 25.42ZM52.27 17.05C53.18 18.73 52.8 20.91 49.65 21.47C46.49 22.03 44.96 19.48 46.87 17.4C48.27 15.86 51.33 15.39 52.27 17.05Z" />
		<path id="Play icon" class="shp5" d="M54.2 34.91C49.2 35.49 46.52 42.27 47.35 60.26C48.17 78.11 45.8 87.35 52.63 89.14C59.46 90.95 82.83 73.12 87.86 68.1C92.89 63.07 91.07 58.23 83.88 52.48C76.7 46.74 58.47 34.42 54.2 34.91Z" />
	</g>
</svg>