<svg xmlns="http://www.w3.org/2000/svg" viewBox="0 0 195 65" width="195" height="65">
	<defs>
		<linearGradient id="grd1" gradientUnits="userSpaceOnUse"  x1="109.298" y1="63.619" x2="109.298" y2="17.115">
			<stop offset="0" stop-color="#fca416"  />
			<stop offset="1" stop-color="#fdcc45"  />
		</linearGradient>
		<linearGradient id="grd2" gradientUnits="userSpaceOnUse"  x1="129.354" y1="56.47" x2="129.354" y2="24.021">
			<stop offset="0" stop-color="#ba8f54" stop-opacity="0" />
			<stop offset="1" stop-color="#8a5320"  />
		</linearGradient>
		<linearGradient id="grd3" gradientUnits="userSpaceOnUse"  x1="32.44" y1="59.79" x2="32.44" y2="4.419">
			<stop offset="0" stop-color="#ffd409"  />
			<stop offset="1" stop-color="#fff36e"  />
		</linearGradient>
	</defs>
	<style>
		tspan { white-space:pre }
		.shp0 { fill: url(#grd1) } 
		.shp1 { fill: url(#grd2) } 
		.txt2 { font-size: 25px;fill: #ffffff;font-family: "" Skranji"" } 
		.shp3 { fill: #ffffff } 
		.shp4 { fill: url(#grd3) } 
		.shp5 { mix-blend-mode: overlay;fill: #ffffff } 
	</style>
	<g id="Points">
		<path id="Base" class="shp0" d="M38.09 18C38.09 18 88.25 16.01 135.83 18C178.67 19.79 184.17 18 184.17 18C189.69 18 192.85 20.98 194.17 28C195.48 35.02 194.07 46.23 193.32 52.91C192.57 59.6 190.92 60.98 175.67 62.75C158.27 64.77 51.45 62.66 39.52 62.5C28.27 62.35 25.8 55.83 25 52.5C24.2 49.17 22.97 34.32 25 28C27.03 21.68 32.56 18 38.09 18Z" />
		<path id="Bg" class="shp1" d="M86.95 24.7C98.04 23.37 174.34 24.26 178.66 25.14C186.55 26.74 184.65 28.75 185.56 33.6C186.47 38.46 186.4 43.49 185.89 48.12C185.37 52.74 184.77 54.88 175.15 55.94C165.52 57 98.31 56.19 83.01 55.91C75.23 55.77 73.66 51.45 73.11 49.15C72.56 46.84 71.87 36.22 73.28 31.85C74.68 27.48 74.83 26.16 86.95 24.7Z" />
		<text id="999999" style="transform: matrix(1,0,0,1,81.938,49.938)" >
			<tspan x="0" y="0" class="txt2">999999</tspan>
		</text>
		<g id="Star icon">
			<path id="Shape 7 copy" class="shp3" d="M27.06 0.75C32.94 -0.43 43.21 12.24 43.21 12.24C43.21 12.24 60.9 11.82 63.17 17.21C64.88 21.26 54.86 34.26 54.86 34.26C54.86 34.26 62.98 51.64 60.53 54.59C57.16 58.65 37.55 53.82 37.55 53.82C37.55 53.82 23.52 66.01 18.25 64.19C14.04 62.72 14.49 42.7 14.49 42.7C14.49 42.7 0.16 32.62 0.73 29.02C1.64 23.35 17.32 17.75 17.32 17.75C17.32 17.75 21.8 1.88 27 0.54" />
			<path id="Shape 7" class="shp4" d="M27.63 4.47C32.7 3.45 41.37 17.02 41.37 17.02C41.37 17.02 57.7 14.15 59.66 18.8C61.13 22.31 49.96 33.78 49.96 33.78C49.96 33.78 58.8 48.96 56.68 51.51C53.77 55 37.03 49.24 37.03 49.24C37.03 49.24 24.75 61.23 20.2 59.65C16.57 58.39 18.84 40.64 18.84 40.64C18.84 40.64 4.77 32.57 5.09 29.44C5.41 26.31 21.67 20.02 21.67 20.02C21.67 20.02 23.6 5.5 27.47 4.5" />
			<path id="Color Fill 48" class="shp5" d="M60.17 17.66C53.16 17.79 41.04 21.77 31.36 30.08C20.51 39.39 13.77 37.48 6.13 31.97C-1.5 26.46 6.77 24.55 9.53 23.92C12.28 23.28 18.64 19.46 19.7 18.19C20.76 16.92 23.52 2.72 26.91 2.5C30.3 2.29 41.96 14.38 41.96 14.38C41.96 14.38 57.65 14.38 60.19 16.07" />
			<path id="Shape 3 copy 2" class="shp3" d="M32.37 4.71C32.37 4.71 35.01 9.93 34.17 13.56C33.73 15.45 32.31 17.4 29.91 19.79C29.91 19.79 34.8 17.63 36.97 17.86C38.3 18 41.16 19.65 43.38 22.3C43.38 22.3 41.25 17.06 41.68 14.92C41.95 13.58 45.19 10.26 47.13 8.69C47.13 8.69 40.67 11.22 38.19 10.48C36.68 10.03 32.37 4.71 32.37 4.71Z" />
		</g>
	</g>
</svg>