<svg xmlns="http://www.w3.org/2000/svg" viewBox="0 0 420 106" width="420" height="106">
	<style>
		tspan { white-space:pre }
		.shp0 { opacity: 0.102;fill: #000000 } 
		.shp1 { fill: #a5e24d } 
		.shp2 { fill: #439043 } 
		.shp3 { opacity: 0.6;fill: #439043 } 
		.txt4 { font-size: 20px;fill: #ffffff;font-family: "" Carter  One"" } 
	</style>
	<g id="Level Cleared">
		<g id="Ribbon">
			<path id="Color Fill 11" class="shp0" d="M9.73 104.85C20.23 105.35 20 103.5 32.5 100.5C45 97.5 49.5 94.5 80.5 101.5C111.5 108.5 113.31 103.67 121.81 95.17C130.31 86.67 132.02 82.1 132.02 82.1C132.02 82.1 206.71 70.44 277.02 81.31C277.02 81.31 276.23 86.65 289.73 94.58C301.12 101.28 314.54 107.6 327.04 105.6C339.54 103.6 359.47 92.62 380.31 95.37C415.92 100.08 417 99.75 413.31 95.35C409.04 90.25 391.56 70.19 391.56 70.19C391.56 70.19 372.01 49.76 346 49C329 48.5 186 37 159.5 38.5C31.29 45.76 56.58 53.33 36.33 75.11C16.08 96.9 -0.77 104.35 9.73 104.85Z" />
			<path id="base copy" fill-rule="evenodd" class="shp1" d="M361.68 28.23C360.87 31.88 355.31 34.33 351.33 39.99C349.06 40.72 347.6 41.2 347.6 41.2C347.6 41.2 299.2 54.2 295.2 60.6C294.67 61.45 294.09 62.4 293.5 63.42C291.22 63.06 288.82 62.69 286.3 62.32C256.69 57.96 183.19 55.22 135.35 62.17C127.29 63.35 119.51 64.44 112.31 65.52C115.89 67.89 124.82 73.6 125.9 75.84C131.46 81.16 112.36 99.08 107.33 98.8C90.42 97.86 66.11 90.51 54.32 86.78C42.52 83.06 33.58 85.98 19.62 88.15C5.65 90.32 -1.28 88.53 0.89 86.36C3.06 84.18 24.73 65.79 24.42 62.37C24.11 58.96 9.69 49.21 6.28 45.49C2.86 41.76 -1.17 36.17 4.42 37.73C10 39.28 35.01 39.46 43.7 39.46C48 39.46 54.05 40.94 58.42 42C55.41 34.62 38.07 23.78 65.46 18.07C73.72 16.35 85.1 13.93 98.87 11.44C101.39 10.99 104.31 13.01 106.99 12.55C109.98 12.04 110.44 8.5 115.93 8.54C120.66 8.58 125.48 7.07 130.52 6.38C132.71 6.07 135.16 9.55 137.42 9.26C140.21 8.9 137.07 4.89 139.95 4.55C160.81 2.14 189.72 0.32 213.97 0.32C237.42 0.32 258.91 1.64 277.65 3.6C281.09 3.96 281.24 9.5 284.51 9.6C298.23 10.03 295.1 5.69 298.61 6.2C321.3 9.46 338.12 13.42 346.96 16.27C359.64 20.37 363.49 20.05 361.68 28.23ZM347.23 53.9C347.18 69.46 344.37 75.56 342.86 75.49C336.12 75.17 338.73 70.56 293.5 63.42C289.6 70.03 284.69 79.4 284 82C283.2 85 290.8 90 300 94C309.2 98 320 100.33 324.2 99.13C328.4 97.93 354.6 85.2 361.2 82.8C367.8 80.4 378.2 79.6 396.4 79.4C414.6 79.2 418.4 80.4 419.4 80C420.4 79.6 416.6 75.2 412.6 71.6C408.6 68 396.6 58.9 396.2 56.3C395.8 53.7 404.2 42.2 408.6 40.2C413 38.2 418.2 33.4 418.6 32.4C419 31.4 410 31.4 403 31C396 30.6 380 31.8 377 32.2C374.7 32.51 358.71 37.61 351.33 39.99C349.02 43.27 347.25 47.62 347.23 53.9Z" />
			<path id="Color Fill 8 copy 2" fill-rule="evenodd" class="shp2" d="M84.65 71.47C96.23 67.91 121.41 64.57 121.41 64.57C121.41 64.57 134.42 79.66 120.43 75.89C111.49 73.49 90.58 85.44 82.51 83.57C74.44 81.71 69.65 81.37 66.62 79.28C65.14 78.25 73.58 74.88 84.65 71.47ZM55.17 37.5C58.67 40.83 65 50.83 64.17 61.5C63.33 72.17 61.17 80 65 81.83C68.83 83.67 84.83 86.5 84.83 86.5C84.83 86.5 65.83 85.17 62.33 81.5C58.83 77.83 60.83 71.5 61.33 67.83C61.83 64.17 62.33 52.17 59.5 47C56.67 41.83 52.33 37.67 51.67 34.83M101.11 82.21C101.11 82.21 111.75 78.62 116.25 78.25C120.75 77.87 123.5 78.75 122.87 80.25C122.25 81.75 115.59 89.38 113.47 91.38C111.34 93.39 110.12 95.5 107.37 96C107.37 96 109.32 95.05 113.21 90C115.16 87.47 120.19 81.66 120.19 80.66C120.19 79.66 112.78 79.59 101.11 82.21ZM286.2 62.8C296.2 63.6 312.4 66.4 324.4 69.2C336.4 72 346.8 73.6 349 74.8C351.2 76 345.94 76.93 340 78.8C327.27 82.81 305.29 76.02 297.93 77.9C286.12 80.91 281.28 82.56 284.61 87.06C287.95 91.56 275.5 80.83 277.17 77.17C278.83 73.5 276.2 62 286.2 62.8ZM364.49 29.76C353.33 39.59 352.08 41.83 349.58 46.67C347.08 51.5 350.5 56.33 352 63.17C353.5 70 354.69 72.46 352.36 76.01C348.55 81.81 337.67 82.5 337.67 82.5C343.83 80.67 349.5 78.83 351.5 74.83C353.5 70.83 349.83 66.17 347.5 56.33C345.17 46.5 350.83 39.17 354.5 36.17M294.46 83.32C291.58 84.32 291.75 84.89 304.18 90.53C317.41 96.54 324.12 94.87 324.12 94.87C317.25 97.5 307.69 93.59 298.81 90.22C289.94 86.84 287.5 83.87 290.75 82.87C294 81.87 302.48 81.11 302.48 81.11C302.48 81.11 297.33 82.32 294.46 83.32Z" />
			<path id="Color Fill 10 copy 2" fill-rule="evenodd" class="shp3" d="M58.75 43.78C58.75 43.78 47.32 41.48 36.67 41.9C36.08 41.93 39 45.14 43.35 58.62C49.05 76.24 40.91 82.15 41.21 82.1C51.17 80.45 70.8 89.6 83.2 92.8C95.6 96 105.86 96.75 108.26 95.95C110.66 95.15 119 85.4 121.8 82C124.6 78.6 122 78.8 118.4 78.4C114.8 78 106.6 80.4 100.2 82.6C93.8 84.8 90.2 87.4 84.8 86.6C79.4 85.8 65 83.6 63.4 80.4C61.8 77.2 63.6 69.4 63.8 62C64 54.6 62.54 49.16 59.34 44.76M355.6 36.2C351.6 39 345.8 47.8 346.8 53.8C347.8 59.8 352 68.8 352 72.2C352 75.6 351 78 343.8 80.6C336.6 83.2 328 83.4 323.4 82.8C318.8 82.2 307.2 80.5 303.6 80.9C300 81.3 290.05 82.44 289.46 84.27C288.88 86.1 302.62 92.07 309.42 93.67C316.22 95.27 320.6 97.6 333 91.8C345.4 86 364.27 76.75 374.4 76.65C374.4 76.65 368.2 63.6 371.4 55C374.6 46.4 377.4 34.4 377.4 34.4C377.4 34.4 368.07 36.54 364.5 37.83C360.93 39.12 354.75 41.85 352.04 41.99" />
			<text id="Level Cleared" style="transform: matrix(1.914,-0.003,0.003,1.914,85.712,54.77)" >
				<tspan x="0" y="0" class="txt4">Level Cleared</tspan>
			</text>
		</g>
	</g>
</svg>