<svg xmlns="http://www.w3.org/2000/svg" viewBox="0 0 67 69" width="67" height="69">
	<defs>
		<linearGradient id="grd1" gradientUnits="userSpaceOnUse"  x1="34.133" y1="63.784" x2="34.133" y2="5.162">
			<stop offset="0" stop-color="#fda315"  />
			<stop offset="1" stop-color="#fecb43"  />
		</linearGradient>
	</defs>
	<style>
		tspan { white-space:pre }
		.shp0 { fill: #ffffff } 
		.shp1 { fill: url(#grd1) } 
		.shp2 { opacity: 0.251;mix-blend-mode: multiply;fill: #c28017 } 
		.shp3 { opacity: 0.502;mix-blend-mode: overlay;fill: #ffffff } 
		.shp4 { mix-blend-mode: overlay;fill: #ffffff } 
	</style>
	<g id="Buttons">
		<g id="Settings btn">
			<path id="Base 1" class="shp0" d="M35.1 0.35C43.95 0.35 49.79 4.57 55.79 10.15C62.41 16.3 66.81 24.89 66.81 34.63C66.81 44.51 64.49 52.77 57.71 58.93C51.73 64.35 42.7 68.02 34 68.02C23.64 68.02 14.91 64.42 8.74 57.05C3.84 51.21 0.51 42.22 0.51 34C0.51 22.61 7.12 12.54 15.78 6.45C21.25 2.61 27.91 0.35 35.1 0.35Z" />
			<path id="Base 2" class="shp1" d="M34.19 5.16C42.07 5.16 48.09 7.76 53.45 12.74C59.34 18.21 63.27 25.88 63.27 34.56C63.27 43.37 59.5 51.1 53.45 56.59C48.13 61.42 41.77 63.78 34.02 63.78C24.78 63.78 17.7 59.51 12.19 52.94C7.83 47.73 5 41.33 5 34C5 23.84 10.05 14.86 17.77 9.44C22.65 6.01 27.78 5.16 34.19 5.16Z" />
			<path id="Shadow" class="shp2" d="M5.69 38.79C6.59 44.66 16.65 61.1 36.79 55.93C68.65 47.76 60.21 20.96 60.21 20.96L64.95 29.14C64.95 29.14 65.74 44.23 60.68 52.49C58.72 55.68 46.69 66.6 33.34 65.67C26.51 65.2 14.33 60.02 10.33 55.62C6.33 51.22 3.05 40.79 3.05 40.79" />
			<path id="Light" class="shp3" d="M10.05 51.85C10.26 52.06 3.8 31.11 15.5 21.02C25.3 12.58 36.2 7.08 47.57 11.7C61.69 17.44 63.32 27.64 63.32 27.64C63.32 27.64 62.94 19.23 53.92 10.52C41.5 -1.49 25.17 0.21 14.01 9.19C-1.9 21.99 2.71 44.54 10.05 51.85Z" />
			<path id="Highlight" class="shp4" d="M14.78 17.06C12.41 19.05 11.03 26.34 15.72 20.57C18.14 17.6 22.86 14.99 22.76 14.38C22.67 13.8 18.88 13.6 14.78 17.06Z" />
			<path id="Gear icon" fill-rule="evenodd" class="shp0" d="M22.33 22.19C22.62 21.14 25.36 19.56 26.29 19.18C27.22 18.8 28.06 19.43 28.49 20.41C28.91 21.38 29.93 23.03 29.93 23.03C29.93 23.03 33.39 22.14 34.92 22.23C34.92 22.23 35.17 19.52 35.38 18.54C35.6 17.57 36.27 17.06 38.05 17.4C39.83 17.74 41.62 18.32 42.34 18.66C43.06 19 42.28 20.96 41.94 21.72C41.6 22.48 41.14 23.58 41.14 23.58C41.14 23.58 43.47 25.23 44.69 27.01C44.69 27.01 46.89 25.7 47.78 25.44C48.67 25.19 49.47 25.53 50.24 27.35C51 29.16 51.76 30.94 50.41 31.66C49.05 32.38 46.89 32.63 46.89 32.63C46.89 32.63 47.19 35.17 46.39 37.08C46.39 37.08 48.2 37.97 49.39 38.47C50.57 38.98 51.12 39.66 50.24 41.65C49.35 43.64 48.59 44.95 47.36 44.82C46.13 44.69 43.59 42.75 43.59 42.75C43.59 42.75 41.48 44.48 40.33 45.07C39.19 45.67 40.21 45.29 40.21 45.29C40.21 45.29 40.46 46.94 40.72 47.87C40.97 48.8 40.67 49.81 39.61 50.24C38.56 50.66 35.93 51.21 35.13 51.04C34.33 50.87 34.16 50.75 33.9 49.43C33.65 48.12 33.78 46.56 33.78 46.56C33.78 46.56 29.93 45.88 29.16 45.41C29.16 45.41 27.17 48.04 26.58 48.59C25.99 49.14 24.68 48.29 23.92 47.74C23.15 47.19 21.29 45.33 21 44.65C20.7 43.98 21.12 43.04 21.76 42.41C22.39 41.77 23.83 40.63 23.83 40.63C23.83 40.63 22.39 38.18 22.27 37.08C22.27 37.08 18.76 36.97 17.87 36.98C16.98 36.99 17.1 35 17.23 33.14C17.36 31.28 17.27 30.22 18.67 29.88C20.07 29.55 22.69 29.88 22.69 29.88C22.69 29.88 23.73 27.25 24.54 26.36C24.54 26.36 22.58 24.56 22.33 23.82C21.93 22.65 22.31 22.26 22.33 22.19ZM31.68 29.16C30.47 29.78 28.13 32.85 29.21 36.02C30.28 39.19 33.71 40.08 36 39.51C38.28 38.94 40.25 36.53 40.19 34.24C40.12 31.96 38.85 29.49 36.95 28.92C35.05 28.35 34.02 27.97 31.68 29.16Z" />
		</g>
	</g>
</svg>