<svg xmlns="http://www.w3.org/2000/svg" viewBox="0 0 587 798" width="587" height="798">
	<defs>
		<linearGradient id="grd1" gradientUnits="userSpaceOnUse"  x1="547.444" y1="498.667" x2="547.444" y2="443.837">
			<stop offset="0" stop-color="#ffc40f"  />
			<stop offset="1" stop-color="#ffdf36"  />
		</linearGradient>
		<linearGradient id="grd2" gradientUnits="userSpaceOnUse"  x1="285.369" y1="706" x2="285.369" y2="593.8">
			<stop offset="0" stop-color="#daac6b"  />
			<stop offset="1" stop-color="#e6c48e"  />
		</linearGradient>
		<linearGradient id="grd3" gradientUnits="userSpaceOnUse"  x1="436.296" y1="688.425" x2="436.296" y2="646.165">
			<stop offset="0" stop-color="#6fc624"  />
			<stop offset="1" stop-color="#a6e05a"  />
		</linearGradient>
		<linearGradient id="grd4" gradientUnits="userSpaceOnUse"  x1="398.863" y1="680.207" x2="398.863" y2="654.791">
			<stop offset="0" stop-color="#fcc715"  />
			<stop offset="1" stop-color="#fde143"  />
		</linearGradient>
		<linearGradient id="grd5" gradientUnits="userSpaceOnUse"  x1="398.864" y1="677.124" x2="398.864" y2="657.873">
			<stop offset="0" stop-color="#f5c942" stop-opacity="0" />
			<stop offset="1" stop-color="#eb9f15"  />
		</linearGradient>
		<linearGradient id="grd6" gradientUnits="userSpaceOnUse"  x1="398.355" y1="674.273" x2="398.355" y2="659.154">
			<stop offset="0" stop-color="#ffd11b"  />
			<stop offset="1" stop-color="#ffe64e"  />
		</linearGradient>
		<linearGradient id="grd7" gradientUnits="userSpaceOnUse"  x1="242.519" y1="688.228" x2="242.519" y2="674.712">
			<stop offset="0" stop-color="#854b10" stop-opacity="0" />
			<stop offset="1" stop-color="#854b10"  />
		</linearGradient>
		<linearGradient id="grd8" gradientUnits="userSpaceOnUse"  x1="168.445" y1="687.082" x2="168.445" y2="675.06">
			<stop offset="0" stop-color="#ffc40f"  />
			<stop offset="1" stop-color="#ffdf36"  />
		</linearGradient>
		<linearGradient id="grd9" gradientUnits="userSpaceOnUse"  x1="205.445" y1="687.082" x2="205.445" y2="675.06">
			<stop offset="0" stop-color="#ffc40f"  />
			<stop offset="1" stop-color="#ffdf36"  />
		</linearGradient>
		<linearGradient id="grd10" gradientUnits="userSpaceOnUse"  x1="242.445" y1="687.082" x2="242.445" y2="675.06">
			<stop offset="0" stop-color="#ffc40f"  />
			<stop offset="1" stop-color="#ffdf36"  />
		</linearGradient>
		<linearGradient id="grd11" gradientUnits="userSpaceOnUse"  x1="279.445" y1="687.082" x2="279.445" y2="675.06">
			<stop offset="0" stop-color="#ffc40f"  />
			<stop offset="1" stop-color="#ffdf36"  />
		</linearGradient>
		<linearGradient id="grd12" gradientUnits="userSpaceOnUse"  x1="78.368" y1="688.091" x2="78.368" y2="611.801">
			<stop offset="0" stop-color="#ffd409"  />
			<stop offset="1" stop-color="#fff36e"  />
		</linearGradient>
		<linearGradient id="grd13" gradientUnits="userSpaceOnUse"  x1="285.369" y1="569" x2="285.369" y2="456.799">
			<stop offset="0" stop-color="#daac6b"  />
			<stop offset="1" stop-color="#e6c48e"  />
		</linearGradient>
		<linearGradient id="grd14" gradientUnits="userSpaceOnUse"  x1="436.296" y1="551.425" x2="436.296" y2="509.165">
			<stop offset="0" stop-color="#6fc624"  />
			<stop offset="1" stop-color="#a6e05a"  />
		</linearGradient>
		<linearGradient id="grd15" gradientUnits="userSpaceOnUse"  x1="398.863" y1="543.208" x2="398.863" y2="517.791">
			<stop offset="0" stop-color="#fcc715"  />
			<stop offset="1" stop-color="#fde143"  />
		</linearGradient>
		<linearGradient id="grd16" gradientUnits="userSpaceOnUse"  x1="398.864" y1="540.123" x2="398.864" y2="520.873">
			<stop offset="0" stop-color="#f5c942" stop-opacity="0" />
			<stop offset="1" stop-color="#eb9f15"  />
		</linearGradient>
		<linearGradient id="grd17" gradientUnits="userSpaceOnUse"  x1="398.355" y1="537.273" x2="398.355" y2="522.155">
			<stop offset="0" stop-color="#ffd11b"  />
			<stop offset="1" stop-color="#ffe64e"  />
		</linearGradient>
		<linearGradient id="grd18" gradientUnits="userSpaceOnUse"  x1="242.519" y1="551.228" x2="242.519" y2="537.712">
			<stop offset="0" stop-color="#854b10" stop-opacity="0" />
			<stop offset="1" stop-color="#854b10"  />
		</linearGradient>
		<linearGradient id="grd19" gradientUnits="userSpaceOnUse"  x1="168.445" y1="550.082" x2="168.445" y2="538.06">
			<stop offset="0" stop-color="#ffc40f"  />
			<stop offset="1" stop-color="#ffdf36"  />
		</linearGradient>
		<linearGradient id="grd20" gradientUnits="userSpaceOnUse"  x1="205.445" y1="550.082" x2="205.445" y2="538.06">
			<stop offset="0" stop-color="#ffc40f"  />
			<stop offset="1" stop-color="#ffdf36"  />
		</linearGradient>
		<linearGradient id="grd21" gradientUnits="userSpaceOnUse"  x1="242.445" y1="550.082" x2="242.445" y2="538.06">
			<stop offset="0" stop-color="#ffc40f"  />
			<stop offset="1" stop-color="#ffdf36"  />
		</linearGradient>
		<linearGradient id="grd22" gradientUnits="userSpaceOnUse"  x1="77.281" y1="549.69" x2="77.281" y2="471.339">
			<stop offset="0" stop-color="#a9d3e0"  />
			<stop offset="1" stop-color="#cfe8ef"  />
		</linearGradient>
		<linearGradient id="grd23" gradientUnits="userSpaceOnUse"  x1="78.21" y1="541.126" x2="78.21" y2="479.207">
			<stop offset="0" stop-color="#7ba7b7"  />
			<stop offset="1" stop-color="#b8d3dc"  />
		</linearGradient>
		<linearGradient id="grd24" gradientUnits="userSpaceOnUse"  x1="285.369" y1="432" x2="285.369" y2="319.8">
			<stop offset="0" stop-color="#daac6b"  />
			<stop offset="1" stop-color="#e6c48e"  />
		</linearGradient>
		<linearGradient id="grd25" gradientUnits="userSpaceOnUse"  x1="437.296" y1="414.425" x2="437.296" y2="372.165">
			<stop offset="0" stop-color="#6fc624"  />
			<stop offset="1" stop-color="#a6e05a"  />
		</linearGradient>
		<linearGradient id="grd26" gradientUnits="userSpaceOnUse"  x1="399.863" y1="406.207" x2="399.863" y2="380.791">
			<stop offset="0" stop-color="#fcc715"  />
			<stop offset="1" stop-color="#fde143"  />
		</linearGradient>
		<linearGradient id="grd27" gradientUnits="userSpaceOnUse"  x1="399.864" y1="403.124" x2="399.864" y2="383.873">
			<stop offset="0" stop-color="#f5c942" stop-opacity="0" />
			<stop offset="1" stop-color="#eb9f15"  />
		</linearGradient>
		<linearGradient id="grd28" gradientUnits="userSpaceOnUse"  x1="399.355" y1="400.273" x2="399.355" y2="385.154">
			<stop offset="0" stop-color="#ffd11b"  />
			<stop offset="1" stop-color="#ffe64e"  />
		</linearGradient>
		<linearGradient id="grd29" gradientUnits="userSpaceOnUse"  x1="242.519" y1="414.228" x2="242.519" y2="400.712">
			<stop offset="0" stop-color="#854b10" stop-opacity="0" />
			<stop offset="1" stop-color="#854b10"  />
		</linearGradient>
		<linearGradient id="grd30" gradientUnits="userSpaceOnUse"  x1="168.445" y1="413.082" x2="168.445" y2="401.06">
			<stop offset="0" stop-color="#ffc40f"  />
			<stop offset="1" stop-color="#ffdf36"  />
		</linearGradient>
		<linearGradient id="grd31" gradientUnits="userSpaceOnUse"  x1="81.127" y1="414.362" x2="81.127" y2="335.264">
			<stop offset="0" stop-color="#be1d1d"  />
			<stop offset="1" stop-color="#db5150"  />
		</linearGradient>
		<linearGradient id="grd32" gradientUnits="userSpaceOnUse"  x1="180.133" y1="792.784" x2="180.133" y2="734.162">
			<stop offset="0" stop-color="#fda315"  />
			<stop offset="1" stop-color="#fecb43"  />
		</linearGradient>
		<linearGradient id="grd33" gradientUnits="userSpaceOnUse"  x1="181.582" y1="275.604" x2="181.582" y2="218.992">
			<stop offset="0" stop-color="#fda315"  />
			<stop offset="1" stop-color="#fecb43"  />
		</linearGradient>
		<linearGradient id="grd34" gradientUnits="userSpaceOnUse"  x1="387.55" y1="275.276" x2="387.55" y2="220.032">
			<stop offset="0" stop-color="#fda315"  />
			<stop offset="1" stop-color="#fecb43"  />
		</linearGradient>
		<linearGradient id="grd35" gradientUnits="userSpaceOnUse"  x1="382.349" y1="179.865" x2="382.349" y2="133.394">
			<stop offset="0" stop-color="#fca416"  />
			<stop offset="1" stop-color="#fdcc45"  />
		</linearGradient>
		<linearGradient id="grd36" gradientUnits="userSpaceOnUse"  x1="379.354" y1="172.43" x2="379.354" y2="140.021">
			<stop offset="0" stop-color="#ba8f54" stop-opacity="0" />
			<stop offset="1" stop-color="#8a5320"  />
		</linearGradient>
		<linearGradient id="grd37" gradientUnits="userSpaceOnUse"  x1="278.08" y1="178.506" x2="278.08" y2="126.377">
			<stop offset="0" stop-color="#fcc715"  />
			<stop offset="1" stop-color="#fde143"  />
		</linearGradient>
		<linearGradient id="grd38" gradientUnits="userSpaceOnUse"  x1="278.081" y1="172.18" x2="278.081" y2="132.699">
			<stop offset="0" stop-color="#f5c942" stop-opacity="0" />
			<stop offset="1" stop-color="#eb9f15"  />
		</linearGradient>
		<linearGradient id="grd39" gradientUnits="userSpaceOnUse"  x1="277.039" y1="168.295" x2="277.039" y2="137.288">
			<stop offset="0" stop-color="#ffd11b"  />
			<stop offset="1" stop-color="#ffe64e"  />
		</linearGradient>
	</defs>
	<style>
		tspan { white-space:pre }
		.shp0 { fill: #d6a770 } 
		.shp1 { fill: #f8e8b0 } 
		.shp2 { fill: #cba164 } 
		.shp3 { fill: url(#grd1) } 
		.shp4 { fill: #fff6d8 } 
		.shp5 { fill: url(#grd2) } 
		.shp6 { fill: url(#grd3) } 
		.shp7 { opacity: 0.6;mix-blend-mode: overlay;fill: #ffffff } 
		.txt8 { font-size: 20px;fill: #ffffff;font-family: "" Skranji"" } 
		.shp9 { fill: url(#grd4) } 
		.shp10 { fill: url(#grd5) } 
		.shp11 { fill: url(#grd6) } 
		.shp12 { fill: url(#grd7) } 
		.shp13 { fill: url(#grd8);stroke: #a46c1d;paint-order:stroke fill markers;stroke-width: 2 } 
		.shp14 { fill: url(#grd9);stroke: #a46c1d;paint-order:stroke fill markers;stroke-width: 2 } 
		.shp15 { fill: url(#grd10);stroke: #a46c1d;paint-order:stroke fill markers;stroke-width: 2 } 
		.shp16 { fill: url(#grd11);stroke: #a46c1d;paint-order:stroke fill markers;stroke-width: 2 } 
		.txt17 { font-size: 30px;fill: #3a230a;font-family: "" Averia  Sans  Libre"" } 
		.txt18 { font-size: 26px;fill: #ffffff;font-family: "" Carter  One"";text-anchor: middle } 
		.shp19 { fill: #ffffff } 
		.shp20 { fill: url(#grd12) } 
		.shp21 { mix-blend-mode: overlay;fill: #ffffff } 
		.shp22 { fill: url(#grd13) } 
		.shp23 { fill: url(#grd14) } 
		.shp24 { fill: url(#grd15) } 
		.shp25 { fill: url(#grd16) } 
		.shp26 { fill: url(#grd17) } 
		.shp27 { fill: url(#grd18) } 
		.shp28 { fill: url(#grd19);stroke: #a46c1d;paint-order:stroke fill markers;stroke-width: 2 } 
		.shp29 { fill: url(#grd20);stroke: #a46c1d;paint-order:stroke fill markers;stroke-width: 2 } 
		.shp30 { fill: url(#grd21);stroke: #a46c1d;paint-order:stroke fill markers;stroke-width: 2 } 
		.shp31 { fill: url(#grd22) } 
		.shp32 { fill: url(#grd23) } 
		.shp33 { fill: url(#grd24) } 
		.shp34 { fill: url(#grd25) } 
		.shp35 { fill: url(#grd26) } 
		.shp36 { fill: url(#grd27) } 
		.shp37 { fill: url(#grd28) } 
		.shp38 { fill: url(#grd29) } 
		.shp39 { fill: url(#grd30);stroke: #a46c1d;paint-order:stroke fill markers;stroke-width: 2 } 
		.shp40 { fill: url(#grd31) } 
		.shp41 { fill: #f15e5e } 
		.shp42 { fill: url(#grd32) } 
		.shp43 { opacity: 0.251;mix-blend-mode: multiply;fill: #c28017 } 
		.shp44 { opacity: 0.502;mix-blend-mode: overlay;fill: #ffffff } 
		.shp45 { fill: url(#grd33) } 
		.txt46 { font-size: 30px;fill: #ffffff;font-family: "" Carter  One"" } 
		.shp47 { fill: url(#grd34) } 
		.shp48 { fill: url(#grd35) } 
		.shp49 { fill: url(#grd36) } 
		.txt50 { font-size: 25px;fill: #ffffff;font-family: "" Skranji"" } 
		.shp51 { fill: url(#grd37) } 
		.shp52 { fill: url(#grd38) } 
		.shp53 { fill: url(#grd39) } 
		.shp54 { opacity: 0.102;fill: #000000 } 
		.shp55 { fill: #a5e24d } 
		.shp56 { fill: #439043 } 
		.shp57 { opacity: 0.6;fill: #439043 } 
		.txt58 { font-size: 20px;fill: #ffffff;font-family: "" Carter  One"" } 
	</style>
	<g id="Store">
		<g id="Panel">
			<path id="base" class="shp0" d="M48.72 48.13C80.81 41.72 166.21 52.17 296.3 51.52C414.2 50.94 530.16 52.92 540.27 53.67C569.21 55.85 585.18 66.07 585.98 97.27C586.6 121.62 585.83 145.94 584.89 200.24C584.57 218.78 584.01 240.57 583.7 261.7C582.39 349.84 586.01 712.41 584.63 725.55C581.96 750.91 569.25 765.45 536.84 767.69C504.42 769.93 431.55 764.12 311.23 764.12C178.92 764.12 81.66 771.83 54.92 769.46C28.18 767.09 8.61 756.46 5.87 726.81C3.13 697.16 -1.35 126.8 1.82 99.38C4.99 71.96 24.85 52.91 48.72 48.13Z" />
			<path id="base" class="shp1" d="M66.73 54.67C97.99 48.58 168.47 58.07 295.2 57.46C410.06 56.91 521.83 60.29 531.69 61.01C559.88 63.08 577.11 73.7 577.87 104.14C578.52 130.25 574.78 146.39 573.89 201.14C573.52 224.18 571.9 230.14 573.48 259.52C578.18 347.31 575.85 705.89 574.5 718.38C571.9 742.47 559.52 756.28 527.94 758.4C496.37 760.53 419.55 755.61 302.32 755.61C173.42 755.61 89.32 759.93 63.27 757.67C37.22 755.42 18.16 745.33 15.49 717.16C12.82 688.99 11.99 142.56 12.48 101.85C12.88 69.38 43.47 59.21 66.73 54.67Z" />
		</g>
		<g id="Scroll">
			<path id="Base" class="shp2" d="M546.75 317C549.51 317 551 319.24 551 322C551 322 550.56 379.54 550.56 479.03C550.56 572.34 551.85 707 551.85 707C551.85 709.76 549.7 711.17 546.94 711.17C544.17 711.17 543.02 708.1 543.02 705.34C543.02 705.34 544 636.56 544 554.44C544 447 542 322 542 322C542 319.24 543.99 317 546.75 317Z" />
			<path id="Handle" class="shp3" d="M551.21 450.66C551.4 456.57 550.98 495.04 550.98 495.04C550.98 497.04 549.51 498.67 547.69 498.67L547.01 498.67C545.19 498.67 544.04 496.51 543.74 491.59C543.45 486.79 543.85 448.88 543.85 448.88C543.85 446.88 544.52 444.15 546.34 444.15L547.69 443.84C549.51 443.84 551.04 445.3 551.21 450.66Z" />
		</g>
		<g id="Score multiplier">
			<path id="Base 2" class="shp4" d="M54.63 590.86C54.63 590.86 483.78 587.98 512.32 589.62C519.06 590.01 524.63 595.07 524.63 601.3C524.63 601.3 524.63 691.55 524.11 698.75C523.58 705.96 520.48 710.82 514.03 710.48C498.52 709.68 407.75 710.25 300.72 710.48C185.45 710.74 77.95 712.72 58.01 711.37C49 710.77 47.27 708.48 46.73 700.09C46.49 696.32 46.9 650.96 46.94 636.87C47 619.63 46.44 602.95 46.44 602.95C46.44 596.72 48.4 590.86 54.63 590.86Z" />
			<path id="Base 1" class="shp5" d="M57.77 595.26C57.77 595.26 501.26 593.07 509.09 594.05C515.02 594.79 520.05 597.2 520 605C520 605 520 688.42 519.53 694.81C519.07 701.2 516.31 704.79 510.6 705.21C499.95 706 83.98 706.01 61 706C52.99 706 51.47 703.44 51 696C50.79 692.66 51.88 681.03 51.92 668.54C51.97 653.25 50.74 606.46 50.74 606.46C50.74 600.94 52.25 595.26 57.77 595.26Z" />
			<g id="Buy btn">
				<path id="base" class="shp6" d="M392.52 646.89C411.62 647.97 467.03 647.09 481.37 646.32C493.04 645.7 497.22 646.53 499.64 656.5C501.01 662.14 500.28 674.91 499.2 679.13C498 683.82 494.33 688.13 483.75 687.95C474.26 687.78 415.57 687.61 390.86 688.39C374.22 688.92 373.98 682.84 373.13 679.3C372.28 675.76 371.65 661.57 372.93 657.5C375.99 647.73 385.81 646.51 392.52 646.89Z" />
				<path id="Highlight" fill-rule="evenodd" class="shp7" d="M382.15 651.87C379.1 652.97 378.91 655.06 379.09 655.8C379.28 656.54 380.86 656.6 383.28 656.22C385.69 655.85 387.28 654.91 386.82 653.43C386.12 651.19 383.95 651.22 382.15 651.87ZM401.56 654.12C408.13 654.12 413.61 654.04 413.38 652.86C413.25 652.18 409.66 652.29 399.88 651C391.36 649.88 389.23 650.13 388.74 653.71C388.55 655.07 394.99 654.12 401.56 654.12Z" />
				<text id="50000" style="transform: matrix(1,0,0,1,421.938,673.938)" >
					<tspan x="0" y="0" class="txt8">50000</tspan>
				</text>
				<g id="Coin">
					<path id="Base 2" class="shp9" d="M398.89 654.79C402.31 654.79 404.92 655.92 407.24 658.07C409.79 660.45 411.49 663.77 411.49 667.54C411.49 671.36 409.86 674.71 407.24 677.09C404.93 679.18 402.18 680.21 398.81 680.21C394.81 680.21 391.74 678.35 389.35 675.51C387.46 673.25 386.23 670.47 386.23 667.29C386.23 662.89 388.42 659 391.77 656.64C393.88 655.16 396.11 654.79 398.89 654.79Z" />
					<path id="Base 2 copy" class="shp10" d="M398.88 657.87C401.47 657.87 403.45 658.73 405.21 660.36C407.14 662.16 408.43 664.68 408.43 667.53C408.43 670.42 407.19 672.96 405.21 674.76C403.46 676.35 401.37 677.12 398.83 677.12C395.79 677.12 393.47 675.72 391.66 673.56C390.23 671.85 389.3 669.75 389.3 667.34C389.3 664.01 390.95 661.06 393.49 659.28C395.09 658.15 396.78 657.87 398.88 657.87Z" />
					<path id="Color Fill 7" class="shp11" d="M401.11 660.44C401.15 660.23 401.19 660.04 401.23 659.86C401.27 659.69 401.3 659.54 401.32 659.42C401.35 659.29 401.36 659.23 401.36 659.22C401.36 659.2 401.35 659.18 401.34 659.17C401.34 659.16 401.31 659.15 401.28 659.15C400.85 659.22 400.42 659.27 399.97 659.31C399.53 659.35 399.1 659.38 398.68 659.41C398.64 659.42 398.6 659.43 398.59 659.45C398.57 659.46 398.56 659.49 398.55 659.52C398.54 659.55 398.54 659.6 398.54 659.65C398.53 659.7 398.53 659.77 398.51 659.85L398.24 661.54C397.92 661.6 397.6 661.72 397.29 661.9C396.97 662.08 396.69 662.3 396.44 662.56C396.19 662.82 395.98 663.1 395.82 663.4C395.66 663.71 395.58 664.01 395.58 664.3C395.58 664.74 395.69 665.15 395.92 665.52C396.14 665.89 396.52 666.24 397.04 666.56C397.45 666.82 397.79 667.05 398.04 667.24C398.29 667.44 398.48 667.62 398.62 667.77C398.76 667.93 398.85 668.06 398.89 668.18C398.94 668.3 398.96 668.42 398.96 668.52C398.96 668.7 398.86 668.86 398.71 669.03C398.21 669.59 398 669.59 397.21 669.66C395.96 669.79 395.21 668.53 394.81 668.57C394.5 668.68 394.32 669.28 394.07 669.85C393.89 670.26 393.72 670.63 393.64 671.09C393.83 671.32 394.09 672.04 395.92 672.25C396.83 672.35 397.68 672.17 397.68 672.17L397.31 674.27C397.48 674.27 397.66 674.27 397.87 674.26C398.08 674.25 398.29 674.24 398.49 674.22C398.7 674.21 398.88 674.2 399.05 674.19C399.22 674.18 399.34 674.18 399.42 674.18L400.12 674.19C400.13 673.97 400.14 673.74 400.16 673.48C400.18 673.23 400.2 672.98 400.21 672.74C400.23 672.51 400.25 672.29 400.26 672.09C400.28 671.9 400.29 671.75 400.29 671.65C400.64 671.5 400.96 671.33 401.27 671.13C401.58 670.94 401.86 670.71 402.09 670.47C402.33 670.22 402.51 669.96 402.65 669.67C402.79 669.39 402.85 669.08 402.85 668.75C402.85 668.36 402.78 668.01 402.64 667.71C402.49 667.42 402.31 667.15 402.09 666.91C401.87 666.68 401.64 666.46 401.38 666.27C401.13 666.08 400.89 665.89 400.68 665.71C400.46 665.53 400.28 665.35 400.13 665.16C399.99 664.98 399.91 664.77 399.91 664.54C399.91 664.35 399.98 664.2 400.12 664.08C400.25 663.97 400.42 663.88 400.61 663.82C400.8 663.76 401 663.71 401.19 663.69C401.39 663.67 401.55 663.66 401.68 663.66C401.78 663.66 401.9 663.67 402.06 663.68C402.21 663.7 402.36 663.71 402.51 663.73C402.66 663.74 402.78 663.76 402.89 663.77C403 663.79 403.06 663.8 403.08 663.8L402.84 661.19C402.67 661.17 402.42 661.14 402.11 661.11C401.79 661.08 401.42 661.05 400.99 661.02C401.03 660.84 401.07 660.65 401.11 660.44Z" />
				</g>
			</g>
			<path id="Shape 18" class="shp12" d="M161.19 674.76C167.42 674.57 180.21 675 180.21 675C182.32 675 184.04 676.55 184.04 678.47L184.04 684.53C184.04 686.45 184.04 687.79 178.85 688.11C173.8 688.43 159.32 688 159.32 688C157.2 688 154.33 686.45 154.33 684.53L154 678.47C154 676.55 155.55 674.94 161.19 674.76ZM198.19 674.76C204.42 674.57 217.21 675 217.21 675C219.32 675 221.04 676.55 221.04 678.47L221.04 684.53C221.04 686.45 221.04 687.79 215.85 688.11C210.8 688.43 196.32 688 196.32 688C194.2 688 191.33 686.45 191.33 684.53L191 678.47C191 676.55 192.55 674.94 198.19 674.76ZM235.19 674.76C241.42 674.57 254.21 675 254.21 675C256.32 675 258.04 676.55 258.04 678.47L258.04 684.53C258.04 686.45 258.04 687.79 252.85 688.11C247.8 688.43 233.32 688 233.32 688C231.2 688 228.33 686.45 228.33 684.53L228 678.47C228 676.55 229.55 674.94 235.19 674.76ZM271.19 674.76C277.42 674.57 290.21 675 290.21 675C292.32 675 294.04 676.55 294.04 678.47L294.04 684.53C294.04 686.45 294.04 687.79 288.85 688.11C283.8 688.43 269.32 688 269.32 688C267.2 688 264.33 686.45 264.33 684.53L264 678.47C264 676.55 265.55 674.94 271.19 674.76ZM308.19 674.76C314.42 674.57 327.21 675 327.21 675C329.32 675 331.04 676.55 331.04 678.47L331.04 684.53C331.04 686.45 331.04 687.79 325.85 688.11C320.8 688.43 306.32 688 306.32 688C304.2 688 301.33 686.45 301.33 684.53L301 678.47C301 676.55 302.55 674.94 308.19 674.76Z" />
			<path id="Color Fill 50" class="shp13" d="M161.01 675.11C166.93 674.92 179.06 675.33 179.06 675.33C181.07 675.33 182.69 676.81 182.69 678.62L182.69 683.58C182.69 685.39 182.7 686.67 177.77 686.97C172.98 687.27 159.24 686.87 159.24 686.87C157.24 686.87 154.51 685.39 154.51 683.58L154.2 678.62C154.2 676.81 155.66 675.28 161.01 675.11Z" />
			<path id="Color Fill 50 copy" class="shp14" d="M198.01 675.11C203.93 674.92 216.06 675.33 216.06 675.33C218.07 675.33 219.69 676.81 219.69 678.62L219.69 683.58C219.69 685.39 219.7 686.67 214.77 686.97C209.98 687.27 196.24 686.87 196.24 686.87C194.24 686.87 191.51 685.39 191.51 683.58L191.2 678.62C191.2 676.81 192.66 675.28 198.01 675.11Z" />
			<path id="Color Fill 50 copy 2" class="shp15" d="M235.01 675.11C240.93 674.92 253.06 675.33 253.06 675.33C255.07 675.33 256.69 676.81 256.69 678.62L256.69 683.58C256.69 685.39 256.7 686.67 251.77 686.97C246.98 687.27 233.24 686.87 233.24 686.87C231.24 686.87 228.51 685.39 228.51 683.58L228.2 678.62C228.2 676.81 229.66 675.28 235.01 675.11Z" />
			<path id="Color Fill 50 copy 3" class="shp16" d="M272.01 675.11C277.93 674.92 290.06 675.33 290.06 675.33C292.07 675.33 293.69 676.81 293.69 678.62L293.69 683.58C293.69 685.39 293.7 686.67 288.77 686.97C283.98 687.27 270.24 686.87 270.24 686.87C268.24 686.87 265.51 685.39 265.51 683.58L265.2 678.62C265.2 676.81 266.66 675.28 272.01 675.11Z" />
			<text id="Increase duration by 25%" style="transform: matrix(0.504,0,0,0.504,152.567,658.478)" >
				<tspan x="0" y="0" class="txt17">Increase duration by 25%</tspan>
			</text>
			<text id="Score Multiplier" style="transform: matrix(1,0,0,1,248.688,632.094)" >
				<tspan x="0" y="0" class="txt18">Score Multiplier</tspan>
			</text>
			<g id="Star icon">
				<path id="Color Fill 54" class="shp19" d="M68.17 609.42C69.16 608.48 72.87 605.77 76.52 608.72C80.17 611.68 82.26 613.42 82.26 613.42C82.26 613.42 88 610.46 91.13 610.81C94.26 611.16 95.31 613.14 95.31 613.14C95.31 613.14 96.87 609.42 102.79 611.51C108.7 613.59 112.7 615.68 112.53 617.94C112.35 620.2 109.92 624.2 109.92 624.2C109.92 624.2 118.62 624.03 120.01 626.46C121.4 628.9 122.97 632.03 117.22 640.21C111.48 648.38 107.83 652.56 107.83 652.56C107.83 652.56 115.31 665.6 116.36 672.21C117.4 678.82 117.57 682.02 108.01 682.02C98.44 682.02 86.26 677.95 86.26 677.95C86.26 677.95 75.47 687.09 68.87 690.75C60.65 695.32 56.58 692.49 55.94 688.31C54.62 679.63 55.41 664.8 55.41 664.8C55.41 664.8 47.23 660.04 42.36 655.51C37.49 650.99 31.77 645.67 41.36 639.45C48.83 634.6 59.96 630.54 59.96 630.54C59.96 630.54 62.3 615.02 68.17 609.42Z" />
				<path id="Base" class="shp20" d="M71.75 611.87C78.73 610.47 90.67 629.16 90.67 629.16C90.67 629.16 113.18 625.21 115.87 631.62C117.9 636.45 102.51 652.25 102.51 652.25C102.51 652.25 114.68 673.16 111.76 676.68C107.76 681.5 84.69 673.55 84.69 673.55C84.69 673.55 67.77 690.07 61.51 687.9C56.5 686.16 59.63 661.71 59.63 661.71C59.63 661.71 40.24 650.59 40.68 646.27C41.13 641.96 63.53 633.3 63.53 633.3C63.53 633.3 66.19 613.29 71.52 611.91" />
				<path id="Color Fill 48" class="shp21" d="M115.12 630.8C105.83 630.98 89.76 636.25 76.94 647.26C62.55 659.61 53.61 657.08 43.5 649.77C33.38 642.46 44.34 639.93 47.99 639.09C51.65 638.25 60.08 633.19 61.48 631.5C62.89 629.82 66.54 610.99 71.04 610.71C75.53 610.43 90.99 626.44 90.99 626.44C90.99 626.44 111.79 626.44 115.16 628.69" />
				<path id="Color Fill 53" class="shp19" d="M96.81 641.6C96.9 641.6 96.96 641.6 97.01 641.58C97.99 641.16 99.06 640.81 100.22 640.53C101.38 640.26 102.51 640 103.61 639.75C103.79 639.71 103.88 639.61 103.88 639.46C103.88 639.34 103.83 639.2 103.74 639.04C103.66 638.88 103.54 638.66 103.39 638.38L98.09 628.37C99.28 626.73 100.48 625.12 101.69 623.55C102.9 621.98 104.14 620.36 105.42 618.68C105.67 618.34 105.86 618.09 105.97 617.94C106.09 617.78 106.15 617.64 106.15 617.51C106.15 617.42 106.08 617.35 105.93 617.31C104.9 617.06 103.83 616.8 102.72 616.53C101.6 616.25 100.6 615.9 99.7 615.48C99.67 615.46 99.61 615.45 99.53 615.45C99.35 615.45 99.21 615.53 99.11 615.68L94.49 621.68L91.18 615.68C91.12 615.53 90.99 615.45 90.8 615.45C90.71 615.45 90.65 615.46 90.6 615.48C89.62 615.9 88.54 616.25 87.39 616.53C86.23 616.8 85.1 617.06 84 617.31C83.81 617.35 83.71 617.44 83.71 617.57C83.71 617.69 83.76 617.83 83.84 617.99C83.93 618.16 84.06 618.38 84.22 618.68C85.13 620.36 86.02 621.98 86.88 623.56C87.74 625.14 88.61 626.74 89.5 628.37L82.19 638.38C81.94 638.72 81.75 638.97 81.64 639.13C81.52 639.29 81.46 639.43 81.46 639.53C81.46 639.65 81.53 639.72 81.68 639.75C82.18 639.88 82.7 640.01 83.25 640.14C83.79 640.26 84.33 640.39 84.87 640.53C85.41 640.67 85.93 640.83 86.45 641C86.97 641.17 87.44 641.36 87.89 641.58C87.92 641.6 87.97 641.6 88.06 641.6C88.24 641.6 88.38 641.53 88.48 641.38C88.5 641.37 88.64 641.17 88.92 640.8C89.2 640.42 89.56 639.94 89.98 639.34C90.41 638.74 90.9 638.08 91.44 637.34C91.99 636.61 92.54 635.86 93.1 635.11C93.5 635.86 93.89 636.61 94.28 637.34C94.67 638.08 95.02 638.74 95.34 639.34C95.66 639.94 95.91 640.42 96.11 640.8C96.31 641.17 96.42 641.37 96.43 641.38C96.52 641.53 96.65 641.6 96.81 641.6L96.81 641.6Z" />
				<path id="Shape 12 copy" class="shp21" d="M78.64 621.89C77.79 622.65 78.13 626.78 79.64 629.32C81.16 631.85 84.87 630.46 84.64 628.42C84.4 626.39 80.32 620.39 78.64 621.89Z" />
			</g>
		</g>
		<g id="Shield">
			<path id="Base 2" class="shp4" d="M54.63 453.86C54.63 453.86 483.78 450.98 512.32 452.62C519.06 453.01 524.63 458.07 524.63 464.3C524.63 464.3 524.63 554.55 524.11 561.75C523.58 568.96 520.48 573.82 514.03 573.48C498.52 572.68 407.75 573.25 300.72 573.48C185.45 573.74 77.95 575.72 58.01 574.37C49 573.77 47.27 571.48 46.73 563.09C46.49 559.32 46.9 513.96 46.94 499.87C47 482.63 46.44 465.95 46.44 465.95C46.44 459.72 48.4 453.86 54.63 453.86Z" />
			<path id="Base 1" class="shp22" d="M57.77 458.26C57.77 458.26 501.26 456.07 509.09 457.05C515.02 457.79 520.05 460.2 520 468C520 468 520 551.42 519.53 557.81C519.07 564.2 516.31 567.79 510.6 568.21C499.95 569 83.98 569.01 61 569C52.99 569 51.47 566.44 51 559C50.79 555.66 51.88 544.03 51.92 531.54C51.97 516.25 50.74 469.46 50.74 469.46C50.74 463.94 52.25 458.26 57.77 458.26Z" />
			<g id="Buy btn">
				<path id="base" class="shp23" d="M392.52 509.89C411.62 510.97 467.03 510.09 481.37 509.32C493.04 508.7 497.22 509.53 499.64 519.5C501.01 525.14 500.28 537.91 499.2 542.13C498 546.82 494.33 551.13 483.75 550.95C474.26 550.78 415.57 550.61 390.86 551.39C374.22 551.92 373.98 545.84 373.13 542.3C372.28 538.76 371.65 524.57 372.93 520.5C375.99 510.73 385.81 509.51 392.52 509.89Z" />
				<path id="Highlight" fill-rule="evenodd" class="shp7" d="M382.15 514.87C379.1 515.97 378.91 518.06 379.09 518.8C379.28 519.54 380.86 519.6 383.28 519.22C385.69 518.85 387.28 517.91 386.82 516.43C386.12 514.19 383.95 514.22 382.15 514.87ZM401.56 517.12C408.13 517.12 413.61 517.04 413.38 515.86C413.25 515.18 409.66 515.29 399.88 514C391.36 512.88 389.23 513.13 388.74 516.71C388.55 518.07 394.99 517.12 401.56 517.12Z" />
				<text id="10000" style="transform: matrix(1,0,0,1,421.938,536.938)" >
					<tspan x="0" y="0" class="txt8">10000</tspan>
				</text>
				<g id="Coin icon">
					<path id="Base 2" class="shp24" d="M398.89 517.79C402.31 517.79 404.92 518.92 407.24 521.07C409.79 523.45 411.49 526.77 411.49 530.54C411.49 534.36 409.86 537.71 407.24 540.09C404.93 542.18 402.18 543.21 398.81 543.21C394.81 543.21 391.74 541.35 389.35 538.51C387.46 536.25 386.23 533.47 386.23 530.29C386.23 525.89 388.42 522 391.77 519.64C393.88 518.16 396.11 517.79 398.89 517.79Z" />
					<path id="Base 2 copy" class="shp25" d="M398.88 520.87C401.47 520.87 403.45 521.73 405.21 523.36C407.14 525.16 408.43 527.68 408.43 530.53C408.43 533.42 407.19 535.96 405.21 537.76C403.46 539.35 401.37 540.12 398.83 540.12C395.79 540.12 393.47 538.72 391.66 536.56C390.23 534.85 389.3 532.75 389.3 530.34C389.3 527.01 390.95 524.06 393.49 522.28C395.09 521.15 396.78 520.87 398.88 520.87Z" />
					<path id="Color Fill 7" class="shp26" d="M401.11 523.44C401.15 523.23 401.19 523.04 401.23 522.86C401.27 522.69 401.3 522.54 401.32 522.42C401.35 522.29 401.36 522.23 401.36 522.22C401.36 522.2 401.35 522.18 401.34 522.17C401.34 522.16 401.31 522.15 401.28 522.15C400.85 522.22 400.42 522.27 399.97 522.31C399.53 522.35 399.1 522.38 398.68 522.41C398.64 522.42 398.6 522.43 398.59 522.45C398.57 522.46 398.56 522.49 398.55 522.52C398.54 522.55 398.54 522.6 398.54 522.65C398.53 522.7 398.53 522.77 398.51 522.85L398.24 524.54C397.92 524.6 397.6 524.72 397.29 524.9C396.97 525.08 396.69 525.3 396.44 525.56C396.19 525.82 395.98 526.1 395.82 526.4C395.66 526.71 395.58 527.01 395.58 527.3C395.58 527.74 395.69 528.15 395.92 528.52C396.14 528.89 396.52 529.24 397.04 529.56C397.45 529.82 397.79 530.05 398.04 530.24C398.29 530.44 398.48 530.62 398.62 530.77C398.76 530.93 398.85 531.06 398.89 531.18C398.94 531.3 398.96 531.42 398.96 531.52C398.96 531.7 398.86 531.86 398.71 532.03C398.21 532.59 398 532.59 397.21 532.66C395.96 532.79 395.21 531.53 394.81 531.57C394.5 531.68 394.32 532.28 394.07 532.85C393.89 533.26 393.72 533.63 393.64 534.09C393.83 534.32 394.09 535.04 395.92 535.25C396.83 535.35 397.68 535.17 397.68 535.17L397.31 537.27C397.48 537.27 397.66 537.27 397.87 537.26C398.08 537.25 398.29 537.24 398.49 537.22C398.7 537.21 398.88 537.2 399.05 537.19C399.22 537.18 399.34 537.18 399.42 537.18L400.12 537.19C400.13 536.97 400.14 536.74 400.16 536.48C400.18 536.23 400.2 535.98 400.21 535.74C400.23 535.51 400.25 535.29 400.26 535.09C400.28 534.9 400.29 534.75 400.29 534.65C400.64 534.5 400.96 534.33 401.27 534.13C401.58 533.94 401.86 533.71 402.09 533.47C402.33 533.22 402.51 532.96 402.65 532.67C402.79 532.39 402.85 532.08 402.85 531.75C402.85 531.36 402.78 531.01 402.64 530.71C402.49 530.42 402.31 530.15 402.09 529.91C401.87 529.68 401.64 529.46 401.38 529.27C401.13 529.08 400.89 528.89 400.68 528.71C400.46 528.53 400.28 528.35 400.13 528.16C399.99 527.98 399.91 527.77 399.91 527.54C399.91 527.35 399.98 527.2 400.12 527.08C400.25 526.97 400.42 526.88 400.61 526.82C400.8 526.76 401 526.71 401.19 526.69C401.39 526.67 401.55 526.66 401.68 526.66C401.78 526.66 401.9 526.67 402.06 526.68C402.21 526.7 402.36 526.71 402.51 526.73C402.66 526.74 402.78 526.76 402.89 526.77C403 526.79 403.06 526.8 403.08 526.8L402.84 524.19C402.67 524.17 402.42 524.14 402.11 524.11C401.79 524.08 401.42 524.05 400.99 524.02C401.03 523.84 401.07 523.65 401.11 523.44Z" />
				</g>
			</g>
			<path id="Shape 18" class="shp27" d="M161.19 537.76C167.42 537.57 180.21 538 180.21 538C182.32 538 184.04 539.55 184.04 541.47L184.04 547.53C184.04 549.45 184.04 550.79 178.85 551.11C173.8 551.43 159.32 551 159.32 551C157.2 551 154.33 549.45 154.33 547.53L154 541.47C154 539.55 155.55 537.94 161.19 537.76ZM198.19 537.76C204.42 537.57 217.21 538 217.21 538C219.32 538 221.04 539.55 221.04 541.47L221.04 547.53C221.04 549.45 221.04 550.79 215.85 551.11C210.8 551.43 196.32 551 196.32 551C194.2 551 191.33 549.45 191.33 547.53L191 541.47C191 539.55 192.55 537.94 198.19 537.76ZM235.19 537.76C241.42 537.57 254.21 538 254.21 538C256.32 538 258.04 539.55 258.04 541.47L258.04 547.53C258.04 549.45 258.04 550.79 252.85 551.11C247.8 551.43 233.32 551 233.32 551C231.2 551 228.33 549.45 228.33 547.53L228 541.47C228 539.55 229.55 537.94 235.19 537.76ZM271.19 537.76C277.42 537.57 290.21 538 290.21 538C292.32 538 294.04 539.55 294.04 541.47L294.04 547.53C294.04 549.45 294.04 550.79 288.85 551.11C283.8 551.43 269.32 551 269.32 551C267.2 551 264.33 549.45 264.33 547.53L264 541.47C264 539.55 265.55 537.94 271.19 537.76ZM308.19 537.76C314.42 537.57 327.21 538 327.21 538C329.32 538 331.04 539.55 331.04 541.47L331.04 547.53C331.04 549.45 331.04 550.79 325.85 551.11C320.8 551.43 306.32 551 306.32 551C304.2 551 301.33 549.45 301.33 547.53L301 541.47C301 539.55 302.55 537.94 308.19 537.76Z" />
			<path id="Color Fill 50" class="shp28" d="M161.01 538.11C166.93 537.92 179.06 538.33 179.06 538.33C181.07 538.33 182.69 539.8 182.69 541.62L182.69 546.58C182.69 548.39 182.7 549.67 177.77 549.97C172.98 550.27 159.24 549.87 159.24 549.87C157.24 549.87 154.51 548.39 154.51 546.58L154.2 541.62C154.2 539.8 155.66 538.28 161.01 538.11Z" />
			<path id="Color Fill 50 copy" class="shp29" d="M198.01 538.11C203.93 537.92 216.06 538.33 216.06 538.33C218.07 538.33 219.69 539.8 219.69 541.62L219.69 546.58C219.69 548.39 219.7 549.67 214.77 549.97C209.98 550.27 196.24 549.87 196.24 549.87C194.24 549.87 191.51 548.39 191.51 546.58L191.2 541.62C191.2 539.8 192.66 538.28 198.01 538.11Z" />
			<path id="Color Fill 50 copy 2" class="shp30" d="M235.01 538.11C240.93 537.92 253.06 538.33 253.06 538.33C255.07 538.33 256.69 539.8 256.69 541.62L256.69 546.58C256.69 548.39 256.7 549.67 251.77 549.97C246.98 550.27 233.24 549.87 233.24 549.87C231.24 549.87 228.51 548.39 228.51 546.58L228.2 541.62C228.2 539.8 229.66 538.28 235.01 538.11Z" />
			<text id="Increase duration by 25%" style="transform: matrix(0.504,0,0,0.504,152.567,521.478)" >
				<tspan x="0" y="0" class="txt17">Increase duration by 25%</tspan>
			</text>
			<text id="Shield" style="transform: matrix(1,0,0,1,191.688,495.094)" >
				<tspan x="0" y="0" class="txt18">Shield</tspan>
			</text>
			<g id="Shield icon">
				<path id="Color Fill 51 copy" class="shp19" d="M37.06 510.64C36.1 507.93 35.28 507.53 39.51 504C45.48 499.01 42.48 495.45 42.48 492.95C42.48 490.45 39.97 490.1 49.4 483.23C61.71 474.26 71.92 469.02 74.65 468.11C77.38 467.2 78.84 466.12 80.43 467.03C82.03 467.94 83.86 470.95 89.05 469.9C98.18 468.06 98.71 465.5 101.37 470.05C104.93 476.11 120.17 500.61 117.44 520.41C114.71 540.21 108.31 547.07 106.6 550.18C104.85 553.37 104.2 554.76 94.9 554.28C82.31 553.62 70.43 550.61 61.32 544.23C52.22 537.86 39.3 516.89 37.06 510.64Z" />
				<path id="Color Fill 51" class="shp31" d="M41.4 509.69C40.53 507.25 42.58 507.9 45.32 503.75C48.43 499.04 47.06 496.86 47.06 494.6C47.06 492.34 44.49 491.94 55.07 484.53C65.5 477.23 77.54 470.86 78.96 471.36C80.39 471.87 82.42 476.38 90.92 474.29C94.6 473.39 96.83 470.54 99.2 475.01C102.18 480.62 115.53 502.11 113.07 519.99C110.6 537.86 105.59 543.53 104.04 546.34C102.47 549.22 101.03 550.16 94.05 549.48C88.3 548.92 71.94 546.73 63.73 540.97C55.51 535.22 43.42 515.34 41.4 509.69Z" />
				<path id="Color Fill 52" class="shp32" d="M50.38 509.83C50.09 509.19 51.93 507.96 53.12 506.07C56.04 501.45 55.38 499.65 55.2 494.94C55.16 493.84 61.08 488.84 65.24 486.45C70.24 483.57 76.97 478.88 78.67 479.22C80.38 479.56 81.95 481.6 84.91 481.84C92.32 482.45 93.87 480.07 94.48 480.82C95.54 482.13 100.27 491.27 103.33 498.42C106.4 505.57 107.23 519.67 104.04 528.66C100.22 539.45 99.28 541.17 97.29 541.13C94.19 541.05 80.4 541.45 71.8 537.04C60.97 531.47 51.35 511.95 50.38 509.83Z" />
			</g>
		</g>
		<g id="Coin magnet">
			<path id="Base 2" class="shp4" d="M54.63 316.86C54.63 316.86 483.78 313.98 512.32 315.62C519.06 316.01 524.63 321.07 524.63 327.3C524.63 327.3 524.63 417.55 524.11 424.75C523.58 431.96 520.48 436.82 514.03 436.48C498.52 435.68 407.75 436.25 300.72 436.48C185.45 436.74 77.95 438.72 58.01 437.37C49 436.77 47.27 434.48 46.73 426.09C46.49 422.32 46.9 376.96 46.94 362.87C47 345.63 46.44 328.95 46.44 328.95C46.44 322.72 48.4 316.86 54.63 316.86Z" />
			<path id="Base 1" class="shp33" d="M57.77 321.26C57.77 321.26 501.26 319.07 509.09 320.05C515.02 320.79 520.05 323.2 520 331C520 331 520 414.42 519.53 420.81C519.07 427.2 516.31 430.79 510.6 431.21C499.95 432 83.98 432.01 61 432C52.99 432 51.47 429.44 51 422C50.79 418.66 51.88 407.03 51.92 394.54C51.97 379.25 50.74 332.46 50.74 332.46C50.74 326.94 52.25 321.26 57.77 321.26Z" />
			<g id="Buy">
				<path id="Base" class="shp34" d="M393.52 372.89C412.62 373.97 468.03 373.09 482.37 372.32C494.04 371.7 498.22 372.53 500.64 382.5C502.01 388.14 501.28 400.91 500.2 405.13C499 409.82 495.33 414.13 484.75 413.95C475.26 413.78 416.57 413.61 391.86 414.39C375.22 414.92 374.98 408.84 374.13 405.3C373.28 401.76 372.65 387.57 373.93 383.5C376.99 373.73 386.81 372.51 393.52 372.89Z" />
				<path id="Highlight" fill-rule="evenodd" class="shp7" d="M383.15 377.87C380.1 378.97 379.91 381.06 380.09 381.8C380.28 382.54 381.86 382.6 384.28 382.22C386.69 381.85 388.28 380.91 387.82 379.43C387.12 377.19 384.95 377.22 383.15 377.87ZM402.56 380.12C409.13 380.12 414.61 380.04 414.38 378.86C414.25 378.18 410.66 378.29 400.88 377C392.36 375.88 390.23 376.13 389.74 379.71C389.55 381.07 395.99 380.12 402.56 380.12Z" />
				<text id="2500" style="transform: matrix(1,0,0,1,423.938,399.938)" >
					<tspan x="0" y="0" class="txt8">2500</tspan>
				</text>
				<g id="Coin copy">
					<path id="Base 2" class="shp35" d="M399.89 380.79C403.31 380.79 405.92 381.92 408.24 384.07C410.79 386.45 412.49 389.77 412.49 393.54C412.49 397.36 410.86 400.71 408.24 403.09C405.93 405.18 403.18 406.21 399.81 406.21C395.81 406.21 392.74 404.35 390.35 401.51C388.46 399.25 387.23 396.47 387.23 393.29C387.23 388.89 389.42 385 392.77 382.64C394.88 381.16 397.11 380.79 399.89 380.79Z" />
					<path id="Base 2 copy" class="shp36" d="M399.88 383.87C402.47 383.87 404.45 384.73 406.21 386.36C408.14 388.16 409.43 390.68 409.43 393.53C409.43 396.42 408.19 398.96 406.21 400.76C404.46 402.35 402.37 403.12 399.83 403.12C396.79 403.12 394.47 401.72 392.66 399.56C391.23 397.85 390.3 395.75 390.3 393.34C390.3 390.01 391.95 387.06 394.49 385.28C396.09 384.15 397.78 383.87 399.88 383.87Z" />
					<path id="Color Fill 7" class="shp37" d="M402.11 386.44C402.15 386.23 402.19 386.04 402.23 385.86C402.27 385.69 402.3 385.54 402.32 385.42C402.35 385.29 402.36 385.23 402.36 385.22C402.36 385.2 402.35 385.18 402.34 385.17C402.34 385.16 402.31 385.15 402.28 385.15C401.85 385.22 401.42 385.27 400.97 385.31C400.53 385.35 400.1 385.38 399.68 385.41C399.64 385.42 399.6 385.43 399.59 385.45C399.57 385.46 399.56 385.49 399.55 385.52C399.54 385.55 399.54 385.6 399.54 385.65C399.53 385.7 399.53 385.77 399.51 385.85L399.24 387.54C398.92 387.6 398.6 387.72 398.29 387.9C397.97 388.08 397.69 388.3 397.44 388.56C397.19 388.82 396.98 389.1 396.82 389.4C396.66 389.71 396.58 390.01 396.58 390.3C396.58 390.74 396.69 391.15 396.92 391.52C397.14 391.89 397.52 392.24 398.04 392.56C398.45 392.82 398.79 393.05 399.04 393.24C399.29 393.44 399.48 393.62 399.62 393.77C399.76 393.93 399.85 394.06 399.89 394.18C399.93 394.3 399.96 394.42 399.96 394.52C399.96 394.7 399.86 394.86 399.71 395.03C399.21 395.59 399 395.59 398.21 395.66C396.96 395.79 396.21 394.53 395.81 394.57C395.5 394.68 395.32 395.28 395.07 395.85C394.89 396.26 394.72 396.63 394.64 397.09C394.83 397.32 395.09 398.04 396.92 398.25C397.83 398.35 398.68 398.17 398.68 398.17L398.31 400.27C398.48 400.27 398.66 400.27 398.87 400.26C399.08 400.25 399.29 400.24 399.49 400.22C399.7 400.21 399.88 400.2 400.05 400.19C400.22 400.18 400.34 400.18 400.42 400.18L401.12 400.19C401.13 399.97 401.14 399.74 401.16 399.48C401.18 399.23 401.2 398.98 401.21 398.75C401.23 398.51 401.25 398.29 401.26 398.09C401.28 397.9 401.29 397.75 401.29 397.65C401.64 397.5 401.96 397.33 402.27 397.13C402.58 396.94 402.86 396.71 403.09 396.47C403.33 396.22 403.51 395.96 403.65 395.67C403.79 395.39 403.85 395.08 403.85 394.75C403.85 394.36 403.78 394.01 403.64 393.71C403.49 393.42 403.31 393.15 403.09 392.91C402.87 392.68 402.64 392.46 402.38 392.27C402.13 392.08 401.89 391.89 401.68 391.71C401.46 391.53 401.28 391.35 401.13 391.16C400.99 390.98 400.91 390.77 400.91 390.54C400.91 390.35 400.98 390.2 401.12 390.08C401.25 389.97 401.42 389.88 401.61 389.82C401.8 389.76 402 389.71 402.19 389.69C402.39 389.67 402.55 389.66 402.68 389.66C402.78 389.66 402.9 389.67 403.06 389.68C403.21 389.7 403.36 389.71 403.51 389.73C403.66 389.74 403.78 389.76 403.89 389.77C404 389.79 404.06 389.8 404.08 389.8L403.84 387.19C403.67 387.17 403.42 387.14 403.11 387.11C402.79 387.08 402.42 387.05 401.99 387.02C402.03 386.84 402.07 386.65 402.11 386.44Z" />
				</g>
			</g>
			<path id="Shape 18" class="shp38" d="M161.19 400.76C167.42 400.57 180.21 401 180.21 401C182.32 401 184.04 402.55 184.04 404.47L184.04 410.53C184.04 412.45 184.04 413.79 178.85 414.11C173.8 414.43 159.32 414 159.32 414C157.2 414 154.33 412.45 154.33 410.53L154 404.47C154 402.55 155.55 400.94 161.19 400.76ZM198.19 400.76C204.42 400.57 217.21 401 217.21 401C219.32 401 221.04 402.55 221.04 404.47L221.04 410.53C221.04 412.45 221.04 413.79 215.85 414.11C210.8 414.43 196.32 414 196.32 414C194.2 414 191.33 412.45 191.33 410.53L191 404.47C191 402.55 192.55 400.94 198.19 400.76ZM235.19 400.76C241.42 400.57 254.21 401 254.21 401C256.32 401 258.04 402.55 258.04 404.47L258.04 410.53C258.04 412.45 258.04 413.79 252.85 414.11C247.8 414.43 233.32 414 233.32 414C231.2 414 228.33 412.45 228.33 410.53L228 404.47C228 402.55 229.55 400.94 235.19 400.76ZM271.19 400.76C277.42 400.57 290.21 401 290.21 401C292.32 401 294.04 402.55 294.04 404.47L294.04 410.53C294.04 412.45 294.04 413.79 288.85 414.11C283.8 414.43 269.32 414 269.32 414C267.2 414 264.33 412.45 264.33 410.53L264 404.47C264 402.55 265.55 400.94 271.19 400.76ZM308.19 400.76C314.42 400.57 327.21 401 327.21 401C329.32 401 331.04 402.55 331.04 404.47L331.04 410.53C331.04 412.45 331.04 413.79 325.85 414.11C320.8 414.43 306.32 414 306.32 414C304.2 414 301.33 412.45 301.33 410.53L301 404.47C301 402.55 302.55 400.94 308.19 400.76Z" />
			<path id="Color Fill 50" class="shp39" d="M161.01 401.11C166.93 400.92 179.06 401.33 179.06 401.33C181.07 401.33 182.69 402.81 182.69 404.62L182.69 409.58C182.69 411.39 182.7 412.67 177.77 412.97C172.98 413.27 159.24 412.87 159.24 412.87C157.24 412.87 154.51 411.39 154.51 409.58L154.2 404.62C154.2 402.81 155.66 401.28 161.01 401.11Z" />
			<text id="Increase duration by 25%" style="transform: matrix(0.504,0,0,0.504,152.567,384.478)" >
				<tspan x="0" y="0" class="txt17">Increase duration by 25%</tspan>
			</text>
			<text id="Coin Magnet" style="transform: matrix(1,0,0,1,228.688,358.094)" >
				<tspan x="0" y="0" class="txt18">Coin Magnet</tspan>
			</text>
			<g id="Magnet">
				<path id="Shape 17" class="shp19" d="M37.96 358.83L51.69 351.45C51.69 351.45 60.71 350.94 62.76 352.79C64.81 354.63 68.9 371.95 73.41 377.89C77.92 383.84 82.84 388.14 87.76 386.71C92.68 385.27 93.04 377.07 90.37 370.52C87.71 363.96 78.32 349.41 76.68 347.56C75.04 345.72 73.62 343.71 75.46 341.86C77.31 340.02 85.16 332.92 85.16 332.92L99.78 331.05C99.78 331.05 100.15 331.78 103.63 336.08C107.12 340.39 118.5 357.6 121.78 368.88C125.06 380.15 126.09 394.5 113.99 406.38C101.9 418.27 84.17 420.19 74.75 417.32C65.32 414.45 52.01 406.18 45.25 386.91C38.48 367.65 36.87 360.18 37.96 358.83Z" />
				<path id="Shape 14" class="shp40" d="M78.13 343.87L87.35 335.88L98.42 335.26C98.42 335.26 114.4 356.17 119.63 373.38C124.86 390.6 110.51 410.48 90.83 413.86C71.16 417.24 56.01 402.66 52.3 393.68C45.44 377.02 41.54 361.7 41.54 361.7L53.53 355.55L60.91 355.86C60.91 355.86 67.52 385.95 81.36 391.18C95.19 396.4 97.53 381.64 95.07 372.42C92.61 363.19 78.13 343.87 78.13 343.87Z" />
				<path id="Shape 15" class="shp41" d="M89.2 333.91C95.84 339.81 110.59 360.72 113.3 377.2C116 393.68 114.77 400.81 103.21 410.4C91.65 419.99 125.35 403.51 125.59 402.53C125.84 401.55 131.5 370.56 128.3 364.41C125.1 358.26 117.48 343.75 110.59 335.63C103.71 327.52 95.84 324.81 94.61 324.81C93.38 324.81 82.55 328.01 89.2 333.91ZM53.04 352.6C53.04 352.6 59.04 386.62 75.51 393.26C91.99 399.9 97.31 385.56 95.1 379.16C92.88 372.77 61.16 343.26 61.16 343.26" />
			</g>
		</g>
		<g id="Back Btn">
			<path id="Base 1" class="shp19" d="M181.1 729.35C189.95 729.35 195.79 733.57 201.79 739.15C208.41 745.29 212.81 753.89 212.81 763.63C212.81 773.51 210.49 781.77 203.71 787.93C197.73 793.34 188.7 797.02 180 797.02C169.64 797.02 160.91 793.42 154.74 786.05C149.84 780.21 146.51 771.22 146.51 763C146.51 751.61 153.12 741.54 161.78 735.45C167.25 731.61 173.91 729.35 181.1 729.35Z" />
			<path id="Base 2" class="shp42" d="M180.19 734.16C188.07 734.16 194.09 736.76 199.45 741.74C205.34 747.21 209.27 754.88 209.27 763.56C209.27 772.37 205.5 780.1 199.45 785.59C194.13 790.42 187.77 792.78 180.02 792.78C170.78 792.78 163.7 788.51 158.19 781.94C153.83 776.73 151 770.33 151 763C151 752.84 156.05 743.86 163.77 738.44C168.65 735.01 173.78 734.16 180.19 734.16Z" />
			<path id="Shadow" class="shp43" d="M151.69 767.79C152.59 773.66 162.65 790.1 182.79 784.93C214.65 776.76 206.21 749.96 206.21 749.96L210.95 758.13C210.95 758.13 211.74 773.23 206.68 781.49C204.72 784.68 192.69 795.6 179.34 794.67C172.51 794.2 160.33 789.02 156.33 784.62C152.33 780.22 149.05 769.79 149.05 769.79" />
			<path id="Light" class="shp44" d="M156.05 780.85C156.26 781.06 149.8 760.11 161.5 750.02C171.3 741.58 182.2 736.08 193.57 740.7C207.69 746.44 209.32 756.64 209.32 756.64C209.32 756.64 208.94 748.23 199.92 739.52C187.5 727.51 171.17 729.21 160.01 738.19C144.1 750.99 148.71 773.54 156.05 780.85Z" />
			<path id="Highlight" class="shp21" d="M160.78 746.06C158.41 748.05 157.03 755.33 161.72 749.57C164.14 746.6 168.86 743.99 168.76 743.38C168.67 742.8 164.88 742.6 160.78 746.06Z" />
			<path id="Arrow icon" class="shp19" d="M195.42 758.11C196.39 758.34 197.14 759.63 196.74 762.83C196.34 766.03 196.77 768.71 196.48 769.71C196.2 770.71 195.92 771.62 190.06 770.33C184.21 769.04 179.61 767.74 179.61 767.74C179.61 767.74 181.24 774.8 180.95 776.38C180.67 777.95 179.57 778.67 174.43 775.53C169.29 772.38 161.75 764.86 162.89 762.86C164.47 760.1 167.58 757.55 174.83 752.35C178.26 749.89 181.09 749.59 180.66 753.3C180.23 757.01 179.62 759.98 179.62 759.98C179.62 759.98 192.34 757.38 195.42 758.11Z" />
		</g>
		<g id="Segmented btn">
			<path id="base" class="shp19" d="M102.62 215.22C102.62 215.22 109.5 214 145.93 215.12C195.52 216.63 472.63 215.56 466.15 215.84C478.05 215.33 489.23 222.44 490.69 230.22C492.14 238.01 494.26 251.76 491.06 262.95C487.69 274.72 476.65 279.93 462.76 279.93C462.76 279.93 219.86 279.27 177.49 279.27C134.53 279.27 103.82 280.15 99.57 280.15C87.09 280.15 78.94 268.87 77.94 265.21C76.1 258.47 74.28 246.86 77.28 233.97C80.06 222.06 93.11 215.22 102.62 215.22Z" />
			<g id="Upgrades btn">
				<path id="Color Fill 35 copy 2" class="shp45" d="M107.26 219.77C107.26 219.77 120.35 218.22 148.39 219.5C195.82 221.67 268.02 220.76 261.81 220.57C277.56 221.04 281.41 218.53 281.76 231.7C281.96 239.28 281.58 258.32 281.48 265.46C281.31 278.14 280.57 275.19 254.75 275.53C254.75 275.53 217.73 274.6 177.17 274.6C136.05 274.6 110.1 275.28 106.03 275.28C88.02 275.26 83.79 264.14 82.95 260.6C82.1 257.06 80.19 251.83 82.32 239.34C84.5 226.64 98.16 219.77 107.26 219.77Z" />
				<path id="Color Fill 36 copy" class="shp43" d="M84.33 259.33C88.67 267.33 91.61 271.34 129.48 267.62C174.17 263.24 224.17 266.25 235.83 266.67C271.5 267.94 282.5 271.67 282.17 237.33C282.17 237.33 284.83 251.33 284.5 258.33C284.17 265.33 279.5 275.33 273.5 276.33C267.5 277.33 229.83 277.67 221.83 277.33C213.83 277 155.37 276.33 147.35 277.33C139.33 278.33 106 278.33 102.33 278.33C98.67 278.33 89 276.33 86.33 267.33" />
				<path id="Color Fill 37 copy" class="shp44" d="M82.81 262.9C82.81 251.9 86.86 227.61 114.19 228.69C153.29 230.23 163.66 225.75 192.73 226.06C269.77 226.9 279.45 219.52 281.9 243.46C281.9 243.46 284.37 230.62 283.71 226.62C283.04 222.62 284 222.67 275.33 219.67C266.67 216.67 238.37 216.77 209.67 217.33C190.9 217.7 124.33 215.67 117 216C109.67 216.33 85.67 214 82 229C78.33 244 80.33 251.67 80.33 251.67" />
				<path id="Color Fill 38 copy" fill-rule="evenodd" class="shp21" d="M98.16 226.99C95.23 228.37 95.22 230.46 95.48 231.18C95.73 231.91 97.31 231.81 99.68 231.22C102.05 230.63 103.55 229.55 102.95 228.11C102.05 225.95 99.89 226.18 98.16 226.99ZM124.39 228.12C130.96 228.12 136.44 228.04 136.21 226.86C136.08 226.18 132.49 226.29 122.71 225C114.2 223.88 108.07 224.13 107.57 227.71C107.38 229.07 117.82 228.12 124.39 228.12Z" />
				<text id="Upgrades" style="transform: matrix(1,0,0,1,115.688,255.094)" >
					<tspan x="0" y="0" class="txt46">Upgrades</tspan>
				</text>
			</g>
			<g id="Coins btn">
				<path id="Color Fill 35 copy 4" class="shp47" d="M295.34 221.3C295.34 221.3 320.69 220.49 354.39 221.42C401.85 222.71 463.23 219.98 457.03 220.04C476.39 219.86 483.35 224.61 485.61 234.06C488.13 244.54 488.25 253.42 486.47 260.34C483.07 273.62 467.39 275.28 454.09 275.28C454.09 275.28 433.23 274.6 392.67 274.6C351.55 274.6 302.75 274.93 298.68 274.93C286.73 274.93 288.71 269.03 287.86 265.49C287.02 261.95 287.6 247.69 288.03 235.03C288.35 225.75 286.24 221.3 295.34 221.3Z" />
				<path id="Color Fill 36 copy 3" class="shp43" d="M288.1 252C292.44 260 286.29 273.15 330.96 268.48C375.62 263.81 439.67 266.33 451.33 266.67C463 267 498.5 271.67 498.17 237.33C498.17 237.33 500.83 251.33 500.5 258.33C500.17 265.33 495.5 275.33 489.5 276.33C483.5 277.33 445.33 277.67 437.33 277.33C429.33 277 356.37 276.33 348.35 277.33C340.33 278.33 307 278.33 303.33 278.33C299.67 278.33 290 276.33 287.33 267.33" />
				<path id="Color Fill 37 copy 3" class="shp44" d="M288.87 261.5C288.87 250.5 282 227.71 309.33 228.79C348.44 230.33 380.67 226.76 409.73 226.06C460.83 224.83 494.79 219.52 497.23 243.46C497.23 243.46 500.33 248.67 499.67 244.67C499 240.67 499.33 222.67 490.67 219.67C482 216.67 445.33 215.33 426.67 217.33C408 219.33 329.33 215.67 322 216C314.67 216.33 290.67 214 287 229C283.33 244 285.33 251.67 285.33 251.67" />
				<path id="Color Fill 38 copy 3" fill-rule="evenodd" class="shp44" d="M296.15 226.8C293.1 227.91 292.91 229.99 293.09 230.73C293.28 231.48 294.86 231.53 297.28 231.16C299.69 230.79 301.28 229.85 300.82 228.36C300.12 226.12 297.95 226.16 296.15 226.8ZM321.39 228.28C327.96 228.28 333.44 228.21 333.21 227.03C333.08 226.35 329.49 226.45 319.71 225.17C311.2 224.05 305.07 224.3 304.57 227.88C304.38 229.24 314.82 228.28 321.39 228.28Z" />
				<text id="Coins" style="transform: matrix(1,0,0,1,349.688,255.094)" >
					<tspan x="0" y="0" class="txt46">Coins</tspan>
				</text>
			</g>
		</g>
		<g id="Coins">
			<path id="Base" class="shp48" d="M292.09 134C292.09 134 306.17 132.64 344.25 134C399.82 135.99 468.54 133.67 474 134C479.46 134.33 482.69 136.98 484 144C485.31 151.01 487.4 161.73 486.65 168.41C485.9 175.1 481.44 177.25 471.6 178.83C461.77 180.42 444.44 179.94 401.96 179C353.4 177.93 297.09 179.33 292.85 179.33C281.6 179.33 279.8 172.33 279 169C278.2 165.67 276.97 150.32 279 144C281.03 137.68 286.56 134 292.09 134Z" />
			<path id="Bg" class="shp49" d="M336.95 140.7C348.04 139.37 424.34 140.26 428.66 141.14C436.55 142.74 434.65 144.75 435.56 149.6C436.47 154.46 436.4 159.49 435.89 164.12C435.37 168.74 434.77 170.88 425.15 171.94C415.52 173 348.31 172.05 333.01 171.77C325.23 171.63 323.66 167.31 323.11 165.01C322.56 162.7 321.87 152.22 323.28 147.85C324.68 143.48 324.83 142.16 336.95 140.7Z" />
			<path id="+" class="shp19" d="M453.99 145.08C453.85 143.7 453.47 142.67 457.77 142.16C462.06 141.64 463.46 140.94 463.97 141.8C464.49 142.66 464.3 155.55 464.26 164.91C464.25 169.33 465.2 169.63 459.11 170.5C455.57 171.01 456.68 167.18 456.07 164.23C455.45 161.29 454.04 145.6 453.99 145.08ZM470.81 151.69C472.19 151.63 474.79 150.74 474.44 154.47C474.04 158.77 473.62 159.67 472.76 160.18C472 160.64 453.92 160.91 450.39 161.1C446.86 161.29 446.85 162.06 445.94 155.66C445.43 152.11 448.74 152.93 453.73 152.6C458.83 152.26 465.42 151.91 470.81 151.69Z" />
			<text id="999999" style="transform: matrix(1,0,0,1,331.938,164.938)" >
				<tspan x="0" y="0" class="txt50">999999</tspan>
			</text>
			<g id="Coin icon">
				<path id="Base 1" class="shp19" d="M278.94 122.1C286.81 122.1 292 125.85 297.34 130.81C303.22 136.28 307.13 143.92 307.13 152.58C307.13 161.37 305.08 168.71 299.04 174.19C293.73 179 285.7 182.27 277.96 182.27C268.75 182.27 260.99 179.07 255.5 172.52C251.15 167.32 248.18 159.33 248.18 152.02C248.18 141.89 254.06 132.94 261.76 127.52C266.62 124.11 272.55 122.1 278.94 122.1Z" />
				<path id="Base 2" class="shp51" d="M278.13 126.38C285.14 126.38 290.49 128.69 295.25 133.11C300.5 137.98 303.99 144.8 303.99 152.52C303.99 160.36 300.64 167.22 295.26 172.11C290.52 176.4 284.87 178.51 277.98 178.51C269.76 178.51 263.47 174.7 258.57 168.86C254.69 164.23 252.17 158.54 252.17 152.02C252.17 142.99 256.66 135 263.53 130.18C267.87 127.13 272.43 126.38 278.13 126.38Z" />
				<path id="Base 2 copy" class="shp52" d="M278.12 132.7C283.43 132.7 287.48 134.45 291.09 137.8C295.06 141.49 297.7 146.65 297.7 152.5C297.7 158.43 295.17 163.64 291.09 167.33C287.51 170.59 283.23 172.18 278 172.18C271.78 172.18 267.01 169.3 263.31 164.88C260.37 161.37 258.46 157.06 258.46 152.12C258.46 145.28 261.86 139.23 267.06 135.58C270.35 133.27 273.8 132.7 278.12 132.7Z" />
				<path id="Color Fill 7" class="shp53" d="M282.69 139.92C282.77 139.5 282.85 139.1 282.93 138.74C283.01 138.38 283.07 138.07 283.12 137.82C283.17 137.58 283.2 137.44 283.2 137.42C283.2 137.38 283.19 137.35 283.17 137.32C283.15 137.3 283.11 137.29 283.03 137.29C282.16 137.42 281.27 137.53 280.35 137.61C279.44 137.68 278.56 137.75 277.71 137.81C277.61 137.83 277.55 137.85 277.51 137.89C277.47 137.92 277.45 137.98 277.44 138.04C277.43 138.11 277.42 138.2 277.41 138.31C277.4 138.41 277.39 138.55 277.37 138.7L276.8 142.17C276.15 142.3 275.5 142.54 274.85 142.92C274.2 143.29 273.62 143.75 273.11 144.27C272.59 144.8 272.17 145.37 271.84 146C271.52 146.62 271.35 147.24 271.35 147.84C271.35 148.75 271.58 149.59 272.04 150.35C272.5 151.11 273.27 151.82 274.33 152.47C275.19 153.01 275.88 153.48 276.39 153.88C276.91 154.29 277.3 154.65 277.58 154.96C277.86 155.28 278.05 155.56 278.14 155.81C278.23 156.06 278.27 156.29 278.27 156.51C278.27 156.87 278.08 157.19 277.76 157.54C276.75 158.68 276.31 158.68 274.69 158.84C272.13 159.09 270.59 156.53 269.77 156.6C269.13 156.82 268.77 158.05 268.25 159.23C267.88 160.07 267.54 160.82 267.36 161.76C267.77 162.23 268.3 163.71 272.04 164.14C273.92 164.36 275.65 163.98 275.65 163.98L274.89 168.3C275.23 168.3 275.62 168.29 276.05 168.27C276.48 168.25 276.9 168.23 277.32 168.2C277.74 168.16 278.12 168.14 278.46 168.12C278.81 168.1 279.06 168.1 279.22 168.1L280.65 168.13C280.68 167.68 280.71 167.2 280.74 166.68C280.78 166.16 280.82 165.65 280.85 165.16C280.89 164.67 280.92 164.23 280.95 163.83C280.98 163.43 281 163.12 281.02 162.92C281.72 162.62 282.39 162.26 283.02 161.86C283.66 161.45 284.22 161 284.7 160.49C285.19 159.99 285.57 159.45 285.85 158.86C286.13 158.27 286.27 157.64 286.27 156.96C286.27 156.16 286.12 155.46 285.82 154.84C285.52 154.23 285.15 153.69 284.7 153.2C284.26 152.72 283.77 152.28 283.25 151.88C282.73 151.49 282.25 151.11 281.8 150.74C281.35 150.37 280.98 149.99 280.68 149.61C280.38 149.23 280.24 148.8 280.24 148.33C280.24 147.94 280.37 147.63 280.65 147.4C280.93 147.16 281.27 146.98 281.66 146.85C282.05 146.72 282.45 146.64 282.86 146.6C283.27 146.56 283.6 146.53 283.85 146.53C284.06 146.53 284.32 146.55 284.63 146.58C284.95 146.61 285.25 146.64 285.56 146.67C285.86 146.7 286.12 146.73 286.35 146.76C286.57 146.79 286.7 146.81 286.72 146.81L286.23 141.47C285.88 141.42 285.38 141.36 284.73 141.3C284.08 141.24 283.32 141.18 282.45 141.12C282.52 140.75 282.6 140.35 282.69 139.92Z" />
				<path id="Shape 3" class="shp19" d="M296.01 118.77C296.01 118.77 294.19 124.61 290.02 127.1C287.86 128.4 283.99 128.72 279.58 128.64C279.58 128.64 286.93 131.23 288.68 133.48C289.75 134.85 289.96 139.76 289.48 144.23C289.48 144.23 292.01 136.92 294.42 135.38C295.91 134.43 301.87 133.54 305.09 133.94C305.09 133.94 297.26 131.76 295.71 128.78C294.76 126.96 296.01 118.77 296.01 118.77Z" />
			</g>
		</g>
		<g id="Ribbon">
			<path id="Color Fill 11 copy" class="shp54" d="M102.73 104.85C113.23 105.35 113 103.5 125.5 100.5C138 97.5 142.5 94.5 173.5 101.5C204.5 108.5 206.31 103.67 214.81 95.17C223.31 86.67 225.02 82.1 225.02 82.1C225.02 82.1 299.71 70.44 370.02 81.31C370.02 81.31 369.23 86.65 382.73 94.58C394.12 101.28 407.54 107.6 420.04 105.6C432.54 103.6 452.47 92.62 473.31 95.37C508.92 100.08 510 99.76 506.31 95.35C502.04 90.25 484.56 70.19 484.56 70.19C484.56 70.19 465.01 49.76 439 49C422 48.5 279 37 252.5 38.5C124.29 45.76 149.58 53.33 129.33 75.11C109.08 96.9 92.23 104.35 102.73 104.85Z" />
			<path id="base copy 2" fill-rule="evenodd" class="shp55" d="M454.68 28.23C453.87 31.88 448.31 34.33 444.33 39.99C442.06 40.72 440.6 41.2 440.6 41.2C440.6 41.2 392.2 54.2 388.2 60.6C387.67 61.45 387.09 62.4 386.49 63.42C384.22 63.06 381.82 62.69 379.3 62.32C349.69 57.96 276.19 55.22 228.35 62.17C220.29 63.35 212.51 64.44 205.31 65.52C208.89 67.89 217.82 73.6 218.9 75.84C224.46 81.16 205.36 99.08 200.33 98.8C183.42 97.86 159.11 90.51 147.32 86.78C135.52 83.06 126.58 85.98 112.62 88.15C98.65 90.32 91.72 88.53 93.89 86.36C96.06 84.19 117.73 65.79 117.42 62.37C117.11 58.96 102.69 49.21 99.28 45.49C95.86 41.76 91.83 36.17 97.42 37.73C103 39.28 128.01 39.46 136.7 39.46C141 39.46 147.05 40.94 151.42 42C148.41 34.62 131.07 23.78 158.46 18.07C166.72 16.35 178.1 13.94 191.87 11.44C194.39 10.99 197.31 13.01 199.99 12.55C202.98 12.04 203.44 8.5 208.93 8.54C213.66 8.58 218.48 7.07 223.52 6.38C225.71 6.07 228.16 9.55 230.42 9.26C233.21 8.9 230.07 4.89 232.95 4.55C253.81 2.14 282.72 0.32 306.97 0.32C330.42 0.32 351.91 1.64 370.65 3.6C374.09 3.96 374.24 9.5 377.51 9.6C391.23 10.03 388.1 5.69 391.61 6.2C414.3 9.46 431.12 13.42 439.96 16.27C452.64 20.37 456.49 20.05 454.68 28.23ZM440.23 53.9C440.18 69.46 437.37 75.56 435.86 75.49C429.12 75.17 431.73 70.56 386.49 63.42C382.6 70.03 377.69 79.4 377 82C376.2 85 383.8 90 393 94C402.2 98 413 100.33 417.2 99.13C421.4 97.93 447.6 85.2 454.2 82.8C460.8 80.4 471.2 79.6 489.4 79.4C507.6 79.2 511.4 80.4 512.4 80C513.4 79.6 509.6 75.2 505.6 71.6C501.6 68 489.6 58.9 489.2 56.3C488.8 53.7 497.2 42.2 501.6 40.2C506 38.2 511.2 33.4 511.6 32.4C512 31.4 503 31.4 496 31C489 30.6 473 31.8 470 32.2C467.7 32.51 451.71 37.61 444.33 39.99C442.02 43.27 440.25 47.62 440.23 53.9Z" />
			<path id="Color Fill 8 copy 3" fill-rule="evenodd" class="shp56" d="M177.65 71.47C189.23 67.91 214.41 64.57 214.41 64.57C214.41 64.57 227.42 79.66 213.43 75.89C204.49 73.49 183.58 85.44 175.51 83.57C167.44 81.71 162.65 81.37 159.62 79.28C158.14 78.25 166.58 74.88 177.65 71.47ZM148.17 37.5C151.67 40.83 158 50.83 157.17 61.5C156.33 72.17 154.17 80 158 81.83C161.83 83.67 177.83 86.5 177.83 86.5C177.83 86.5 158.83 85.17 155.33 81.5C151.83 77.83 153.83 71.5 154.33 67.83C154.83 64.17 155.33 52.17 152.5 47C149.67 41.83 145.33 37.67 144.67 34.83M194.11 82.21C194.11 82.21 204.75 78.62 209.25 78.25C213.75 77.87 216.5 78.75 215.87 80.25C215.25 81.75 208.59 89.38 206.47 91.38C204.34 93.38 203.12 95.5 200.37 96C200.37 96 202.32 95.05 206.21 90C208.16 87.47 213.19 81.66 213.19 80.66C213.19 79.66 205.78 79.59 194.11 82.21ZM379.2 62.8C389.2 63.6 405.4 66.4 417.4 69.2C429.4 72 439.8 73.6 442 74.8C444.2 76 438.94 76.93 433 78.8C420.27 82.81 398.29 76.02 390.93 77.9C379.12 80.91 374.28 82.56 377.61 87.06C380.95 91.56 368.5 80.83 370.17 77.17C371.83 73.5 369.2 62 379.2 62.8ZM457.49 29.76C446.33 39.59 445.08 41.83 442.58 46.67C440.08 51.5 443.5 56.33 445 63.17C446.5 70 447.69 72.46 445.36 76.01C441.55 81.81 430.67 82.5 430.67 82.5C436.83 80.67 442.5 78.83 444.5 74.83C446.5 70.83 442.83 66.17 440.5 56.33C438.17 46.5 443.83 39.17 447.5 36.17M387.46 83.32C384.58 84.32 384.75 84.89 397.18 90.53C410.41 96.54 417.12 94.87 417.12 94.87C410.25 97.5 400.69 93.59 391.81 90.22C382.94 86.84 380.5 83.87 383.75 82.87C387 81.87 395.48 81.11 395.48 81.11C395.48 81.11 390.33 82.32 387.46 83.32Z" />
			<path id="Color Fill 10 copy 3" fill-rule="evenodd" class="shp57" d="M151.75 43.78C151.75 43.78 140.32 41.48 129.67 41.9C129.08 41.93 132 45.14 136.35 58.62C142.05 76.24 133.91 82.15 134.21 82.1C144.17 80.45 163.8 89.6 176.2 92.8C188.6 96 198.86 96.75 201.26 95.95C203.66 95.15 212 85.4 214.8 82C217.6 78.6 215 78.8 211.4 78.4C207.8 78 199.6 80.4 193.2 82.6C186.8 84.8 183.2 87.4 177.8 86.6C172.4 85.8 158 83.6 156.4 80.4C154.8 77.2 156.6 69.4 156.8 62C157 54.6 155.54 49.16 152.34 44.76M448.6 36.2C444.6 39 438.8 47.8 439.8 53.8C440.8 59.8 445 68.8 445 72.2C445 75.6 444 78 436.8 80.6C429.6 83.2 421 83.4 416.4 82.8C411.8 82.2 400.2 80.5 396.6 80.9C393 81.3 383.05 82.44 382.46 84.27C381.88 86.1 395.62 92.07 402.42 93.67C409.22 95.27 413.6 97.6 426 91.8C438.4 86 457.27 76.75 467.4 76.65C467.4 76.65 461.2 63.6 464.4 55C467.6 46.4 470.4 34.4 470.4 34.4C470.4 34.4 461.07 36.54 457.5 37.83C453.93 39.12 447.75 41.85 445.04 41.99" />
			<text id="Store" style="transform: matrix(1.914,-0.003,0.003,1.914,246.712,46.77)" >
				<tspan x="0" y="0" class="txt58">Store</tspan>
			</text>
		</g>
	</g>
</svg>