<svg xmlns="http://www.w3.org/2000/svg" viewBox="0 0 126 54" width="126" height="54">
	<style>
		tspan { white-space:pre }
		.shp0 { fill: #74b7d7 } 
		.txt1 { font-size: 20px;fill: #ffffff;font-family: "" Carter  One"" } 
	</style>
	<g id="Tooltip">
		<path id="Base" class="shp0" d="M10.69 1.6C10.69 1.6 26.64 1.47 62.1 1.47C92.4 1.47 114.18 0.66 118.76 1.01C123.33 1.37 124.44 3.78 124.44 9.3C124.44 9.3 126.91 32.05 125.49 37.76C124.06 43.47 119.78 42.64 116.11 42.71C114.04 42.75 115.63 42.07 105.23 43.21C104.27 43.32 102.37 46.16 100.45 48.99C95.49 56.29 96.33 54.89 91.83 49.13C88.14 44.4 89.78 42.92 85.36 42.93C43.5 43.04 15.93 43.01 9.33 43.28C1.62 43.59 0.41 39.74 0.69 33.84C1.02 26.79 1.97 18.86 1.69 10.8C1.49 5.12 3.02 1.77 10.69 1.6Z" />
		<text id="Quick Tip" style="transform: matrix(1,0,0,1,14.938,27.938)" >
			<tspan x="0" y="0" class="txt1">Quick Tip</tspan>
		</text>
	</g>
</svg>