<svg xmlns="http://www.w3.org/2000/svg" viewBox="0 0 359 202" width="359" height="202">
	<defs>
		<linearGradient id="grd1" gradientUnits="userSpaceOnUse"  x1="231.133" y1="194.784" x2="231.133" y2="136.162">
			<stop offset="0" stop-color="#63be1d"  />
			<stop offset="1" stop-color="#9cdb50"  />
		</linearGradient>
		<linearGradient id="grd2" gradientUnits="userSpaceOnUse"  x1="125.133" y1="196.784" x2="125.133" y2="138.162">
			<stop offset="0" stop-color="#e42a2a"  />
			<stop offset="1" stop-color="#f16262"  />
		</linearGradient>
	</defs>
	<style>
		tspan { white-space:pre }
		.shp0 { fill: #d6a770 } 
		.shp1 { fill: #f8e8b0 } 
		.shp2 { fill: #ffffff } 
		.shp3 { fill: url(#grd1) } 
		.shp4 { opacity: 0.251;mix-blend-mode: multiply;fill: #6bb521 } 
		.shp5 { opacity: 0.502;mix-blend-mode: overlay;fill: #ffffff } 
		.shp6 { opacity: 0.702;mix-blend-mode: overlay;fill: #ffffff } 
		.shp7 { fill: url(#grd2) } 
		.shp8 { opacity: 0.251;mix-blend-mode: multiply;fill: #8d2316 } 
		.shp9 { opacity: 0.6;mix-blend-mode: overlay;fill: #ffffff } 
		.shp10 { opacity: 0.749;mix-blend-mode: overlay;fill: #ffffff } 
		.txt11 { font-size: 30px;fill: #ffffff;font-family: "" Carter  One"";text-anchor: middle } 
	</style>
	<g id="Warning">
		<g id="Panel">
			<path id="Shape 4 copy 2" class="shp0" d="M31.37 2.51C52.26 -1.66 94.18 2.14 178.87 1.72C255.61 1.34 321.98 2.63 328.57 3.12C347.41 4.53 357.8 11.19 358.32 31.5C358.73 47.35 357.73 42.62 357.12 77.96C356.86 93.09 354.69 143.32 354.06 149.32C352.32 165.83 344.05 175.29 322.95 176.75C301.85 178.21 262.03 174.42 183.7 174.42C97.57 174.42 56.72 179.44 39.31 177.9C21.91 176.36 9.17 169.44 7.38 150.14C5.6 130.84 -1.23 53.72 0.84 35.87C2.9 18.02 15.83 5.62 31.37 2.51Z" />
			<path id="Shape 4 copy 2" class="shp1" d="M43.61 9.98C63.67 6.06 96.72 10.16 178.07 9.77C251.79 9.41 314.79 11.58 321.11 12.05C339.21 13.37 350.27 20.19 350.76 39.73C351.18 56.49 348.77 58.28 348.2 93.43C347.9 112.36 348.74 138.61 348.24 143.27C346.57 158.74 334.16 167.44 313.9 168.8C293.63 170.17 257.88 167.01 182.63 167.01C99.9 167.01 60.04 169.78 43.31 168.33C26.59 166.89 14.36 160.41 12.64 142.33C10.93 124.24 8.47 66.39 8.79 40.26C9.04 19.42 28.68 12.89 43.61 9.98Z" />
		</g>
		<g id="Accept btn">
			<path id="Base 1" class="shp2" d="M232.1 131.35C240.95 131.35 246.79 135.57 252.79 141.15C259.41 147.29 263.81 155.89 263.81 165.63C263.81 175.51 261.49 183.77 254.71 189.93C248.73 195.35 239.7 199.02 231 199.02C220.64 199.02 211.91 195.42 205.74 188.05C200.84 182.21 197.51 173.22 197.51 165C197.51 153.61 204.12 143.54 212.78 137.45C218.25 133.61 224.91 131.35 232.1 131.35Z" />
			<path id="Base 2" class="shp3" d="M231.19 136.16C239.07 136.16 245.09 138.76 250.45 143.74C256.34 149.21 260.27 156.88 260.27 165.56C260.27 174.37 256.5 182.1 250.45 187.59C245.13 192.42 238.77 194.78 231.02 194.78C221.78 194.78 214.7 190.51 209.19 183.94C204.83 178.73 202 172.33 202 165C202 154.84 207.05 145.86 214.77 140.44C219.65 137.01 224.78 136.16 231.19 136.16Z" />
			<path id="Shadow" class="shp4" d="M202.69 169.79C203.59 175.66 213.65 192.1 233.79 186.93C265.65 178.76 257.21 151.96 257.21 151.96L261.95 160.14C261.95 160.14 262.74 175.23 257.68 183.49C255.72 186.68 243.69 197.6 230.34 196.67C223.51 196.2 211.33 191.02 207.33 186.62C203.33 182.22 200.05 171.79 200.05 171.79" />
			<path id="Light" class="shp5" d="M207.05 182.85C207.26 183.06 200.8 162.11 212.5 152.02C222.3 143.58 233.2 138.08 244.57 142.7C258.69 148.44 260.32 158.64 260.32 158.64C260.32 158.64 259.94 150.23 250.92 141.52C238.5 129.51 222.17 131.21 211.01 140.19C195.1 152.99 199.71 175.54 207.05 182.85Z" />
			<path id="Highlight" class="shp6" d="M211.78 148.06C209.41 150.05 208.03 157.33 212.72 151.57C215.14 148.6 219.86 145.99 219.76 145.38C219.67 144.8 215.88 144.6 211.78 148.06Z" />
			<path id="Color Fill 2" class="shp2" d="M214.93 166.75C215.75 165.26 219.92 163.27 220.97 162.67C222.02 162.07 222.58 162.77 223.18 163.97C223.78 165.17 226.31 171.82 226.31 171.82C226.31 171.82 239.29 155.75 240.53 153.94C242.57 150.97 243.56 148.68 245.2 154.52C246.07 157.63 248.19 160.75 246.24 162.4C244.28 164.06 235.04 170.91 229.32 177.34C226.05 181.02 225.54 180.31 223.81 178.38C218.37 172.31 213.83 168.73 214.93 166.75Z" />
		</g>
		<g id="X btn">
			<path id="Base 1" class="shp2" d="M126.1 133.35C134.95 133.35 140.79 137.57 146.79 143.15C153.41 149.3 157.81 157.89 157.81 167.63C157.81 177.51 155.49 185.77 148.71 191.93C142.73 197.34 133.7 201.02 125 201.02C114.64 201.02 105.91 197.42 99.74 190.05C94.84 184.21 91.51 175.22 91.51 167C91.51 155.61 98.12 145.54 106.78 139.45C112.25 135.61 118.91 133.35 126.1 133.35Z" />
			<path id="Base 2" class="shp7" d="M125.19 138.16C133.07 138.16 139.09 140.76 144.45 145.74C150.34 151.21 154.27 158.88 154.27 167.56C154.27 176.37 150.5 184.1 144.45 189.59C139.13 194.42 132.77 196.78 125.02 196.78C115.78 196.78 108.7 192.51 103.19 185.94C98.83 180.73 96 174.33 96 167C96 156.84 101.05 147.86 108.77 142.44C113.65 139.01 118.78 138.16 125.19 138.16Z" />
			<path id="Shadow" class="shp8" d="M96.69 171.79C97.59 177.66 107.65 194.1 127.79 188.93C159.65 180.76 151.21 153.96 151.21 153.96L155.95 162.14C155.95 162.14 156.74 177.23 151.68 185.49C149.72 188.68 137.69 199.6 124.34 198.67C117.51 198.2 105.33 193.02 101.33 188.62C97.33 184.22 94.05 173.79 94.05 173.79" />
			<path id="Light" class="shp9" d="M101.05 184.85C101.26 185.06 94.8 164.11 106.5 154.02C116.3 145.58 127.2 140.08 138.57 144.7C152.69 150.44 154.32 160.64 154.32 160.64C154.32 160.64 153.94 152.23 144.92 143.52C132.5 131.51 116.17 133.21 105.01 142.19C89.1 154.99 93.71 177.54 101.05 184.85Z" />
			<path id="Highlight" class="shp10" d="M105.78 150.06C103.41 152.06 102.03 159.34 106.72 153.57C109.14 150.6 113.86 147.99 113.76 147.38C113.67 146.8 109.88 146.6 105.78 150.06Z" />
			<path id="Shape 1" class="shp2" d="M130.06 152.91C131.08 151.66 131.62 150.51 135.58 153.62C139.54 156.73 141.27 157.3 140.99 158.44C140.7 159.57 129.93 170.03 122.19 177.71C118.53 181.33 119.08 182.37 113.34 178.07C110.01 175.57 114.08 173.33 116 170.4C117.92 167.47 129.68 153.38 130.06 152.91ZM138.47 172.21C139.66 173.3 142.53 174.7 139.17 177.49C135.3 180.7 134.21 181.09 133.08 180.81C132.09 180.56 116.97 165.89 113.91 163.14C110.85 160.39 110.2 161.02 114.72 154.99C117.22 151.66 119.27 155.05 123.66 158.89C128.14 162.81 133.85 167.96 138.47 172.21Z" />
		</g>
		<g id="Do you really want  to quit?">
			<text id="Do you really want " style="transform: matrix(1,0,0,1,178.688,65.094)" >
				<tspan x="0" y="0" class="txt11">Do you really want </tspan>
			</text>
			<text id="to quit?" style="transform: matrix(1,0,0,1,178.688,98.694)" >
				<tspan x="0" y="0" class="txt11">to quit?</tspan>
			</text>
		</g>
	</g>
</svg>