<svg xmlns="http://www.w3.org/2000/svg" xmlns:xlink="http://www.w3.org/1999/xlink" width="190.186" height="193" viewBox="0 0 190.186 193">
  <defs>
    <filter id="Base_1" x="0" y="0" width="190.186" height="193" filterUnits="userSpaceOnUse">
      <feOffset dx="5" dy="10" input="SourceAlpha"/>
      <feGaussianBlur stdDeviation="9" result="blur"/>
      <feFlood flood-opacity="0.31"/>
      <feComposite operator="in" in2="blur"/>
      <feComposite in="SourceGraphic"/>
    </filter>
  </defs>
  <g id="back" transform="translate(-124.51 -712.35)">
    <g transform="matrix(1, 0, 0, 1, 124.51, 712.35)" filter="url(#Base_1)">
      <path id="Base_1-2" data-name="Base 1" d="M217.561,729.35c18.179,0,30.174,8.668,42.5,20.13,13.6,12.612,22.636,30.277,22.636,50.284,0,20.294-4.765,37.261-18.692,49.914-12.283,11.113-30.832,18.672-48.7,18.672-21.28,0-39.212-7.395-51.886-22.533-10.065-12-16.905-30.462-16.905-47.347,0-23.4,13.577-44.081,31.366-56.59A68.831,68.831,0,0,1,217.561,729.35Z" transform="translate(-124.51 -712.35)" fill="#fff"/>
    </g>
    <path id="Base_2" data-name="Base 2" d="M210.959,734.16c16.186,0,28.552,5.341,39.562,15.57,12.1,11.236,20.171,26.991,20.171,44.82A60.549,60.549,0,0,1,250.52,839.8c-10.928,9.921-23.992,14.769-39.911,14.769-18.98,0-33.523-8.771-44.841-22.266C156.813,821.6,151,808.456,151,793.4a61.527,61.527,0,0,1,26.231-50.448C187.255,735.906,197.792,734.16,210.959,734.16Z" transform="translate(4.733 5.07)" fill="#e63434"/>
    <path id="Shadow" d="M154.473,786.584c1.849,12.057,22.513,45.827,63.882,35.207,65.443-16.782,48.107-71.831,48.107-71.831l9.736,16.782s1.623,31.017-8.771,47.983c-4.026,6.552-28.737,28.983-56.159,27.073-14.029-.965-39.048-11.605-47.264-20.643s-14.954-30.462-14.954-30.462" transform="translate(2.677 21.725)" fill="#e63434" opacity="0.251"/>
    <path id="Light" d="M163.155,833.414c.431.431-12.838-42.6,11.195-63.327,20.13-17.336,42.52-28.634,65.874-19.144,29,11.79,32.352,32.742,32.352,32.742s-.781-17.275-19.308-35.166c-25.512-24.67-59.055-21.178-81.978-2.732C138.609,772.079,148.078,818.4,163.155,833.414Z" transform="translate(2.951 1.722)" fill="#fff" opacity="0.502"/>
    <path id="Highlight" d="M163.078,749.236c-4.868,4.088-7.7,19.041,1.931,7.21,4.971-6.1,14.666-11.462,14.461-12.715C179.285,742.539,171.5,742.128,163.078,749.236Z" transform="translate(12.744 14.438)" fill="#fff"/>
    <path id="Arrow_icon" data-name="Arrow icon" d="M229.831,766.127c1.992.473,3.533,3.122,2.711,9.7s.062,12.078-.534,14.132c-.575,2.054-1.15,3.923-13.187,1.274-12.016-2.65-21.465-5.32-21.465-5.32s3.348,14.5,2.752,17.747c-.575,3.225-2.835,4.7-13.393-1.746-10.558-6.47-26.046-21.917-23.7-26.025,3.245-5.669,9.634-10.907,24.526-21.588,7.046-5.053,12.859-5.669,11.975,1.951s-2.136,13.721-2.136,13.721S223.5,764.627,229.831,766.127Z" transform="translate(17.144 22.299)" fill="#fff"/>
  </g>
</svg>
