<svg xmlns="http://www.w3.org/2000/svg" xmlns:xlink="http://www.w3.org/1999/xlink" width="190.186" height="193" viewBox="0 0 190.186 193">
  <defs>
    <filter id="Base_1" x="0" y="0" width="190.186" height="193" filterUnits="userSpaceOnUse">
      <feOffset dx="5" dy="10" input="SourceAlpha"/>
      <feGaussianBlur stdDeviation="9" result="blur"/>
      <feFlood flood-opacity="0.31"/>
      <feComposite operator="in" in2="blur"/>
      <feComposite in="SourceGraphic"/>
    </filter>
  </defs>
  <g id="book" transform="translate(-894 -41)">
    <g id="report" transform="translate(915.49 57.65)">
      <g id="More_games_btn" data-name="More games btn" transform="translate(0.51 0.35)">
        <g transform="matrix(1, 0, 0, 1, -22, -17)" filter="url(#Base_1)">
          <path id="Base_1-2" data-name="Base 1" d="M71.561.35c18.179,0,30.175,8.668,42.5,20.13,13.6,12.612,22.636,30.277,22.636,50.284,0,20.294-4.765,37.261-18.692,49.914C105.72,131.811,87.172,139.35,69.3,139.35c-21.28,0-39.212-7.395-51.886-22.533C7.35,104.821.51,86.355.51,69.47c0-23.4,13.578-44.081,31.366-56.59A68.831,68.831,0,0,1,71.561.35Z" transform="translate(21.49 16.65)" fill="#fff"/>
        </g>
        <path id="Base_2" data-name="Base 2" d="M64.959,5.16c16.186,0,28.552,5.341,39.562,15.57,12.1,11.236,20.171,26.991,20.171,44.82A60.549,60.549,0,0,1,104.52,110.8c-10.928,9.921-23.992,14.769-39.911,14.769-18.98,0-33.523-8.771-44.841-22.266C10.813,92.6,5,79.456,5,64.4A61.527,61.527,0,0,1,31.231,13.951C41.255,6.906,51.792,5.16,64.959,5.16Z" transform="translate(4.223 4.72)" fill="#5274ca"/>
        <path id="Shadow" d="M8.473,57.584c1.849,12.057,22.513,45.827,63.882,35.207C137.8,76.009,120.462,20.96,120.462,20.96l9.736,16.8s1.623,31-8.771,47.963C117.4,92.278,92.69,114.708,65.268,112.8,51.239,111.833,26.22,101.193,18,92.155S3.05,61.693,3.05,61.693" transform="translate(2.167 21.375)" fill="#5274ca" opacity="0.251"/>
        <path id="Light" d="M17.155,104.414c.431.431-12.838-42.6,11.195-63.327C48.48,23.75,70.869,12.453,94.224,21.942c29,11.79,32.352,32.742,32.352,32.742S125.8,37.41,107.268,19.519C81.756-5.151,48.213-1.659,25.289,16.787-7.391,43.079,2.078,89.4,17.155,104.414Z" transform="translate(2.441 1.371)" fill="#fff" opacity="0.502"/>
        <path id="Highlight" d="M17.078,20.236c-4.868,4.088-7.7,19.062,1.931,7.21,4.971-6.1,14.666-11.462,14.461-12.715C33.285,13.539,25.5,13.128,17.078,20.236Z" transform="translate(12.234 14.088)" fill="#fff"/>
      </g>
    </g>
    <g id="book-2" data-name="book" transform="translate(952.42 99.745)">
      <path id="Path_3" data-name="Path 3" d="M258.894,48.888V0l-1.865.156a71.74,71.74,0,0,0-21.746,5.3L232,6.82V55.515l2.391-.994a74.629,74.629,0,0,1,22.493-5.47Zm0,0" transform="translate(-196.548)" fill="#fff"/>
      <path id="Path_4" data-name="Path 4" d="M292.66,47.3h-3.667V90.084a1.223,1.223,0,0,1-1.122,1.222l-3.131.257q-1.356.112-2.7.278c-.291.035-.581.082-.87.122-.605.081-1.209.162-1.812.258-.351.056-.7.122-1.049.183-.539.094-1.079.188-1.617.294-.367.073-.734.156-1.108.235-.512.109-1.024.22-1.533.341-.381.091-.762.187-1.141.284-.495.122-.987.254-1.479.392-.383.105-.765.216-1.147.328-.489.144-.971.291-1.453.445l-1.133.367q-.725.244-1.444.5c-.367.133-.734.267-1.108.407-.168.064-.334.132-.5.2H292.66Zm0,0" transform="translate(-224.201 -40.069)" fill="#fff"/>
      <path id="Path_5" data-name="Path 5" d="M41.865.156,40,0V48.892l2.17.184a74.128,74.128,0,0,1,22.47,5.5l2.255.938V6.82l-3.28-1.362A71.738,71.738,0,0,0,41.865.156Zm0,0" transform="translate(-33.888)" fill="#fff"/>
      <path id="Path_6" data-name="Path 6" d="M0,47.3V96.2H28.039c-.15-.059-.3-.122-.452-.178-.35-.133-.7-.26-1.055-.389-.5-.18-.993-.356-1.493-.523q-.543-.184-1.088-.357-.744-.244-1.492-.46c-.367-.107-.734-.215-1.1-.318-.5-.139-1.006-.271-1.511-.4-.367-.094-.734-.189-1.108-.276-.512-.122-1.027-.235-1.542-.345-.367-.079-.734-.16-1.1-.233-.533-.105-1.068-.2-1.6-.293l-1.054-.185c-.591-.094-1.184-.173-1.776-.253-.3-.04-.6-.088-.9-.122q-1.345-.163-2.69-.278l-3.291-.279a1.223,1.223,0,0,1-1.119-1.222V47.3Zm0,0" transform="translate(0 -40.069)" fill="#fff"/>
    </g>
  </g>
</svg>
