<svg xmlns="http://www.w3.org/2000/svg" xmlns:xlink="http://www.w3.org/1999/xlink" width="183.934" height="186.619" viewBox="0 0 183.934 186.619">
  <defs>
    <filter id="Base_1" x="0" y="0" width="183.934" height="186.619" filterUnits="userSpaceOnUse">
      <feOffset dx="5" dy="10" input="SourceAlpha"/>
      <feGaussianBlur stdDeviation="9" result="blur"/>
      <feFlood flood-opacity="0.31"/>
      <feComposite operator="in" in2="blur"/>
      <feComposite in="SourceGraphic"/>
    </filter>
    <linearGradient id="linear-gradient" x1="0.5" y1="1" x2="0.5" gradientUnits="objectBoundingBox">
      <stop offset="0" stop-color="#e42a2a"/>
      <stop offset="1" stop-color="#f16262"/>
    </linearGradient>
  </defs>
  <g id="cancel" transform="translate(-204.51 -33.35)">
    <g id="X_btn" data-name="X btn" transform="translate(135 -83)">
      <g transform="matrix(1, 0, 0, 1, 69.51, 116.35)" filter="url(#Base_1)">
        <path id="Base_1-2" data-name="Base 1" d="M159.3,133.35c17.344,0,28.789,8.27,40.548,19.206,12.974,12.053,21.6,28.887,21.6,47.976,0,19.363-4.547,35.551-17.834,47.623a72.1,72.1,0,0,1-46.466,17.814c-20.3,0-37.412-7.055-49.5-21.5-9.6-11.445-16.129-29.064-16.129-45.173,0-22.322,12.954-42.057,29.926-53.992A65.671,65.671,0,0,1,159.3,133.35Z" transform="translate(-69.51 -116.35)" fill="#fff"/>
      </g>
      <path id="Base_2" data-name="Base 2" d="M153.206,138.16c15.443,0,27.241,5.1,37.745,14.855,11.543,10.72,19.245,25.752,19.245,42.762a57.769,57.769,0,0,1-19.245,43.174c-10.426,9.466-22.89,14.091-38.079,14.091-18.108,0-31.984-8.368-42.782-21.244C101.546,221.588,96,209.045,96,194.68a58.7,58.7,0,0,1,25.026-48.132C130.59,139.826,140.644,138.16,153.206,138.16Z" transform="translate(4.309 4.617)" fill="url(#linear-gradient)"/>
      <path id="Shadow" d="M99.224,188.9c1.764,11.5,21.479,43.723,60.949,33.591,62.439-16.011,45.9-68.534,45.9-68.534l9.289,16.031s1.548,29.573-8.368,45.761c-3.841,6.252-27.417,27.653-53.58,25.83-13.385-.921-37.256-11.073-45.095-19.7S94.05,192.822,94.05,192.822" transform="translate(2.438 19.781)" fill="#8d2316" opacity="0.251"/>
      <path id="Light" d="M107.519,232.711c.412.412-12.249-40.646,10.681-60.42,19.206-16.541,40.568-27.319,62.85-18.265,27.672,11.249,30.867,31.239,30.867,31.239s-.745-16.482-18.422-33.551c-24.341-23.537-56.344-20.205-78.215-2.607C84.1,174.192,93.135,218.385,107.519,232.711Z" transform="translate(2.687 1.567)" fill="#fff" opacity="0.6"/>
      <path id="Highlight" d="M107.872,152.951c-4.645,3.92-7.349,18.187,1.842,6.879,4.743-5.821,13.993-10.936,13.8-12.131C123.335,146.563,115.907,146.171,107.872,152.951Z" transform="translate(11.604 13.147)" fill="#fff" opacity="0.749"/>
      <path id="Shape_1" data-name="Shape 1" d="M147.9,154.142c2-2.45,3.057-4.7,10.818,1.391s11.151,7.212,10.6,9.446c-.568,2.215-21.675,22.714-36.844,37.765-7.173,7.094-6.095,9.133-17.344.706-6.526-4.9,1.45-9.289,5.213-15.032S147.156,155.064,147.9,154.142Zm16.482,37.824c2.332,2.136,7.957,4.88,1.372,10.348-7.584,6.291-9.721,7.055-11.935,6.506-1.94-.49-31.572-29.24-37.569-34.629s-7.271-4.155,1.587-15.972c4.9-6.526,8.917.118,17.52,7.643C144.138,173.544,155.328,183.637,164.382,191.966Z" transform="translate(19.159 17.541)" fill="#fff"/>
    </g>
  </g>
</svg>
