<svg xmlns="http://www.w3.org/2000/svg" xmlns:xlink="http://www.w3.org/1999/xlink" width="190.186" height="193" viewBox="0 0 190.186 193">
  <defs>
    <filter id="Base_1" x="0" y="0" width="190.186" height="193" filterUnits="userSpaceOnUse">
      <feOffset dx="5" dy="10" input="SourceAlpha"/>
      <feGaussianBlur stdDeviation="9" result="blur"/>
      <feFlood flood-opacity="0.31"/>
      <feComposite operator="in" in2="blur"/>
      <feComposite in="SourceGraphic"/>
    </filter>
  </defs>
  <g id="game" transform="translate(21.49 16.65)">
    <g id="More_games_btn" data-name="More games btn" transform="translate(0.51 0.35)">
      <g transform="matrix(1, 0, 0, 1, -22, -17)" filter="url(#Base_1)">
        <path id="Base_1-2" data-name="Base 1" d="M71.561.35c18.179,0,30.175,8.668,42.5,20.13,13.6,12.612,22.636,30.277,22.636,50.284,0,20.294-4.765,37.261-18.692,49.914C105.72,131.811,87.172,139.35,69.3,139.35c-21.28,0-39.212-7.395-51.886-22.533C7.35,104.821.51,86.355.51,69.47c0-23.4,13.578-44.081,31.366-56.59A68.831,68.831,0,0,1,71.561.35Z" transform="translate(21.49 16.65)" fill="#fff"/>
      </g>
      <path id="Base_2" data-name="Base 2" d="M64.959,5.16c16.186,0,28.552,5.341,39.562,15.57,12.1,11.236,20.171,26.991,20.171,44.82A60.549,60.549,0,0,1,104.52,110.8c-10.928,9.921-23.992,14.769-39.911,14.769-18.98,0-33.523-8.771-44.841-22.266C10.813,92.6,5,79.456,5,64.4A61.527,61.527,0,0,1,31.231,13.951C41.255,6.906,51.792,5.16,64.959,5.16Z" transform="translate(4.223 4.72)" fill="#e63434"/>
      <path id="Shadow" d="M8.473,57.584c1.849,12.057,22.513,45.827,63.882,35.207C137.8,76.009,120.462,20.96,120.462,20.96l9.736,16.8s1.623,31-8.771,47.963C117.4,92.278,92.69,114.708,65.268,112.8,51.239,111.833,26.22,101.193,18,92.155S3.05,61.693,3.05,61.693" transform="translate(2.167 21.375)" fill="#e63434" opacity="0.251"/>
      <path id="Light" d="M17.155,104.414c.431.431-12.838-42.6,11.195-63.327C48.48,23.75,70.869,12.453,94.224,21.942c29,11.79,32.352,32.742,32.352,32.742S125.8,37.41,107.268,19.519C81.756-5.151,48.213-1.659,25.289,16.787-7.391,43.079,2.078,89.4,17.155,104.414Z" transform="translate(2.441 1.371)" fill="#fff" opacity="0.502"/>
      <path id="Highlight" d="M17.078,20.236c-4.868,4.088-7.7,19.062,1.931,7.21,4.971-6.1,14.666-11.462,14.461-12.715C33.285,13.539,25.5,13.128,17.078,20.236Z" transform="translate(12.234 14.088)" fill="#fff"/>
      <path id="Controller_icon" data-name="Controller icon" d="M47.322,23.862c4.293-5.217,9.017-8.524,18.774-5.587,9.284,2.814,20.253,15.57,24.361,23.478,4.108,7.929,3.821,14.974-2.054,14.091s-12.222-4.991-19.329-5.32c-3.862-.185-21.506,8.422-27.032,14.132-3.821,3.9-.082,6.676-4.478,15.755-4.416,9.1-14.584,3.2-19.575-17.645C13,41.938,20.413,34.482,27.068,33.249,32.306,32.284,41.858,30.5,47.322,23.862ZM28.527,51.038c-.514.37-4.6,3.143-4.5,3.882.144,1.048,2.424,4.211,3.389,3.964.965-.267,3.8-3.615,3.8-3.615,1.294,1.212,2.362,5.217,4.17,4.047,0,0,4.067-2.465,3.533-3.615A35.74,35.74,0,0,0,35.7,52.208a10.023,10.023,0,0,0,1.315-.8c.7-.514,3.1-2.136,2.259-3.533-.822-1.417-2.2-3.389-3.02-3.02a23.736,23.736,0,0,0-3.677,3.122s-1.767-4.026-2.978-4.026c-1.191,0-2.506,1.458-3.821,2.383C23.761,47.772,28.527,51.038,28.527,51.038Zm6.861,8.278ZM52.6,29.141V31.2a2.06,2.06,0,0,0,2.054,2.054h2.054A2.06,2.06,0,0,0,58.763,31.2V29.141a2.06,2.06,0,0,0-2.054-2.054H54.655A2.06,2.06,0,0,0,52.6,29.141Zm10.27,0V31.2a2.06,2.06,0,0,0,2.054,2.054h2.054A2.06,2.06,0,0,0,69.033,31.2V29.141a2.06,2.06,0,0,0-2.054-2.054H64.925A2.06,2.06,0,0,0,62.871,29.141Zm0,10.27v2.054a2.06,2.06,0,0,0,2.054,2.054h2.054a2.06,2.06,0,0,0,2.054-2.054V39.412a2.06,2.06,0,0,0-2.054-2.054H64.925A2.06,2.06,0,0,0,62.871,39.412Zm-10.27,0v2.054a2.06,2.06,0,0,0,2.054,2.054h2.054a2.06,2.06,0,0,0,2.054-2.054V39.412a2.06,2.06,0,0,0-2.054-2.054H54.655A2.06,2.06,0,0,0,52.6,39.412Z" transform="translate(16.191 17.384)" fill="#fff" fill-rule="evenodd"/>
    </g>
  </g>
</svg>
