<svg xmlns="http://www.w3.org/2000/svg" xmlns:xlink="http://www.w3.org/1999/xlink" width="190.186" height="193" viewBox="0 0 190.186 193">
  <defs>
    <filter id="Base_1" x="0" y="0" width="190.186" height="193" filterUnits="userSpaceOnUse">
      <feOffset dx="5" dy="10" input="SourceAlpha"/>
      <feGaussianBlur stdDeviation="9" result="blur"/>
      <feFlood flood-opacity="0.31"/>
      <feComposite operator="in" in2="blur"/>
      <feComposite in="SourceGraphic"/>
    </filter>
    <linearGradient id="linear-gradient" x1="0.5" y1="1" x2="0.5" gradientUnits="objectBoundingBox">
      <stop offset="0" stop-color="#fda315"/>
      <stop offset="1" stop-color="#fecb43"/>
    </linearGradient>
  </defs>
  <g id="report" transform="translate(-85.51 -459.35)">
    <g transform="matrix(1, 0, 0, 1, 85.51, 459.35)" filter="url(#Base_1)">
      <path id="Base_1-2" data-name="Base 1" d="M178.561,476.35c18.179,0,30.174,8.668,42.5,20.13,13.6,12.633,22.636,30.277,22.636,50.284,0,20.294-4.765,37.261-18.692,49.914-12.283,11.133-30.832,18.672-48.7,18.672-21.28,0-39.212-7.395-51.886-22.533-10.065-12-16.905-30.462-16.905-47.347,0-23.4,13.577-44.081,31.366-56.59A68.831,68.831,0,0,1,178.561,476.35Z" transform="translate(-85.51 -459.35)" fill="#fff"/>
    </g>
    <path id="Base_2" data-name="Base 2" d="M171.959,481.16c16.186,0,28.552,5.341,39.562,15.57,12.1,11.236,20.171,26.991,20.171,44.82A60.549,60.549,0,0,1,211.52,586.8c-10.928,9.921-23.992,14.769-39.911,14.769-18.98,0-33.523-8.771-44.841-22.266C117.813,568.6,112,555.456,112,540.4a61.527,61.527,0,0,1,26.231-50.448C148.255,482.906,158.792,481.16,171.959,481.16Z" transform="translate(4.733 5.07)" fill="url(#linear-gradient)"/>
    <path id="Shadow" d="M115.473,533.584c1.849,12.057,22.513,45.827,63.882,35.207,65.443-16.782,48.107-71.831,48.107-71.831l9.736,16.8s1.623,31-8.771,47.963c-4.026,6.552-28.737,28.983-56.159,27.073-14.029-.965-39.048-11.606-47.264-20.644s-14.954-30.462-14.954-30.462" transform="translate(2.677 21.725)" fill="#c28017" opacity="0.251"/>
    <path id="Light" d="M124.155,580.414c.431.431-12.838-42.6,11.195-63.328,20.13-17.336,42.52-28.634,65.875-19.144,29,11.79,32.352,32.742,32.352,32.742s-.781-17.275-19.308-35.166c-25.512-24.67-59.055-21.178-81.979-2.732C99.609,519.079,109.078,565.4,124.155,580.414Z" transform="translate(2.951 1.722)" fill="#fff" opacity="0.502"/>
    <path id="Highlight" d="M124.078,496.236c-4.868,4.088-7.7,19.062,1.931,7.21,4.971-6.1,14.666-11.462,14.461-12.715C140.285,489.539,132.5,489.128,124.078,496.236Z" transform="translate(12.744 14.438)" fill="#fff"/>
    <path id="Menu_icon" data-name="Menu icon" d="M150.893,502.2c-.123,3.533-1.315,7.292,1.315,7.949,2.65.657,24.279.534,31.1.534,6.84,0,7.292-.308,7.066-5.176-.226-4.848.883-9.7-2.2-9.469C185.073,496.268,151.037,497.952,150.893,502.2Zm-20.274-5.628a7.635,7.635,0,0,0-1.992,11.749c3.738,4.56,8.545,1.869,11.051.205,2.485-1.643,3.081-7.292,1.006-9.777A7.882,7.882,0,0,0,130.619,496.576Zm20.274,47.408c.082,3.513-1.315,7.272,1.315,7.929,2.65.657,24.279,1.992,31.1,1.992,6.84,0,7.292-.39,7.066-5.259-.226-4.848.883-7.395-2.2-7.251C176.014,541.971,150.811,540.9,150.893,543.984Zm-10.476-1.171c-2.773-2.444-9.962-2.9-12.817,2.2-2.835,5.094,1.4,8.5,3.821,10.188s9.059.616,10.6-2.2S144.936,546.778,140.417,542.814Zm8.607-18.754c-.185,3.512-1.232,6.614,1.417,7.292,2.65.657,28.387.226,35.228.226,6.82,0,7.271-.411,7.045-5.258s.76-7.313-2.321-7.087C187.291,519.459,149.147,521.39,149.024,524.06Zm-13.762-4.437c-3.533-.781-9.9,2.239-9.921,7.949-.021,5.69,5.2,6.614,8.073,6.9,2.9.288,8.052-3.759,8.031-6.9S140.992,520.876,135.261,519.623Z" transform="translate(18.794 20.322)" fill="#fff"/>
  </g>
</svg>
