<svg xmlns="http://www.w3.org/2000/svg" xmlns:xlink="http://www.w3.org/1999/xlink" width="177.357" height="179.906" viewBox="0 0 177.357 179.906">
  <defs>
    <filter id="Base_1" x="0" y="0" width="177.357" height="179.906" filterUnits="userSpaceOnUse">
      <feOffset dx="5" dy="10" input="SourceAlpha"/>
      <feGaussianBlur stdDeviation="9" result="blur"/>
      <feFlood flood-opacity="0.31"/>
      <feComposite operator="in" in2="blur"/>
      <feComposite in="SourceGraphic"/>
    </filter>
  </defs>
  <g id="Submit" transform="translate(-175.51 -114.35)">
    <g transform="matrix(1, 0, 0, 1, 175.51, 114.35)" filter="url(#Base_1)">
      <path id="Base_1-2" data-name="Base 1" d="M261.868,131.35c16.466,0,27.332,7.852,38.5,18.234,12.317,11.424,20.5,27.425,20.5,45.547,0,18.383-4.317,33.751-16.931,45.212a68.354,68.354,0,0,1-44.115,16.913c-19.276,0-35.519-6.7-47-20.411-9.117-10.866-15.313-27.593-15.313-42.887,0-21.192,12.3-39.928,28.411-51.259A62.347,62.347,0,0,1,261.868,131.35Z" transform="translate(-175.51 -114.35)" fill="#fff"/>
    </g>
    <path id="Base_2" data-name="Base 2" d="M256.311,136.16c14.661,0,25.862,4.838,35.835,14.1,10.959,10.177,18.271,24.448,18.271,40.6a54.845,54.845,0,0,1-18.271,40.989c-9.9,8.987-21.732,13.378-36.151,13.378-17.192,0-30.365-7.945-40.617-20.169-8.112-9.694-13.378-21.6-13.378-35.24a55.731,55.731,0,0,1,23.76-45.7C234.839,137.741,244.384,136.16,256.311,136.16Z" transform="translate(3.864 4.139)" fill="#4ed145"/>
    <path id="Shadow" d="M204.962,185.134c1.674,10.922,20.392,41.51,57.864,31.891C322.1,201.824,306.4,151.96,306.4,151.96l8.819,15.22s1.47,28.076-7.945,43.445c-3.647,5.935-26.03,26.253-50.869,24.523-12.708-.874-35.37-10.512-42.812-18.7s-13.545-27.593-13.545-27.593" transform="translate(2.186 17.737)" fill="#4ed145" opacity="0.251"/>
    <path id="Light" d="M212.851,225.765c.391.391-11.629-38.589,10.14-57.362,18.234-15.7,38.514-25.937,59.669-17.341,26.272,10.68,29.3,29.658,29.3,29.658s-.707-15.648-17.49-31.853c-23.109-22.346-53.492-19.183-74.256-2.475C190.617,170.208,199.194,212.164,212.851,225.765Z" transform="translate(2.409 1.405)" fill="#fff" opacity="0.502"/>
    <path id="Highlight" d="M213.656,150.653c-4.41,3.7-6.977,17.248,1.749,6.531,4.5-5.526,13.285-10.382,13.1-11.517C228.336,144.587,221.285,144.215,213.656,150.653Z" transform="translate(10.404 11.788)" fill="#fff" opacity="0.702"/>
    <path id="Color_Fill_2" data-name="Color Fill 2" d="M215.072,180.394c1.526-2.772,9.284-6.475,11.238-7.591s3,.186,4.112,2.419,5.824,14.606,5.824,14.606,24.15-29.9,26.458-33.267c3.8-5.526,5.638-9.787,8.689,1.079,1.619,5.786,5.563,11.591,1.935,14.661-3.647,3.089-20.839,15.834-31.481,27.8-6.084,6.847-7.033,5.526-10.252,1.935C221.473,190.739,213.026,184.078,215.072,180.394Z" transform="translate(14.849 16.821)" fill="#fff"/>
  </g>
</svg>
